%TF.GenerationSoftware,KiCad,Pcbnew,9.0.5-9.0.5~ubuntu24.04.1*%
%TF.CreationDate,2025-10-15T00:30:22+05:00*%
%TF.ProjectId,AH4,4148342e-6b69-4636-9164-5f7063625858,rev?*%
%TF.SameCoordinates,Original*%
%TF.FileFunction,Legend,Bot*%
%TF.FilePolarity,Positive*%
%FSLAX46Y46*%
G04 Gerber Fmt 4.6, Leading zero omitted, Abs format (unit mm)*
G04 Created by KiCad (PCBNEW 9.0.5-9.0.5~ubuntu24.04.1) date 2025-10-15 00:30:22*
%MOMM*%
%LPD*%
G01*
G04 APERTURE LIST*
%ADD10C,0.100000*%
%ADD11C,0.200000*%
G04 APERTURE END LIST*
D10*
X200500000Y-67500000D02*
X222500000Y-67500000D01*
X222500000Y-71500000D01*
X200500000Y-71500000D01*
X200500000Y-67500000D01*
G36*
X200500000Y-67500000D02*
G01*
X222500000Y-67500000D01*
X222500000Y-71500000D01*
X200500000Y-71500000D01*
X200500000Y-67500000D01*
G37*
D11*
X221554136Y-101842742D02*
X222239850Y-101842742D01*
X221896993Y-101842742D02*
X221896993Y-100642742D01*
X221896993Y-100642742D02*
X222011279Y-100814171D01*
X222011279Y-100814171D02*
X222125564Y-100928457D01*
X222125564Y-100928457D02*
X222239850Y-100985600D01*
X220525565Y-101042742D02*
X220525565Y-101842742D01*
X220811279Y-100585600D02*
X221096993Y-101442742D01*
X221096993Y-101442742D02*
X220354136Y-101442742D01*
X219896993Y-101728457D02*
X219839850Y-101785600D01*
X219839850Y-101785600D02*
X219896993Y-101842742D01*
X219896993Y-101842742D02*
X219954136Y-101785600D01*
X219954136Y-101785600D02*
X219896993Y-101728457D01*
X219896993Y-101728457D02*
X219896993Y-101842742D01*
X218696993Y-101842742D02*
X219382707Y-101842742D01*
X219039850Y-101842742D02*
X219039850Y-100642742D01*
X219039850Y-100642742D02*
X219154136Y-100814171D01*
X219154136Y-100814171D02*
X219268421Y-100928457D01*
X219268421Y-100928457D02*
X219382707Y-100985600D01*
X217954136Y-100642742D02*
X217839850Y-100642742D01*
X217839850Y-100642742D02*
X217725564Y-100699885D01*
X217725564Y-100699885D02*
X217668422Y-100757028D01*
X217668422Y-100757028D02*
X217611279Y-100871314D01*
X217611279Y-100871314D02*
X217554136Y-101099885D01*
X217554136Y-101099885D02*
X217554136Y-101385600D01*
X217554136Y-101385600D02*
X217611279Y-101614171D01*
X217611279Y-101614171D02*
X217668422Y-101728457D01*
X217668422Y-101728457D02*
X217725564Y-101785600D01*
X217725564Y-101785600D02*
X217839850Y-101842742D01*
X217839850Y-101842742D02*
X217954136Y-101842742D01*
X217954136Y-101842742D02*
X218068422Y-101785600D01*
X218068422Y-101785600D02*
X218125564Y-101728457D01*
X218125564Y-101728457D02*
X218182707Y-101614171D01*
X218182707Y-101614171D02*
X218239850Y-101385600D01*
X218239850Y-101385600D02*
X218239850Y-101099885D01*
X218239850Y-101099885D02*
X218182707Y-100871314D01*
X218182707Y-100871314D02*
X218125564Y-100757028D01*
X218125564Y-100757028D02*
X218068422Y-100699885D01*
X218068422Y-100699885D02*
X217954136Y-100642742D01*
X217039850Y-101728457D02*
X216982707Y-101785600D01*
X216982707Y-101785600D02*
X217039850Y-101842742D01*
X217039850Y-101842742D02*
X217096993Y-101785600D01*
X217096993Y-101785600D02*
X217039850Y-101728457D01*
X217039850Y-101728457D02*
X217039850Y-101842742D01*
X216525564Y-100757028D02*
X216468421Y-100699885D01*
X216468421Y-100699885D02*
X216354136Y-100642742D01*
X216354136Y-100642742D02*
X216068421Y-100642742D01*
X216068421Y-100642742D02*
X215954136Y-100699885D01*
X215954136Y-100699885D02*
X215896993Y-100757028D01*
X215896993Y-100757028D02*
X215839850Y-100871314D01*
X215839850Y-100871314D02*
X215839850Y-100985600D01*
X215839850Y-100985600D02*
X215896993Y-101157028D01*
X215896993Y-101157028D02*
X216582707Y-101842742D01*
X216582707Y-101842742D02*
X215839850Y-101842742D01*
X215096993Y-100642742D02*
X214982707Y-100642742D01*
X214982707Y-100642742D02*
X214868421Y-100699885D01*
X214868421Y-100699885D02*
X214811279Y-100757028D01*
X214811279Y-100757028D02*
X214754136Y-100871314D01*
X214754136Y-100871314D02*
X214696993Y-101099885D01*
X214696993Y-101099885D02*
X214696993Y-101385600D01*
X214696993Y-101385600D02*
X214754136Y-101614171D01*
X214754136Y-101614171D02*
X214811279Y-101728457D01*
X214811279Y-101728457D02*
X214868421Y-101785600D01*
X214868421Y-101785600D02*
X214982707Y-101842742D01*
X214982707Y-101842742D02*
X215096993Y-101842742D01*
X215096993Y-101842742D02*
X215211279Y-101785600D01*
X215211279Y-101785600D02*
X215268421Y-101728457D01*
X215268421Y-101728457D02*
X215325564Y-101614171D01*
X215325564Y-101614171D02*
X215382707Y-101385600D01*
X215382707Y-101385600D02*
X215382707Y-101099885D01*
X215382707Y-101099885D02*
X215325564Y-100871314D01*
X215325564Y-100871314D02*
X215268421Y-100757028D01*
X215268421Y-100757028D02*
X215211279Y-100699885D01*
X215211279Y-100699885D02*
X215096993Y-100642742D01*
X214239850Y-100757028D02*
X214182707Y-100699885D01*
X214182707Y-100699885D02*
X214068422Y-100642742D01*
X214068422Y-100642742D02*
X213782707Y-100642742D01*
X213782707Y-100642742D02*
X213668422Y-100699885D01*
X213668422Y-100699885D02*
X213611279Y-100757028D01*
X213611279Y-100757028D02*
X213554136Y-100871314D01*
X213554136Y-100871314D02*
X213554136Y-100985600D01*
X213554136Y-100985600D02*
X213611279Y-101157028D01*
X213611279Y-101157028D02*
X214296993Y-101842742D01*
X214296993Y-101842742D02*
X213554136Y-101842742D01*
X212468422Y-100642742D02*
X213039850Y-100642742D01*
X213039850Y-100642742D02*
X213096993Y-101214171D01*
X213096993Y-101214171D02*
X213039850Y-101157028D01*
X213039850Y-101157028D02*
X212925565Y-101099885D01*
X212925565Y-101099885D02*
X212639850Y-101099885D01*
X212639850Y-101099885D02*
X212525565Y-101157028D01*
X212525565Y-101157028D02*
X212468422Y-101214171D01*
X212468422Y-101214171D02*
X212411279Y-101328457D01*
X212411279Y-101328457D02*
X212411279Y-101614171D01*
X212411279Y-101614171D02*
X212468422Y-101728457D01*
X212468422Y-101728457D02*
X212525565Y-101785600D01*
X212525565Y-101785600D02*
X212639850Y-101842742D01*
X212639850Y-101842742D02*
X212925565Y-101842742D01*
X212925565Y-101842742D02*
X213039850Y-101785600D01*
X213039850Y-101785600D02*
X213096993Y-101728457D01*
X222167300Y-77012240D02*
X221995872Y-77069383D01*
X221995872Y-77069383D02*
X221938729Y-77126526D01*
X221938729Y-77126526D02*
X221881586Y-77240811D01*
X221881586Y-77240811D02*
X221881586Y-77412240D01*
X221881586Y-77412240D02*
X221938729Y-77526526D01*
X221938729Y-77526526D02*
X221995872Y-77583669D01*
X221995872Y-77583669D02*
X222110157Y-77640811D01*
X222110157Y-77640811D02*
X222567300Y-77640811D01*
X222567300Y-77640811D02*
X222567300Y-76440811D01*
X222567300Y-76440811D02*
X222167300Y-76440811D01*
X222167300Y-76440811D02*
X222053015Y-76497954D01*
X222053015Y-76497954D02*
X221995872Y-76555097D01*
X221995872Y-76555097D02*
X221938729Y-76669383D01*
X221938729Y-76669383D02*
X221938729Y-76783669D01*
X221938729Y-76783669D02*
X221995872Y-76897954D01*
X221995872Y-76897954D02*
X222053015Y-76955097D01*
X222053015Y-76955097D02*
X222167300Y-77012240D01*
X222167300Y-77012240D02*
X222567300Y-77012240D01*
X220853015Y-77640811D02*
X220853015Y-77012240D01*
X220853015Y-77012240D02*
X220910157Y-76897954D01*
X220910157Y-76897954D02*
X221024443Y-76840811D01*
X221024443Y-76840811D02*
X221253015Y-76840811D01*
X221253015Y-76840811D02*
X221367300Y-76897954D01*
X220853015Y-77583669D02*
X220967300Y-77640811D01*
X220967300Y-77640811D02*
X221253015Y-77640811D01*
X221253015Y-77640811D02*
X221367300Y-77583669D01*
X221367300Y-77583669D02*
X221424443Y-77469383D01*
X221424443Y-77469383D02*
X221424443Y-77355097D01*
X221424443Y-77355097D02*
X221367300Y-77240811D01*
X221367300Y-77240811D02*
X221253015Y-77183669D01*
X221253015Y-77183669D02*
X220967300Y-77183669D01*
X220967300Y-77183669D02*
X220853015Y-77126526D01*
X220281586Y-77640811D02*
X220281586Y-76840811D01*
X220281586Y-77069383D02*
X220224443Y-76955097D01*
X220224443Y-76955097D02*
X220167301Y-76897954D01*
X220167301Y-76897954D02*
X220053015Y-76840811D01*
X220053015Y-76840811D02*
X219938729Y-76840811D01*
X219595872Y-77583669D02*
X219481586Y-77640811D01*
X219481586Y-77640811D02*
X219253015Y-77640811D01*
X219253015Y-77640811D02*
X219138729Y-77583669D01*
X219138729Y-77583669D02*
X219081586Y-77469383D01*
X219081586Y-77469383D02*
X219081586Y-77412240D01*
X219081586Y-77412240D02*
X219138729Y-77297954D01*
X219138729Y-77297954D02*
X219253015Y-77240811D01*
X219253015Y-77240811D02*
X219424444Y-77240811D01*
X219424444Y-77240811D02*
X219538729Y-77183669D01*
X219538729Y-77183669D02*
X219595872Y-77069383D01*
X219595872Y-77069383D02*
X219595872Y-77012240D01*
X219595872Y-77012240D02*
X219538729Y-76897954D01*
X219538729Y-76897954D02*
X219424444Y-76840811D01*
X219424444Y-76840811D02*
X219253015Y-76840811D01*
X219253015Y-76840811D02*
X219138729Y-76897954D01*
X218395872Y-77640811D02*
X218510157Y-77583669D01*
X218510157Y-77583669D02*
X218567300Y-77526526D01*
X218567300Y-77526526D02*
X218624443Y-77412240D01*
X218624443Y-77412240D02*
X218624443Y-77069383D01*
X218624443Y-77069383D02*
X218567300Y-76955097D01*
X218567300Y-76955097D02*
X218510157Y-76897954D01*
X218510157Y-76897954D02*
X218395872Y-76840811D01*
X218395872Y-76840811D02*
X218224443Y-76840811D01*
X218224443Y-76840811D02*
X218110157Y-76897954D01*
X218110157Y-76897954D02*
X218053015Y-76955097D01*
X218053015Y-76955097D02*
X217995872Y-77069383D01*
X217995872Y-77069383D02*
X217995872Y-77412240D01*
X217995872Y-77412240D02*
X218053015Y-77526526D01*
X218053015Y-77526526D02*
X218110157Y-77583669D01*
X218110157Y-77583669D02*
X218224443Y-77640811D01*
X218224443Y-77640811D02*
X218395872Y-77640811D01*
X217653015Y-76840811D02*
X217195872Y-76840811D01*
X217481586Y-76440811D02*
X217481586Y-77469383D01*
X217481586Y-77469383D02*
X217424443Y-77583669D01*
X217424443Y-77583669D02*
X217310158Y-77640811D01*
X217310158Y-77640811D02*
X217195872Y-77640811D01*
X216795872Y-77640811D02*
X216795872Y-76840811D01*
X216795872Y-76440811D02*
X216853015Y-76497954D01*
X216853015Y-76497954D02*
X216795872Y-76555097D01*
X216795872Y-76555097D02*
X216738729Y-76497954D01*
X216738729Y-76497954D02*
X216795872Y-76440811D01*
X216795872Y-76440811D02*
X216795872Y-76555097D01*
X216053015Y-77640811D02*
X216167300Y-77583669D01*
X216167300Y-77583669D02*
X216224443Y-77526526D01*
X216224443Y-77526526D02*
X216281586Y-77412240D01*
X216281586Y-77412240D02*
X216281586Y-77069383D01*
X216281586Y-77069383D02*
X216224443Y-76955097D01*
X216224443Y-76955097D02*
X216167300Y-76897954D01*
X216167300Y-76897954D02*
X216053015Y-76840811D01*
X216053015Y-76840811D02*
X215881586Y-76840811D01*
X215881586Y-76840811D02*
X215767300Y-76897954D01*
X215767300Y-76897954D02*
X215710158Y-76955097D01*
X215710158Y-76955097D02*
X215653015Y-77069383D01*
X215653015Y-77069383D02*
X215653015Y-77412240D01*
X215653015Y-77412240D02*
X215710158Y-77526526D01*
X215710158Y-77526526D02*
X215767300Y-77583669D01*
X215767300Y-77583669D02*
X215881586Y-77640811D01*
X215881586Y-77640811D02*
X216053015Y-77640811D01*
X215138729Y-76840811D02*
X215138729Y-77640811D01*
X215138729Y-76955097D02*
X215081586Y-76897954D01*
X215081586Y-76897954D02*
X214967301Y-76840811D01*
X214967301Y-76840811D02*
X214795872Y-76840811D01*
X214795872Y-76840811D02*
X214681586Y-76897954D01*
X214681586Y-76897954D02*
X214624444Y-77012240D01*
X214624444Y-77012240D02*
X214624444Y-77640811D01*
X213195872Y-77297954D02*
X212624444Y-77297954D01*
X213310158Y-77640811D02*
X212910158Y-76440811D01*
X212910158Y-76440811D02*
X212510158Y-77640811D01*
X212110158Y-77640811D02*
X212110158Y-76440811D01*
X212110158Y-77012240D02*
X211424444Y-77012240D01*
X211424444Y-77640811D02*
X211424444Y-76440811D01*
X210338730Y-76840811D02*
X210338730Y-77640811D01*
X210624444Y-76383669D02*
X210910158Y-77240811D01*
X210910158Y-77240811D02*
X210167301Y-77240811D01*
X222517300Y-80190811D02*
X222517300Y-78990811D01*
X221260157Y-80076526D02*
X221317300Y-80133669D01*
X221317300Y-80133669D02*
X221488728Y-80190811D01*
X221488728Y-80190811D02*
X221603014Y-80190811D01*
X221603014Y-80190811D02*
X221774443Y-80133669D01*
X221774443Y-80133669D02*
X221888728Y-80019383D01*
X221888728Y-80019383D02*
X221945871Y-79905097D01*
X221945871Y-79905097D02*
X222003014Y-79676526D01*
X222003014Y-79676526D02*
X222003014Y-79505097D01*
X222003014Y-79505097D02*
X221945871Y-79276526D01*
X221945871Y-79276526D02*
X221888728Y-79162240D01*
X221888728Y-79162240D02*
X221774443Y-79047954D01*
X221774443Y-79047954D02*
X221603014Y-78990811D01*
X221603014Y-78990811D02*
X221488728Y-78990811D01*
X221488728Y-78990811D02*
X221317300Y-79047954D01*
X221317300Y-79047954D02*
X221260157Y-79105097D01*
X220745871Y-80190811D02*
X220745871Y-78990811D01*
X220745871Y-78990811D02*
X220345871Y-79847954D01*
X220345871Y-79847954D02*
X219945871Y-78990811D01*
X219945871Y-78990811D02*
X219945871Y-80190811D01*
X219374442Y-79733669D02*
X218460157Y-79733669D01*
X217374443Y-79390811D02*
X217374443Y-80190811D01*
X217660157Y-78933669D02*
X217945871Y-79790811D01*
X217945871Y-79790811D02*
X217203014Y-79790811D01*
X216174443Y-78990811D02*
X216745871Y-78990811D01*
X216745871Y-78990811D02*
X216803014Y-79562240D01*
X216803014Y-79562240D02*
X216745871Y-79505097D01*
X216745871Y-79505097D02*
X216631586Y-79447954D01*
X216631586Y-79447954D02*
X216345871Y-79447954D01*
X216345871Y-79447954D02*
X216231586Y-79505097D01*
X216231586Y-79505097D02*
X216174443Y-79562240D01*
X216174443Y-79562240D02*
X216117300Y-79676526D01*
X216117300Y-79676526D02*
X216117300Y-79962240D01*
X216117300Y-79962240D02*
X216174443Y-80076526D01*
X216174443Y-80076526D02*
X216231586Y-80133669D01*
X216231586Y-80133669D02*
X216345871Y-80190811D01*
X216345871Y-80190811D02*
X216631586Y-80190811D01*
X216631586Y-80190811D02*
X216745871Y-80133669D01*
X216745871Y-80133669D02*
X216803014Y-80076526D01*
X215088729Y-78990811D02*
X215317300Y-78990811D01*
X215317300Y-78990811D02*
X215431586Y-79047954D01*
X215431586Y-79047954D02*
X215488729Y-79105097D01*
X215488729Y-79105097D02*
X215603014Y-79276526D01*
X215603014Y-79276526D02*
X215660157Y-79505097D01*
X215660157Y-79505097D02*
X215660157Y-79962240D01*
X215660157Y-79962240D02*
X215603014Y-80076526D01*
X215603014Y-80076526D02*
X215545871Y-80133669D01*
X215545871Y-80133669D02*
X215431586Y-80190811D01*
X215431586Y-80190811D02*
X215203014Y-80190811D01*
X215203014Y-80190811D02*
X215088729Y-80133669D01*
X215088729Y-80133669D02*
X215031586Y-80076526D01*
X215031586Y-80076526D02*
X214974443Y-79962240D01*
X214974443Y-79962240D02*
X214974443Y-79676526D01*
X214974443Y-79676526D02*
X215031586Y-79562240D01*
X215031586Y-79562240D02*
X215088729Y-79505097D01*
X215088729Y-79505097D02*
X215203014Y-79447954D01*
X215203014Y-79447954D02*
X215431586Y-79447954D01*
X215431586Y-79447954D02*
X215545871Y-79505097D01*
X215545871Y-79505097D02*
X215603014Y-79562240D01*
X215603014Y-79562240D02*
X215660157Y-79676526D01*
X214288729Y-79505097D02*
X214403014Y-79447954D01*
X214403014Y-79447954D02*
X214460157Y-79390811D01*
X214460157Y-79390811D02*
X214517300Y-79276526D01*
X214517300Y-79276526D02*
X214517300Y-79219383D01*
X214517300Y-79219383D02*
X214460157Y-79105097D01*
X214460157Y-79105097D02*
X214403014Y-79047954D01*
X214403014Y-79047954D02*
X214288729Y-78990811D01*
X214288729Y-78990811D02*
X214060157Y-78990811D01*
X214060157Y-78990811D02*
X213945872Y-79047954D01*
X213945872Y-79047954D02*
X213888729Y-79105097D01*
X213888729Y-79105097D02*
X213831586Y-79219383D01*
X213831586Y-79219383D02*
X213831586Y-79276526D01*
X213831586Y-79276526D02*
X213888729Y-79390811D01*
X213888729Y-79390811D02*
X213945872Y-79447954D01*
X213945872Y-79447954D02*
X214060157Y-79505097D01*
X214060157Y-79505097D02*
X214288729Y-79505097D01*
X214288729Y-79505097D02*
X214403014Y-79562240D01*
X214403014Y-79562240D02*
X214460157Y-79619383D01*
X214460157Y-79619383D02*
X214517300Y-79733669D01*
X214517300Y-79733669D02*
X214517300Y-79962240D01*
X214517300Y-79962240D02*
X214460157Y-80076526D01*
X214460157Y-80076526D02*
X214403014Y-80133669D01*
X214403014Y-80133669D02*
X214288729Y-80190811D01*
X214288729Y-80190811D02*
X214060157Y-80190811D01*
X214060157Y-80190811D02*
X213945872Y-80133669D01*
X213945872Y-80133669D02*
X213888729Y-80076526D01*
X213888729Y-80076526D02*
X213831586Y-79962240D01*
X213831586Y-79962240D02*
X213831586Y-79733669D01*
X213831586Y-79733669D02*
X213888729Y-79619383D01*
X213888729Y-79619383D02*
X213945872Y-79562240D01*
X213945872Y-79562240D02*
X214060157Y-79505097D01*
X212803015Y-78990811D02*
X213031586Y-78990811D01*
X213031586Y-78990811D02*
X213145872Y-79047954D01*
X213145872Y-79047954D02*
X213203015Y-79105097D01*
X213203015Y-79105097D02*
X213317300Y-79276526D01*
X213317300Y-79276526D02*
X213374443Y-79505097D01*
X213374443Y-79505097D02*
X213374443Y-79962240D01*
X213374443Y-79962240D02*
X213317300Y-80076526D01*
X213317300Y-80076526D02*
X213260157Y-80133669D01*
X213260157Y-80133669D02*
X213145872Y-80190811D01*
X213145872Y-80190811D02*
X212917300Y-80190811D01*
X212917300Y-80190811D02*
X212803015Y-80133669D01*
X212803015Y-80133669D02*
X212745872Y-80076526D01*
X212745872Y-80076526D02*
X212688729Y-79962240D01*
X212688729Y-79962240D02*
X212688729Y-79676526D01*
X212688729Y-79676526D02*
X212745872Y-79562240D01*
X212745872Y-79562240D02*
X212803015Y-79505097D01*
X212803015Y-79505097D02*
X212917300Y-79447954D01*
X212917300Y-79447954D02*
X213145872Y-79447954D01*
X213145872Y-79447954D02*
X213260157Y-79505097D01*
X213260157Y-79505097D02*
X213317300Y-79562240D01*
X213317300Y-79562240D02*
X213374443Y-79676526D01*
X211260157Y-80190811D02*
X211260157Y-78990811D01*
X210688728Y-80190811D02*
X210688728Y-78990811D01*
X210688728Y-78990811D02*
X210288728Y-79847954D01*
X210288728Y-79847954D02*
X209888728Y-78990811D01*
X209888728Y-78990811D02*
X209888728Y-80190811D01*
X209317299Y-78990811D02*
X209317299Y-79962240D01*
X209317299Y-79962240D02*
X209260156Y-80076526D01*
X209260156Y-80076526D02*
X209203014Y-80133669D01*
X209203014Y-80133669D02*
X209088728Y-80190811D01*
X209088728Y-80190811D02*
X208860156Y-80190811D01*
X208860156Y-80190811D02*
X208745871Y-80133669D01*
X208745871Y-80133669D02*
X208688728Y-80076526D01*
X208688728Y-80076526D02*
X208631585Y-79962240D01*
X208631585Y-79962240D02*
X208631585Y-78990811D01*
X206631585Y-80190811D02*
X206631585Y-78990811D01*
X206631585Y-80133669D02*
X206745870Y-80190811D01*
X206745870Y-80190811D02*
X206974442Y-80190811D01*
X206974442Y-80190811D02*
X207088727Y-80133669D01*
X207088727Y-80133669D02*
X207145870Y-80076526D01*
X207145870Y-80076526D02*
X207203013Y-79962240D01*
X207203013Y-79962240D02*
X207203013Y-79619383D01*
X207203013Y-79619383D02*
X207145870Y-79505097D01*
X207145870Y-79505097D02*
X207088727Y-79447954D01*
X207088727Y-79447954D02*
X206974442Y-79390811D01*
X206974442Y-79390811D02*
X206745870Y-79390811D01*
X206745870Y-79390811D02*
X206631585Y-79447954D01*
X205603013Y-80133669D02*
X205717299Y-80190811D01*
X205717299Y-80190811D02*
X205945871Y-80190811D01*
X205945871Y-80190811D02*
X206060156Y-80133669D01*
X206060156Y-80133669D02*
X206117299Y-80019383D01*
X206117299Y-80019383D02*
X206117299Y-79562240D01*
X206117299Y-79562240D02*
X206060156Y-79447954D01*
X206060156Y-79447954D02*
X205945871Y-79390811D01*
X205945871Y-79390811D02*
X205717299Y-79390811D01*
X205717299Y-79390811D02*
X205603013Y-79447954D01*
X205603013Y-79447954D02*
X205545871Y-79562240D01*
X205545871Y-79562240D02*
X205545871Y-79676526D01*
X205545871Y-79676526D02*
X206117299Y-79790811D01*
X205145871Y-79390811D02*
X204860157Y-80190811D01*
X204860157Y-80190811D02*
X204574442Y-79390811D01*
X204117299Y-80190811D02*
X204117299Y-78990811D01*
X204117299Y-79447954D02*
X204003014Y-79390811D01*
X204003014Y-79390811D02*
X203774442Y-79390811D01*
X203774442Y-79390811D02*
X203660156Y-79447954D01*
X203660156Y-79447954D02*
X203603014Y-79505097D01*
X203603014Y-79505097D02*
X203545871Y-79619383D01*
X203545871Y-79619383D02*
X203545871Y-79962240D01*
X203545871Y-79962240D02*
X203603014Y-80076526D01*
X203603014Y-80076526D02*
X203660156Y-80133669D01*
X203660156Y-80133669D02*
X203774442Y-80190811D01*
X203774442Y-80190811D02*
X204003014Y-80190811D01*
X204003014Y-80190811D02*
X204117299Y-80133669D01*
X202860157Y-80190811D02*
X202974442Y-80133669D01*
X202974442Y-80133669D02*
X203031585Y-80076526D01*
X203031585Y-80076526D02*
X203088728Y-79962240D01*
X203088728Y-79962240D02*
X203088728Y-79619383D01*
X203088728Y-79619383D02*
X203031585Y-79505097D01*
X203031585Y-79505097D02*
X202974442Y-79447954D01*
X202974442Y-79447954D02*
X202860157Y-79390811D01*
X202860157Y-79390811D02*
X202688728Y-79390811D01*
X202688728Y-79390811D02*
X202574442Y-79447954D01*
X202574442Y-79447954D02*
X202517300Y-79505097D01*
X202517300Y-79505097D02*
X202460157Y-79619383D01*
X202460157Y-79619383D02*
X202460157Y-79962240D01*
X202460157Y-79962240D02*
X202517300Y-80076526D01*
X202517300Y-80076526D02*
X202574442Y-80133669D01*
X202574442Y-80133669D02*
X202688728Y-80190811D01*
X202688728Y-80190811D02*
X202860157Y-80190811D01*
X201431586Y-80190811D02*
X201431586Y-79562240D01*
X201431586Y-79562240D02*
X201488728Y-79447954D01*
X201488728Y-79447954D02*
X201603014Y-79390811D01*
X201603014Y-79390811D02*
X201831586Y-79390811D01*
X201831586Y-79390811D02*
X201945871Y-79447954D01*
X201431586Y-80133669D02*
X201545871Y-80190811D01*
X201545871Y-80190811D02*
X201831586Y-80190811D01*
X201831586Y-80190811D02*
X201945871Y-80133669D01*
X201945871Y-80133669D02*
X202003014Y-80019383D01*
X202003014Y-80019383D02*
X202003014Y-79905097D01*
X202003014Y-79905097D02*
X201945871Y-79790811D01*
X201945871Y-79790811D02*
X201831586Y-79733669D01*
X201831586Y-79733669D02*
X201545871Y-79733669D01*
X201545871Y-79733669D02*
X201431586Y-79676526D01*
X200860157Y-80190811D02*
X200860157Y-79390811D01*
X200860157Y-79619383D02*
X200803014Y-79505097D01*
X200803014Y-79505097D02*
X200745872Y-79447954D01*
X200745872Y-79447954D02*
X200631586Y-79390811D01*
X200631586Y-79390811D02*
X200517300Y-79390811D01*
X199603015Y-80190811D02*
X199603015Y-78990811D01*
X199603015Y-80133669D02*
X199717300Y-80190811D01*
X199717300Y-80190811D02*
X199945872Y-80190811D01*
X199945872Y-80190811D02*
X200060157Y-80133669D01*
X200060157Y-80133669D02*
X200117300Y-80076526D01*
X200117300Y-80076526D02*
X200174443Y-79962240D01*
X200174443Y-79962240D02*
X200174443Y-79619383D01*
X200174443Y-79619383D02*
X200117300Y-79505097D01*
X200117300Y-79505097D02*
X200060157Y-79447954D01*
X200060157Y-79447954D02*
X199945872Y-79390811D01*
X199945872Y-79390811D02*
X199717300Y-79390811D01*
X199717300Y-79390811D02*
X199603015Y-79447954D01*
M02*
