M48
; DRILL file {KiCad 9.0.5-9.0.5~ubuntu24.04.1} date 2025-10-15T00:30:24+0500
; FORMAT={-:-/ absolute / inch / decimal}
; #@! TF.CreationDate,2025-10-15T00:30:24+05:00
; #@! TF.GenerationSoftware,Kicad,Pcbnew,9.0.5-9.0.5~ubuntu24.04.1
; #@! TF.FileFunction,Plated,1,4,PTH
FMAT,2
INCH
; #@! TA.AperFunction,Plated,PTH,ViaDrill
T1C0.0118
; #@! TA.AperFunction,Plated,PTH,ComponentDrill
T2C0.0197
; #@! TA.AperFunction,Plated,PTH,ComponentDrill
T3C0.0236
; #@! TA.AperFunction,Plated,PTH,ComponentDrill
T4C0.0256
; #@! TA.AperFunction,Plated,PTH,ComponentDrill
T5C0.0394
; #@! TA.AperFunction,Plated,PTH,ComponentDrill
T6C0.1260
%
G90
G05
T1
X7.4921Y-3.5748
X7.5Y-2.9134
X7.5Y-3.878
X7.5Y-3.9961
X7.5Y-4.1142
X7.5Y-4.2323
X7.5Y-4.3701
X7.5276Y-3.8051
X7.553Y-3.3661
X7.5531Y-3.3327
X7.5551Y-3.6575
X7.56Y-3.937
X7.561Y-4.0463
X7.5944Y-3.6634
X7.6083Y-3.6043
X7.6457Y-3.5906
X7.6732Y-3.5926
X7.6945Y-3.872
X7.6969Y-3.9724
X7.7335Y-3.898
X7.7441Y-3.7067
X7.752Y-3.8051
X7.7598Y-4.0118
X7.7741Y-2.6178
X7.7756Y-4.6654
X7.7815Y-3.5551
X7.7913Y-3.5
X7.8217Y-3.6957
X7.8425Y-4.2835
X7.8543Y-3.4744
X7.8898Y-3.7638
X7.8898Y-3.8465
X7.9016Y-4.3937
X7.9055Y-4.3622
X7.9313Y-2.6176
X7.9439Y-4.1289
X7.9557Y-4.3858
X7.9675Y-4.2461
X7.9764Y-3.3957
X7.9764Y-3.4409
X7.9764Y-3.4823
X7.9833Y-3.251
X7.998Y-4.1437
X8.0118Y-3.8228
X8.0138Y-4.3868
X8.0317Y-4.3659
X8.0335Y-3.3051
X8.0463Y-3.251
X8.0551Y-3.5394
X8.0697Y-4.3871
X8.0866Y-3.25
X8.0876Y-4.3661
X8.0885Y-2.6176
X8.1063Y-4.1437
X8.1075Y-3.3413
X8.1142Y-3.0039
X8.1142Y-4.5276
X8.1181Y-3.25
X8.135Y-2.9149
X8.1358Y-3.9882
X8.1378Y-3.8543
X8.1417Y-3.7362
X8.1417Y-3.7638
X8.1417Y-3.7913
X8.1417Y-3.9134
X8.1417Y-4.1024
X8.1417Y-4.1319
X8.1437Y-2.939
X8.1447Y-4.3858
X8.1496Y-4.248
X8.1713Y-2.9803
X8.1732Y-2.8445
X8.1811Y-4.248
X8.185Y-3.622
X8.1874Y-3.5276
X8.2008Y-4.3937
X8.2268Y-3.3587
X8.2466Y-2.6178
X8.2488Y-4.1937
X8.2575Y-3.8193
X8.2579Y-3.7819
X8.2638Y-3.9764
X8.2776Y-3.5669
X8.2795Y-4.1988
X8.2864Y-4.6378
X8.3083Y-3.7835
X8.311Y-4.2087
X8.311Y-4.2402
X8.3268Y-4.4577
X8.3661Y-3.0197
X8.3898Y-2.8661
X8.3917Y-3.7854
X8.4016Y-4.2126
X8.4016Y-4.2441
X8.4039Y-2.6172
X8.4114Y-2.9055
X8.4134Y-4.3858
X8.4449Y-2.9173
X8.4449Y-2.9843
X8.4646Y-4.0945
X8.4646Y-4.1693
X8.4685Y-4.3858
X8.4744Y-3.626
X8.4744Y-3.685
X8.4764Y-2.9843
X8.4823Y-4.2638
X8.501Y-3.44
X8.501Y-3.4892
X8.5197Y-3.8839
X8.5264Y-4.388
X8.5315Y-4.5276
X8.5443Y-4.367
X8.5611Y-2.6172
X8.5823Y-4.3883
X8.5866Y-3.3091
X8.6002Y-4.3673
X8.628Y-4.0846
X8.6407Y-4.2638
X8.6506Y-3.7884
X8.6575Y-4.3858
X8.6654Y-3.4272
X8.6654Y-3.4961
X8.6654Y-3.5669
X8.6772Y-4.3543
X8.719Y-2.6172
X8.8765Y-2.6178
X8.878Y-4.6654
X9.1083Y-3.0394
X9.122Y-3.5787
X9.1476Y-2.9075
X9.1527Y-4.1329
X9.1527Y-4.2119
X9.1535Y-4.2913
X9.1535Y-4.3701
X9.1614Y-3.5787
T2
X7.5433Y-2.7559
X7.5433Y-4.5276
X7.571Y-2.6891
X7.571Y-2.8227
X7.571Y-4.4607
X7.571Y-4.5944
X7.6378Y-2.6614
X7.6378Y-2.8504
X7.6378Y-4.4331
X7.6378Y-4.622
X7.7046Y-2.6891
X7.7046Y-2.8227
X7.7046Y-4.4607
X7.7046Y-4.5944
X7.7323Y-2.7559
X7.7323Y-4.5276
X8.9213Y-2.7559
X8.9213Y-4.5276
X8.9489Y-2.6891
X8.9489Y-2.8227
X8.9489Y-4.4607
X8.9489Y-4.5944
X9.0157Y-2.6614
X9.0157Y-2.8504
X9.0157Y-4.4331
X9.0157Y-4.622
X9.0826Y-2.6891
X9.0826Y-2.8227
X9.0826Y-4.4607
X9.0826Y-4.5944
X9.1102Y-2.7559
X9.1102Y-4.5276
T4
X9.0472Y-4.1559
X9.0472Y-4.2059
X9.0472Y-4.2559
X9.0472Y-4.3059
T5
X7.62Y-3.0
X7.62Y-3.1
X7.62Y-3.2
X7.62Y-3.3
X7.62Y-3.4
X7.62Y-3.5
X9.0354Y-2.9976
X9.0354Y-3.0976
X9.0354Y-3.1976
X9.0354Y-3.2976
X9.0354Y-3.3976
X9.0354Y-3.4976
X9.0354Y-3.6976
X9.0354Y-3.7976
X9.0354Y-3.8976
X9.0354Y-3.9976
T6
X7.6378Y-2.7559
X7.6378Y-4.5276
X9.0157Y-2.7559
X9.0157Y-4.5276
T3
G00X7.8803Y-4.4358
M15
G01X7.8803Y-4.4791
M16
G05
G00X7.8803Y-4.6063
M15
G01X7.8803Y-4.6378
M16
G05
G00X8.2205Y-4.4358
M15
G01X8.2205Y-4.4791
M16
G05
G00X8.2205Y-4.6063
M15
G01X8.2205Y-4.6378
M16
G05
G00X8.3929Y-4.4364
M15
G01X8.3929Y-4.4797
M16
G05
G00X8.3929Y-4.6069
M15
G01X8.3929Y-4.6384
M16
G05
G00X8.7331Y-4.4364
M15
G01X8.7331Y-4.4797
M16
G05
G00X8.7331Y-4.6069
M15
G01X8.7331Y-4.6384
M16
G05
M30
