%TF.GenerationSoftware,KiCad,Pcbnew,9.0.5-9.0.5~ubuntu24.04.1*%
%TF.CreationDate,2025-10-15T00:30:22+05:00*%
%TF.ProjectId,AH4,4148342e-6b69-4636-9164-5f7063625858,rev?*%
%TF.SameCoordinates,Original*%
%TF.FileFunction,Copper,L4,Bot*%
%TF.FilePolarity,Positive*%
%FSLAX46Y46*%
G04 Gerber Fmt 4.6, Leading zero omitted, Abs format (unit mm)*
G04 Created by KiCad (PCBNEW 9.0.5-9.0.5~ubuntu24.04.1) date 2025-10-15 00:30:22*
%MOMM*%
%LPD*%
G01*
G04 APERTURE LIST*
%TA.AperFunction,ComponentPad*%
%ADD10R,1.000000X1.000000*%
%TD*%
%TA.AperFunction,ComponentPad*%
%ADD11C,1.000000*%
%TD*%
%TA.AperFunction,HeatsinkPad*%
%ADD12O,1.000000X2.100000*%
%TD*%
%TA.AperFunction,HeatsinkPad*%
%ADD13O,1.000000X1.800000*%
%TD*%
%TA.AperFunction,ComponentPad*%
%ADD14C,0.800000*%
%TD*%
%TA.AperFunction,ComponentPad*%
%ADD15C,6.400000*%
%TD*%
%TA.AperFunction,ComponentPad*%
%ADD16R,1.700000X1.700000*%
%TD*%
%TA.AperFunction,ComponentPad*%
%ADD17C,1.700000*%
%TD*%
%TA.AperFunction,ViaPad*%
%ADD18C,0.500000*%
%TD*%
%TA.AperFunction,Conductor*%
%ADD19C,0.200000*%
%TD*%
%TA.AperFunction,Conductor*%
%ADD20C,0.500000*%
%TD*%
G04 APERTURE END LIST*
D10*
%TO.P,J6,1,Pin_1*%
%TO.N,VDD*%
X229800000Y-105560000D03*
D11*
%TO.P,J6,2,Pin_2*%
%TO.N,GND*%
X229800000Y-106830000D03*
%TO.P,J6,3,Pin_3*%
%TO.N,/SWD*%
X229800000Y-108100000D03*
%TO.P,J6,4,Pin_4*%
%TO.N,/SWC*%
X229800000Y-109370000D03*
%TD*%
D12*
%TO.P,J2,S1,SHIELD*%
%TO.N,unconnected-(J2-SHIELD-PadS1)_2*%
X213180000Y-113235000D03*
D13*
%TO.N,unconnected-(J2-SHIELD-PadS1)_1*%
X213180000Y-117415000D03*
D12*
%TO.N,unconnected-(J2-SHIELD-PadS1)*%
X221820000Y-113235000D03*
D13*
%TO.N,unconnected-(J2-SHIELD-PadS1)_3*%
X221820000Y-117415000D03*
%TD*%
D12*
%TO.P,J1,S1,SHIELD*%
%TO.N,unconnected-(J1-SHIELD-PadS1)*%
X200160000Y-113220000D03*
D13*
%TO.N,unconnected-(J1-SHIELD-PadS1)_2*%
X200160000Y-117400000D03*
D12*
%TO.N,unconnected-(J1-SHIELD-PadS1)_1*%
X208800000Y-113220000D03*
D13*
%TO.N,unconnected-(J1-SHIELD-PadS1)_3*%
X208800000Y-117400000D03*
%TD*%
D14*
%TO.P,H3,1*%
%TO.N,N/C*%
X191600000Y-115000000D03*
X192302944Y-113302944D03*
X192302944Y-116697056D03*
X194000000Y-112600000D03*
D15*
X194000000Y-115000000D03*
D14*
X194000000Y-117400000D03*
X195697056Y-113302944D03*
X195697056Y-116697056D03*
X196400000Y-115000000D03*
%TD*%
D16*
%TO.P,J5,1,Pin_1*%
%TO.N,VDD*%
X193548000Y-76200000D03*
D17*
%TO.P,J5,2,Pin_2*%
%TO.N,GND*%
X193548000Y-78740000D03*
%TO.P,J5,3,Pin_3*%
%TO.N,/AP_SCK*%
X193548000Y-81280000D03*
%TO.P,J5,4,Pin_4*%
%TO.N,/AP_MOSI*%
X193548000Y-83820000D03*
%TO.P,J5,5,Pin_5*%
%TO.N,/AP_MISO*%
X193548000Y-86360000D03*
%TO.P,J5,6,Pin_6*%
%TO.N,/~{AP_CS}*%
X193548000Y-88900000D03*
%TD*%
D14*
%TO.P,H1,1*%
%TO.N,N/C*%
X191600000Y-70000000D03*
X192302944Y-68302944D03*
X192302944Y-71697056D03*
X194000000Y-67600000D03*
D15*
X194000000Y-70000000D03*
D14*
X194000000Y-72400000D03*
X195697056Y-68302944D03*
X195697056Y-71697056D03*
X196400000Y-70000000D03*
%TD*%
D16*
%TO.P,J4,1,Pin_1*%
%TO.N,VDD*%
X229500000Y-88840000D03*
D17*
%TO.P,J4,2,Pin_2*%
%TO.N,GND*%
X229500000Y-86300000D03*
%TO.P,J4,3,Pin_3*%
%TO.N,/AUX1_MOSI*%
X229500000Y-83760000D03*
%TO.P,J4,4,Pin_4*%
%TO.N,/AUX1_MISO*%
X229500000Y-81220000D03*
%TO.P,J4,5,Pin_5*%
%TO.N,/AUX1_SCK*%
X229500000Y-78680000D03*
%TO.P,J4,6,Pin_6*%
%TO.N,/~{AUX1_CS}*%
X229500000Y-76140000D03*
%TD*%
D14*
%TO.P,H2,1*%
%TO.N,N/C*%
X226600000Y-70000000D03*
X227302944Y-68302944D03*
X227302944Y-71697056D03*
X229000000Y-67600000D03*
D15*
X229000000Y-70000000D03*
D14*
X229000000Y-72400000D03*
X230697056Y-68302944D03*
X230697056Y-71697056D03*
X231400000Y-70000000D03*
%TD*%
%TO.P,H4,1*%
%TO.N,N/C*%
X226600000Y-115000000D03*
X227302944Y-113302944D03*
X227302944Y-116697056D03*
X229000000Y-112600000D03*
D15*
X229000000Y-115000000D03*
D14*
X229000000Y-117400000D03*
X230697056Y-113302944D03*
X230697056Y-116697056D03*
X231400000Y-115000000D03*
%TD*%
D16*
%TO.P,J3,1,Pin_1*%
%TO.N,VDD*%
X229500000Y-101540000D03*
D17*
%TO.P,J3,2,Pin_2*%
%TO.N,GND*%
X229500000Y-99000000D03*
%TO.P,J3,3,Pin_3*%
%TO.N,/AUX1_SCK*%
X229500000Y-96460000D03*
%TO.P,J3,4,Pin_4*%
%TO.N,/AUX1_MOSI*%
X229500000Y-93920000D03*
%TD*%
D18*
%TO.N,GND*%
X232500000Y-109000000D03*
X232500000Y-111000000D03*
X209740000Y-97010000D03*
X207800000Y-107900000D03*
X201454019Y-66486980D03*
X190500000Y-107500000D03*
X192025000Y-100000000D03*
X220100000Y-90600000D03*
X207600000Y-72250000D03*
X225463137Y-66493346D03*
X209463137Y-66493346D03*
X205900000Y-105250000D03*
X200400000Y-97700000D03*
X205448515Y-66486980D03*
X211500000Y-113225000D03*
X203150000Y-105250000D03*
X206800000Y-95600003D03*
X209900000Y-101000000D03*
X209520000Y-106520000D03*
X213400000Y-107000000D03*
X232350000Y-73850000D03*
X210250000Y-90600000D03*
X197900000Y-88900000D03*
X215000000Y-104000000D03*
X219725000Y-96225000D03*
X215250000Y-93600000D03*
X197651000Y-90300000D03*
X220400000Y-110600000D03*
X213400000Y-107800000D03*
X207000000Y-107900000D03*
X232479439Y-104974995D03*
X200400000Y-95600000D03*
X231700000Y-90900000D03*
X201775000Y-104875000D03*
X202600000Y-87400000D03*
X213458578Y-66477863D03*
X221463052Y-66477863D03*
X219475000Y-108300000D03*
X190500000Y-98500000D03*
X215000000Y-105900000D03*
X219150000Y-103750000D03*
X197500000Y-118500000D03*
X220100000Y-87050000D03*
X232479439Y-106981532D03*
X208300000Y-111600000D03*
X225500000Y-118500000D03*
X190500000Y-74000000D03*
X206100000Y-115000000D03*
X204600000Y-89900000D03*
X210475000Y-117800000D03*
X212500000Y-76700000D03*
X206800000Y-99400000D03*
X196900000Y-96650000D03*
X193250000Y-91550000D03*
X197463137Y-66493346D03*
X190500000Y-101500000D03*
X220100000Y-88800000D03*
X213700000Y-111400000D03*
X205930000Y-84870000D03*
X217453073Y-66477863D03*
X208960000Y-85310000D03*
X216700000Y-115000000D03*
X190500000Y-111000000D03*
X190300000Y-90800000D03*
X215250000Y-92100000D03*
X190500000Y-104500000D03*
X200800000Y-110800000D03*
X200700000Y-111600000D03*
%TO.N,/NRST*%
X206650000Y-101300000D03*
X206700000Y-97900000D03*
X216400000Y-98650000D03*
%TO.N,/SWD*%
X195500000Y-100900000D03*
%TO.N,Net-(U6-EN)*%
X206875000Y-111400000D03*
X215100000Y-111400000D03*
X219900000Y-111400000D03*
X202075000Y-111400000D03*
%TO.N,VDD*%
X194900000Y-91251000D03*
X218100000Y-84050000D03*
X211100000Y-107700000D03*
X202600000Y-88450000D03*
X215450000Y-108300000D03*
X206627866Y-74039132D03*
X207900000Y-92000000D03*
X213100000Y-72800000D03*
X192050000Y-102775000D03*
X211100000Y-106900000D03*
X213150000Y-96150000D03*
X209750000Y-96060000D03*
X207960000Y-89600000D03*
X210300000Y-106650000D03*
X202375000Y-107850000D03*
X199200000Y-108800000D03*
%TO.N,/SWC*%
X197100000Y-101900000D03*
%TO.N,/FSYNC*%
X199500000Y-88250000D03*
X202600000Y-86250000D03*
X206850000Y-74650000D03*
X204050000Y-83950000D03*
%TO.N,/I2CM_LED*%
X203500000Y-97100000D03*
X232700000Y-90900000D03*
%TO.N,/OIS_LED*%
X206800000Y-96300006D03*
X231350000Y-77200000D03*
%TO.N,/AP_LED*%
X191847000Y-85500000D03*
X194200000Y-91200000D03*
%TO.N,/AUX1_SCK*%
X205400000Y-82550000D03*
X214500000Y-74100000D03*
%TO.N,/AUX1_MOSI*%
X214500000Y-75800000D03*
X206200000Y-82550000D03*
%TO.N,/AUX1_MISO*%
X206100000Y-76300000D03*
X202775000Y-82575000D03*
%TO.N,/~{AUX1_CS}*%
X207550000Y-75700000D03*
X204375000Y-82575000D03*
%TO.N,/AP_SCK*%
X191900000Y-92900000D03*
X215925000Y-88625000D03*
%TO.N,/~{AP_CS}*%
X191850000Y-84650000D03*
X192897000Y-93050000D03*
%TO.N,/AP_MOSI*%
X215925000Y-87375000D03*
X196700000Y-94150000D03*
X191200000Y-96650000D03*
%TO.N,/RXD*%
X196430000Y-99010000D03*
X206800000Y-104200000D03*
%TO.N,/TXD*%
X195440000Y-98350000D03*
X206800000Y-104950000D03*
%TO.N,/INT1*%
X213650000Y-73800000D03*
X215300000Y-75800000D03*
%TO.N,/D1+*%
X205425000Y-110900000D03*
X204004065Y-110892933D03*
%TO.N,/D1-*%
X204970935Y-111432067D03*
X203550000Y-111425000D03*
%TO.N,/D2-*%
X216570000Y-111455000D03*
X217990935Y-111462067D03*
%TO.N,/D2+*%
X217024065Y-110922933D03*
X218445000Y-110930000D03*
%TO.N,/BOOT1*%
X198670000Y-93870000D03*
X211030000Y-96100000D03*
X206800000Y-94900000D03*
%TD*%
D19*
%TO.N,GND*%
X211500000Y-116775000D02*
X210475000Y-117800000D01*
X211500000Y-113225000D02*
X211500000Y-116775000D01*
%TO.N,/NRST*%
X206700000Y-97900000D02*
X206249000Y-98351000D01*
X206249000Y-98351000D02*
X206249000Y-100899000D01*
X206249000Y-100899000D02*
X206650000Y-101300000D01*
X207450000Y-98650000D02*
X216400000Y-98650000D01*
X206700000Y-97900000D02*
X207450000Y-98650000D01*
%TO.N,/SWD*%
X200849000Y-101549000D02*
X204450000Y-105150000D01*
X224500000Y-107100000D02*
X225500000Y-108100000D01*
X225500000Y-108100000D02*
X229800000Y-108100000D01*
X206400000Y-109000000D02*
X213350000Y-109000000D01*
X198049000Y-101549000D02*
X200849000Y-101549000D01*
X215250000Y-107100000D02*
X224500000Y-107100000D01*
X195500000Y-100900000D02*
X197400000Y-100900000D01*
X204450000Y-105150000D02*
X204450000Y-107050000D01*
X204450000Y-107050000D02*
X206400000Y-109000000D01*
X213350000Y-109000000D02*
X215250000Y-107100000D01*
X197400000Y-100900000D02*
X198049000Y-101549000D01*
D20*
%TO.N,Net-(U6-EN)*%
X219900000Y-113050000D02*
X219000000Y-113950000D01*
X215100000Y-113050000D02*
X215100000Y-111400000D01*
X206875000Y-111400000D02*
X206875000Y-113050000D01*
X206875000Y-113050000D02*
X205975000Y-113950000D01*
X202075000Y-113050000D02*
X202075000Y-111400000D01*
X219900000Y-111400000D02*
X219900000Y-113050000D01*
X202975000Y-113950000D02*
X202075000Y-113050000D01*
X216000000Y-113950000D02*
X215100000Y-113050000D01*
X205975000Y-113950000D02*
X202975000Y-113950000D01*
X219000000Y-113950000D02*
X216000000Y-113950000D01*
D19*
%TO.N,/SWC*%
X215350000Y-107550000D02*
X213300000Y-109600000D01*
X200600000Y-101900000D02*
X197100000Y-101900000D01*
X206400000Y-109600000D02*
X204050000Y-107250000D01*
X229800000Y-109370000D02*
X225170000Y-109370000D01*
X213300000Y-109600000D02*
X206400000Y-109600000D01*
X204050000Y-105350000D02*
X200600000Y-101900000D01*
X225170000Y-109370000D02*
X223350000Y-107550000D01*
X223350000Y-107550000D02*
X215350000Y-107550000D01*
X204050000Y-107250000D02*
X204050000Y-105350000D01*
%TO.N,/FSYNC*%
X204050000Y-83950000D02*
X203874000Y-83774000D01*
X203874000Y-83774000D02*
X203874000Y-82367479D01*
X199500000Y-88250000D02*
X201500000Y-86250000D01*
X203874000Y-82367479D02*
X206850000Y-79391479D01*
X206850000Y-79391479D02*
X206850000Y-74650000D01*
X201500000Y-86250000D02*
X202600000Y-86250000D01*
%TO.N,/I2CM_LED*%
X228672240Y-97962000D02*
X207894894Y-97962000D01*
X229023240Y-97611000D02*
X228672240Y-97962000D01*
X207032894Y-97100000D02*
X203500000Y-97100000D01*
X207894894Y-97962000D02*
X207032894Y-97100000D01*
X232500000Y-95087760D02*
X229976760Y-97611000D01*
X232700000Y-90900000D02*
X232500000Y-91100000D01*
X232500000Y-91100000D02*
X232500000Y-95087760D01*
X229976760Y-97611000D02*
X229023240Y-97611000D01*
%TO.N,/OIS_LED*%
X208060994Y-97561000D02*
X206800000Y-96300006D01*
X231309000Y-77241000D02*
X226771240Y-77241000D01*
X214139000Y-97561000D02*
X208060994Y-97561000D01*
X218050000Y-85962240D02*
X218050000Y-93650000D01*
X226771240Y-77241000D02*
X218050000Y-85962240D01*
X231350000Y-77200000D02*
X231309000Y-77241000D01*
X218050000Y-93650000D02*
X214139000Y-97561000D01*
%TO.N,/AP_LED*%
X191800000Y-85547000D02*
X191800000Y-88800000D01*
X191847000Y-85500000D02*
X191800000Y-85547000D01*
X191800000Y-88800000D02*
X194200000Y-91200000D01*
%TO.N,/AUX1_SCK*%
X205900000Y-82050000D02*
X208500000Y-82050000D01*
X205400000Y-82550000D02*
X205900000Y-82050000D01*
X230651000Y-79831000D02*
X229500000Y-78680000D01*
X208500000Y-82050000D02*
X213900000Y-76650000D01*
X213900000Y-76650000D02*
X213900000Y-74700000D01*
X229500000Y-96460000D02*
X230651000Y-95309000D01*
X213900000Y-74700000D02*
X214500000Y-74100000D01*
X230651000Y-95309000D02*
X230651000Y-79831000D01*
%TO.N,/AUX1_MOSI*%
X214500000Y-76700000D02*
X208650000Y-82550000D01*
X214500000Y-75800000D02*
X214500000Y-76700000D01*
X208650000Y-82550000D02*
X206200000Y-82550000D01*
%TO.N,/AUX1_MISO*%
X202775000Y-82575000D02*
X206100000Y-79250000D01*
X206100000Y-79250000D02*
X206100000Y-76300000D01*
%TO.N,/~{AUX1_CS}*%
X207550000Y-79400000D02*
X207550000Y-75700000D01*
X204375000Y-82575000D02*
X207550000Y-79400000D01*
%TO.N,/AP_SCK*%
X206096389Y-86800000D02*
X204396389Y-85100000D01*
X216426000Y-88124000D02*
X216426000Y-87167479D01*
X216058521Y-86800000D02*
X206096389Y-86800000D01*
X204396389Y-85100000D02*
X197368000Y-85100000D01*
X197368000Y-85100000D02*
X193548000Y-81280000D01*
X216426000Y-87167479D02*
X216058521Y-86800000D01*
X191346000Y-92346000D02*
X191900000Y-92900000D01*
X191346000Y-83482000D02*
X191346000Y-92346000D01*
X193548000Y-81280000D02*
X191346000Y-83482000D01*
X215925000Y-88625000D02*
X216426000Y-88124000D01*
%TO.N,/~{AP_CS}*%
X195401000Y-90753000D02*
X193548000Y-88900000D01*
X195401000Y-91458521D02*
X195401000Y-90753000D01*
X192897000Y-93050000D02*
X193809521Y-93050000D01*
X191850000Y-84650000D02*
X192348000Y-85148000D01*
X193809521Y-93050000D02*
X195401000Y-91458521D01*
X192348000Y-85148000D02*
X192348000Y-87700000D01*
X192348000Y-87700000D02*
X193548000Y-88900000D01*
%TO.N,/AP_MOSI*%
X206125000Y-87375000D02*
X204250000Y-85500000D01*
X191200000Y-96650000D02*
X193700000Y-94150000D01*
X196700000Y-86972000D02*
X196700000Y-94150000D01*
X193548000Y-83820000D02*
X196700000Y-86972000D01*
X198050000Y-85500000D02*
X196750000Y-86800000D01*
X215925000Y-87375000D02*
X206125000Y-87375000D01*
X204250000Y-85500000D02*
X198050000Y-85500000D01*
X193700000Y-94150000D02*
X196700000Y-94150000D01*
%TO.N,/RXD*%
X196430000Y-99010000D02*
X199530000Y-99010000D01*
X199530000Y-99010000D02*
X204720000Y-104200000D01*
X204720000Y-104200000D02*
X206800000Y-104200000D01*
%TO.N,/TXD*%
X196020768Y-99860000D02*
X199812900Y-99860000D01*
X195440000Y-98350000D02*
X195440000Y-99279232D01*
X204602900Y-104650000D02*
X206500000Y-104650000D01*
X199812900Y-99860000D02*
X204602900Y-104650000D01*
X206500000Y-104650000D02*
X206800000Y-104950000D01*
X195440000Y-99279232D02*
X196020768Y-99860000D01*
%TO.N,/INT1*%
X215300000Y-75800000D02*
X215300000Y-73750000D01*
X214150000Y-73300000D02*
X213650000Y-73800000D01*
X214850000Y-73300000D02*
X214150000Y-73300000D01*
X215300000Y-73750000D02*
X214850000Y-73300000D01*
%TO.N,/D1+*%
X205417933Y-110892933D02*
X205425000Y-110900000D01*
X204004065Y-110892933D02*
X205417933Y-110892933D01*
%TO.N,/D1-*%
X204963868Y-111425000D02*
X204970935Y-111432067D01*
X203550000Y-111425000D02*
X204963868Y-111425000D01*
%TO.N,/D2-*%
X216570000Y-111455000D02*
X217983868Y-111455000D01*
%TO.N,/D2+*%
X217024065Y-110922933D02*
X218437933Y-110922933D01*
%TO.N,/BOOT1*%
X198670000Y-93870000D02*
X206800000Y-93870000D01*
X208800000Y-93870000D02*
X211030000Y-96100000D01*
X206800000Y-93870000D02*
X208800000Y-93870000D01*
X206800000Y-94900000D02*
X206800000Y-93870000D01*
%TD*%
%TA.AperFunction,Conductor*%
%TO.N,GND*%
G36*
X228971302Y-77561185D02*
G01*
X229017057Y-77613989D01*
X229027001Y-77683147D01*
X228997976Y-77746703D01*
X228973155Y-77768600D01*
X228920818Y-77803570D01*
X228830342Y-77864024D01*
X228684024Y-78010342D01*
X228569058Y-78182403D01*
X228489870Y-78373579D01*
X228489868Y-78373587D01*
X228449500Y-78576530D01*
X228449500Y-78783469D01*
X228489868Y-78986412D01*
X228489870Y-78986420D01*
X228569059Y-79177598D01*
X228610754Y-79240000D01*
X228684024Y-79349657D01*
X228830342Y-79495975D01*
X228830345Y-79495977D01*
X229002402Y-79610941D01*
X229193580Y-79690130D01*
X229396530Y-79730499D01*
X229396534Y-79730500D01*
X229396535Y-79730500D01*
X229603466Y-79730500D01*
X229603467Y-79730499D01*
X229806420Y-79690130D01*
X229926974Y-79640194D01*
X229996438Y-79632726D01*
X230058918Y-79664000D01*
X230062104Y-79667075D01*
X230314181Y-79919152D01*
X230347666Y-79980475D01*
X230350500Y-80006833D01*
X230350500Y-80292871D01*
X230330815Y-80359910D01*
X230278011Y-80405665D01*
X230208853Y-80415609D01*
X230157610Y-80395974D01*
X230003303Y-80292871D01*
X229997598Y-80289059D01*
X229806420Y-80209870D01*
X229806412Y-80209868D01*
X229603469Y-80169500D01*
X229603465Y-80169500D01*
X229396535Y-80169500D01*
X229396530Y-80169500D01*
X229193587Y-80209868D01*
X229193579Y-80209870D01*
X229002403Y-80289058D01*
X228830342Y-80404024D01*
X228684024Y-80550342D01*
X228569058Y-80722403D01*
X228489870Y-80913579D01*
X228489868Y-80913587D01*
X228449500Y-81116530D01*
X228449500Y-81323469D01*
X228461435Y-81383469D01*
X228489870Y-81526420D01*
X228569059Y-81717598D01*
X228611276Y-81780781D01*
X228684024Y-81889657D01*
X228830342Y-82035975D01*
X228830345Y-82035977D01*
X229002402Y-82150941D01*
X229193580Y-82230130D01*
X229363857Y-82264000D01*
X229396530Y-82270499D01*
X229396534Y-82270500D01*
X229396535Y-82270500D01*
X229603466Y-82270500D01*
X229603467Y-82270499D01*
X229806420Y-82230130D01*
X229997598Y-82150941D01*
X229997599Y-82150940D01*
X229997600Y-82150940D01*
X230157610Y-82044026D01*
X230224287Y-82023148D01*
X230291667Y-82041633D01*
X230338357Y-82093612D01*
X230350500Y-82147128D01*
X230350500Y-82832871D01*
X230330815Y-82899910D01*
X230278011Y-82945665D01*
X230208853Y-82955609D01*
X230157610Y-82935974D01*
X230003303Y-82832871D01*
X229997598Y-82829059D01*
X229991690Y-82826612D01*
X229806420Y-82749870D01*
X229806412Y-82749868D01*
X229603469Y-82709500D01*
X229603465Y-82709500D01*
X229396535Y-82709500D01*
X229396530Y-82709500D01*
X229193587Y-82749868D01*
X229193579Y-82749870D01*
X229002403Y-82829058D01*
X228830342Y-82944024D01*
X228684024Y-83090342D01*
X228569058Y-83262403D01*
X228489870Y-83453579D01*
X228489868Y-83453587D01*
X228449500Y-83656530D01*
X228449500Y-83863469D01*
X228489868Y-84066412D01*
X228489870Y-84066420D01*
X228564792Y-84247298D01*
X228569059Y-84257598D01*
X228611276Y-84320781D01*
X228684024Y-84429657D01*
X228830342Y-84575975D01*
X229002405Y-84690943D01*
X229105043Y-84733456D01*
X229167108Y-84759164D01*
X229221511Y-84803005D01*
X229243576Y-84869299D01*
X229226297Y-84936998D01*
X229175160Y-84984609D01*
X229157974Y-84991656D01*
X228981781Y-85048905D01*
X228792439Y-85145380D01*
X228738282Y-85184727D01*
X228738282Y-85184728D01*
X229370591Y-85817037D01*
X229307007Y-85834075D01*
X229192993Y-85899901D01*
X229099901Y-85992993D01*
X229034075Y-86107007D01*
X229017037Y-86170591D01*
X228384728Y-85538282D01*
X228384727Y-85538282D01*
X228345380Y-85592439D01*
X228248904Y-85781782D01*
X228183242Y-85983869D01*
X228183242Y-85983872D01*
X228150000Y-86193753D01*
X228150000Y-86406246D01*
X228183242Y-86616127D01*
X228183242Y-86616130D01*
X228248904Y-86818217D01*
X228345375Y-87007550D01*
X228384728Y-87061716D01*
X229017037Y-86429408D01*
X229034075Y-86492993D01*
X229099901Y-86607007D01*
X229192993Y-86700099D01*
X229307007Y-86765925D01*
X229370589Y-86782962D01*
X228738282Y-87415269D01*
X228738282Y-87415270D01*
X228792449Y-87454624D01*
X228986121Y-87553306D01*
X228985603Y-87554321D01*
X229035808Y-87594779D01*
X229057873Y-87661073D01*
X229040594Y-87728772D01*
X228989458Y-87776383D01*
X228933952Y-87789500D01*
X228630247Y-87789500D01*
X228571770Y-87801131D01*
X228571769Y-87801132D01*
X228505447Y-87845447D01*
X228461132Y-87911769D01*
X228461131Y-87911770D01*
X228449500Y-87970247D01*
X228449500Y-89709752D01*
X228461131Y-89768229D01*
X228461132Y-89768230D01*
X228505447Y-89834552D01*
X228571769Y-89878867D01*
X228571770Y-89878868D01*
X228630247Y-89890499D01*
X228630250Y-89890500D01*
X228630252Y-89890500D01*
X230226500Y-89890500D01*
X230293539Y-89910185D01*
X230339294Y-89962989D01*
X230350500Y-90014500D01*
X230350500Y-92992871D01*
X230330815Y-93059910D01*
X230278011Y-93105665D01*
X230208853Y-93115609D01*
X230157610Y-93095974D01*
X230000040Y-92990691D01*
X229997598Y-92989059D01*
X229925768Y-92959306D01*
X229806420Y-92909870D01*
X229806412Y-92909868D01*
X229603469Y-92869500D01*
X229603465Y-92869500D01*
X229396535Y-92869500D01*
X229396530Y-92869500D01*
X229193587Y-92909868D01*
X229193579Y-92909870D01*
X229002403Y-92989058D01*
X228830342Y-93104024D01*
X228684024Y-93250342D01*
X228569058Y-93422403D01*
X228489870Y-93613579D01*
X228489868Y-93613587D01*
X228449500Y-93816530D01*
X228449500Y-94023469D01*
X228489868Y-94226412D01*
X228489870Y-94226420D01*
X228569058Y-94417596D01*
X228684024Y-94589657D01*
X228830342Y-94735975D01*
X228830345Y-94735977D01*
X229002402Y-94850941D01*
X229193580Y-94930130D01*
X229340259Y-94959306D01*
X229396530Y-94970499D01*
X229396534Y-94970500D01*
X229396535Y-94970500D01*
X229603466Y-94970500D01*
X229603467Y-94970499D01*
X229806420Y-94930130D01*
X229997598Y-94850941D01*
X229997599Y-94850940D01*
X229997600Y-94850940D01*
X230157610Y-94744026D01*
X230224287Y-94723148D01*
X230291667Y-94741633D01*
X230338357Y-94793612D01*
X230350500Y-94847128D01*
X230350500Y-95133166D01*
X230330815Y-95200205D01*
X230314181Y-95220847D01*
X230062104Y-95472923D01*
X230000781Y-95506408D01*
X229931089Y-95501424D01*
X229926971Y-95499803D01*
X229806424Y-95449871D01*
X229806412Y-95449868D01*
X229603469Y-95409500D01*
X229603465Y-95409500D01*
X229396535Y-95409500D01*
X229396530Y-95409500D01*
X229193587Y-95449868D01*
X229193579Y-95449870D01*
X229002403Y-95529058D01*
X228830342Y-95644024D01*
X228684024Y-95790342D01*
X228569058Y-95962403D01*
X228489870Y-96153579D01*
X228489868Y-96153587D01*
X228449500Y-96356530D01*
X228449500Y-96563469D01*
X228489868Y-96766412D01*
X228489870Y-96766420D01*
X228556224Y-96926613D01*
X228569059Y-96957598D01*
X228624580Y-97040691D01*
X228684024Y-97129657D01*
X228794137Y-97239770D01*
X228827622Y-97301093D01*
X228822638Y-97370785D01*
X228794137Y-97415132D01*
X228584088Y-97625181D01*
X228522765Y-97658666D01*
X228496407Y-97661500D01*
X214762833Y-97661500D01*
X214695794Y-97641815D01*
X214650039Y-97589011D01*
X214640095Y-97519853D01*
X214669120Y-97456297D01*
X214675152Y-97449819D01*
X218290457Y-93834514D01*
X218290460Y-93834511D01*
X218304212Y-93810691D01*
X218330021Y-93765989D01*
X218350500Y-93689562D01*
X218350500Y-86138073D01*
X218370185Y-86071034D01*
X218386819Y-86050392D01*
X226859392Y-77577819D01*
X226920715Y-77544334D01*
X226947073Y-77541500D01*
X228904263Y-77541500D01*
X228971302Y-77561185D01*
G37*
%TD.AperFunction*%
%TA.AperFunction,Conductor*%
G36*
X191851703Y-89277120D02*
G01*
X191858181Y-89283152D01*
X193713181Y-91138152D01*
X193746666Y-91199475D01*
X193749500Y-91225833D01*
X193749500Y-91259309D01*
X193780201Y-91373886D01*
X193839511Y-91476613D01*
X193923387Y-91560489D01*
X194026114Y-91619799D01*
X194140691Y-91650500D01*
X194140694Y-91650500D01*
X194259306Y-91650500D01*
X194259309Y-91650500D01*
X194373886Y-91619799D01*
X194454930Y-91573007D01*
X194480408Y-91566825D01*
X194504714Y-91556997D01*
X194513820Y-91558719D01*
X194522828Y-91556534D01*
X194547604Y-91565108D01*
X194573366Y-91569981D01*
X194583966Y-91577693D01*
X194588855Y-91579385D01*
X194602187Y-91590354D01*
X194603410Y-91591512D01*
X194623387Y-91611489D01*
X194626258Y-91613147D01*
X194633962Y-91620441D01*
X194648427Y-91645295D01*
X194665392Y-91668526D01*
X194665785Y-91675120D01*
X194669107Y-91680828D01*
X194667838Y-91709558D01*
X194669551Y-91738272D01*
X194666313Y-91744118D01*
X194666026Y-91750629D01*
X194650708Y-91772298D01*
X194636386Y-91798162D01*
X193721369Y-92713181D01*
X193660046Y-92746666D01*
X193633688Y-92749500D01*
X193284964Y-92749500D01*
X193217925Y-92729815D01*
X193197283Y-92713181D01*
X193173615Y-92689513D01*
X193173613Y-92689511D01*
X193070886Y-92630201D01*
X192956309Y-92599500D01*
X192837691Y-92599500D01*
X192723114Y-92630201D01*
X192723112Y-92630201D01*
X192723112Y-92630202D01*
X192620387Y-92689511D01*
X192620384Y-92689513D01*
X192530764Y-92779134D01*
X192529262Y-92777632D01*
X192481896Y-92812204D01*
X192412149Y-92816346D01*
X192351236Y-92782121D01*
X192323487Y-92733377D01*
X192322907Y-92733618D01*
X192320990Y-92728991D01*
X192320195Y-92727594D01*
X192319799Y-92726114D01*
X192260489Y-92623387D01*
X192176613Y-92539511D01*
X192073886Y-92480201D01*
X191959309Y-92449500D01*
X191959306Y-92449500D01*
X191925833Y-92449500D01*
X191896392Y-92440855D01*
X191866406Y-92434332D01*
X191861390Y-92430577D01*
X191858794Y-92429815D01*
X191838152Y-92413181D01*
X191682819Y-92257848D01*
X191649334Y-92196525D01*
X191646500Y-92170167D01*
X191646500Y-89370833D01*
X191666185Y-89303794D01*
X191718989Y-89258039D01*
X191788147Y-89248095D01*
X191851703Y-89277120D01*
G37*
%TD.AperFunction*%
%TA.AperFunction,Conductor*%
G36*
X230808363Y-65520185D02*
G01*
X230829005Y-65536819D01*
X233463181Y-68170995D01*
X233496666Y-68232318D01*
X233499500Y-68258676D01*
X233499500Y-116741324D01*
X233479815Y-116808363D01*
X233463181Y-116829005D01*
X230829005Y-119463181D01*
X230767682Y-119496666D01*
X230741324Y-119499500D01*
X192258676Y-119499500D01*
X192191637Y-119479815D01*
X192170995Y-119463181D01*
X189536819Y-116829005D01*
X189503334Y-116767682D01*
X189500500Y-116741324D01*
X189500500Y-114818209D01*
X190299500Y-114818209D01*
X190299500Y-115181790D01*
X190335137Y-115543630D01*
X190406064Y-115900212D01*
X190406067Y-115900223D01*
X190511614Y-116248165D01*
X190650754Y-116584078D01*
X190650756Y-116584083D01*
X190822140Y-116904720D01*
X190822151Y-116904738D01*
X191024140Y-117207035D01*
X191024150Y-117207049D01*
X191254807Y-117488106D01*
X191511893Y-117745192D01*
X191511898Y-117745196D01*
X191511899Y-117745197D01*
X191792956Y-117975854D01*
X192095268Y-118177853D01*
X192095277Y-118177858D01*
X192095279Y-118177859D01*
X192415916Y-118349243D01*
X192415918Y-118349243D01*
X192415924Y-118349247D01*
X192751836Y-118488386D01*
X193099767Y-118593930D01*
X193099773Y-118593931D01*
X193099776Y-118593932D01*
X193099787Y-118593935D01*
X193456369Y-118664862D01*
X193818206Y-118700500D01*
X193818209Y-118700500D01*
X194181791Y-118700500D01*
X194181794Y-118700500D01*
X194543631Y-118664862D01*
X194613045Y-118651054D01*
X194900212Y-118593935D01*
X194900223Y-118593932D01*
X194900223Y-118593931D01*
X194900233Y-118593930D01*
X195248164Y-118488386D01*
X195584076Y-118349247D01*
X195904732Y-118177853D01*
X196207044Y-117975854D01*
X196337252Y-117868995D01*
X199459499Y-117868995D01*
X199486418Y-118004322D01*
X199486421Y-118004332D01*
X199539221Y-118131804D01*
X199539228Y-118131817D01*
X199615885Y-118246541D01*
X199615888Y-118246545D01*
X199713454Y-118344111D01*
X199713458Y-118344114D01*
X199828182Y-118420771D01*
X199828195Y-118420778D01*
X199955667Y-118473578D01*
X199955672Y-118473580D01*
X199955676Y-118473580D01*
X199955677Y-118473581D01*
X200091004Y-118500500D01*
X200091007Y-118500500D01*
X200228995Y-118500500D01*
X200320041Y-118482389D01*
X200364328Y-118473580D01*
X200491811Y-118420775D01*
X200606542Y-118344114D01*
X200704114Y-118246542D01*
X200780775Y-118131811D01*
X200833580Y-118004328D01*
X200857516Y-117883995D01*
X200860500Y-117868995D01*
X208099499Y-117868995D01*
X208126418Y-118004322D01*
X208126421Y-118004332D01*
X208179221Y-118131804D01*
X208179228Y-118131817D01*
X208255885Y-118246541D01*
X208255888Y-118246545D01*
X208353454Y-118344111D01*
X208353458Y-118344114D01*
X208468182Y-118420771D01*
X208468195Y-118420778D01*
X208595667Y-118473578D01*
X208595672Y-118473580D01*
X208595676Y-118473580D01*
X208595677Y-118473581D01*
X208731004Y-118500500D01*
X208731007Y-118500500D01*
X208868995Y-118500500D01*
X208960041Y-118482389D01*
X209004328Y-118473580D01*
X209131811Y-118420775D01*
X209246542Y-118344114D01*
X209344114Y-118246542D01*
X209420775Y-118131811D01*
X209473580Y-118004328D01*
X209497516Y-117883995D01*
X212479499Y-117883995D01*
X212506418Y-118019322D01*
X212506421Y-118019332D01*
X212559221Y-118146804D01*
X212559228Y-118146817D01*
X212635885Y-118261541D01*
X212635888Y-118261545D01*
X212733454Y-118359111D01*
X212733458Y-118359114D01*
X212848182Y-118435771D01*
X212848195Y-118435778D01*
X212975667Y-118488578D01*
X212975672Y-118488580D01*
X212975676Y-118488580D01*
X212975677Y-118488581D01*
X213111004Y-118515500D01*
X213111007Y-118515500D01*
X213248995Y-118515500D01*
X213340041Y-118497389D01*
X213384328Y-118488580D01*
X213511811Y-118435775D01*
X213626542Y-118359114D01*
X213724114Y-118261542D01*
X213800775Y-118146811D01*
X213853580Y-118019328D01*
X213880500Y-117883995D01*
X221119499Y-117883995D01*
X221146418Y-118019322D01*
X221146421Y-118019332D01*
X221199221Y-118146804D01*
X221199228Y-118146817D01*
X221275885Y-118261541D01*
X221275888Y-118261545D01*
X221373454Y-118359111D01*
X221373458Y-118359114D01*
X221488182Y-118435771D01*
X221488195Y-118435778D01*
X221615667Y-118488578D01*
X221615672Y-118488580D01*
X221615676Y-118488580D01*
X221615677Y-118488581D01*
X221751004Y-118515500D01*
X221751007Y-118515500D01*
X221888995Y-118515500D01*
X221980041Y-118497389D01*
X222024328Y-118488580D01*
X222151811Y-118435775D01*
X222266542Y-118359114D01*
X222364114Y-118261542D01*
X222440775Y-118146811D01*
X222493580Y-118019328D01*
X222520500Y-117883993D01*
X222520500Y-116946007D01*
X222520500Y-116946004D01*
X222493581Y-116810677D01*
X222493580Y-116810676D01*
X222493580Y-116810672D01*
X222475773Y-116767682D01*
X222440778Y-116683195D01*
X222440771Y-116683182D01*
X222364114Y-116568458D01*
X222364111Y-116568454D01*
X222266545Y-116470888D01*
X222266541Y-116470885D01*
X222151817Y-116394228D01*
X222151804Y-116394221D01*
X222024332Y-116341421D01*
X222024322Y-116341418D01*
X221888995Y-116314500D01*
X221888993Y-116314500D01*
X221751007Y-116314500D01*
X221751005Y-116314500D01*
X221615677Y-116341418D01*
X221615667Y-116341421D01*
X221488195Y-116394221D01*
X221488182Y-116394228D01*
X221373458Y-116470885D01*
X221373454Y-116470888D01*
X221275888Y-116568454D01*
X221275885Y-116568458D01*
X221199228Y-116683182D01*
X221199221Y-116683195D01*
X221146421Y-116810667D01*
X221146418Y-116810677D01*
X221119500Y-116946004D01*
X221119500Y-116946007D01*
X221119500Y-117883993D01*
X221119500Y-117883995D01*
X221119499Y-117883995D01*
X213880500Y-117883995D01*
X213880500Y-117883993D01*
X213880500Y-116946007D01*
X213880500Y-116946004D01*
X213853581Y-116810677D01*
X213853580Y-116810676D01*
X213853580Y-116810672D01*
X213835773Y-116767682D01*
X213800778Y-116683195D01*
X213800771Y-116683182D01*
X213724114Y-116568458D01*
X213724111Y-116568454D01*
X213626545Y-116470888D01*
X213626541Y-116470885D01*
X213511817Y-116394228D01*
X213511804Y-116394221D01*
X213384332Y-116341421D01*
X213384322Y-116341418D01*
X213248995Y-116314500D01*
X213248993Y-116314500D01*
X213111007Y-116314500D01*
X213111005Y-116314500D01*
X212975677Y-116341418D01*
X212975667Y-116341421D01*
X212848195Y-116394221D01*
X212848182Y-116394228D01*
X212733458Y-116470885D01*
X212733454Y-116470888D01*
X212635888Y-116568454D01*
X212635885Y-116568458D01*
X212559228Y-116683182D01*
X212559221Y-116683195D01*
X212506421Y-116810667D01*
X212506418Y-116810677D01*
X212479500Y-116946004D01*
X212479500Y-116946007D01*
X212479500Y-117883993D01*
X212479500Y-117883995D01*
X212479499Y-117883995D01*
X209497516Y-117883995D01*
X209500500Y-117868995D01*
X209500500Y-116931004D01*
X209473581Y-116795677D01*
X209473580Y-116795676D01*
X209473580Y-116795672D01*
X209461986Y-116767682D01*
X209420778Y-116668195D01*
X209420771Y-116668182D01*
X209344114Y-116553458D01*
X209344111Y-116553454D01*
X209246545Y-116455888D01*
X209246541Y-116455885D01*
X209131817Y-116379228D01*
X209131804Y-116379221D01*
X209004332Y-116326421D01*
X209004322Y-116326418D01*
X208868995Y-116299500D01*
X208868993Y-116299500D01*
X208731007Y-116299500D01*
X208731005Y-116299500D01*
X208595677Y-116326418D01*
X208595667Y-116326421D01*
X208468195Y-116379221D01*
X208468182Y-116379228D01*
X208353458Y-116455885D01*
X208353454Y-116455888D01*
X208255888Y-116553454D01*
X208255885Y-116553458D01*
X208179228Y-116668182D01*
X208179221Y-116668195D01*
X208126421Y-116795667D01*
X208126418Y-116795677D01*
X208099500Y-116931004D01*
X208099500Y-116931007D01*
X208099500Y-117868993D01*
X208099500Y-117868995D01*
X208099499Y-117868995D01*
X200860500Y-117868995D01*
X200860500Y-116931004D01*
X200833581Y-116795677D01*
X200833580Y-116795676D01*
X200833580Y-116795672D01*
X200821986Y-116767682D01*
X200780778Y-116668195D01*
X200780771Y-116668182D01*
X200704114Y-116553458D01*
X200704111Y-116553454D01*
X200606545Y-116455888D01*
X200606541Y-116455885D01*
X200491817Y-116379228D01*
X200491804Y-116379221D01*
X200364332Y-116326421D01*
X200364322Y-116326418D01*
X200228995Y-116299500D01*
X200228993Y-116299500D01*
X200091007Y-116299500D01*
X200091005Y-116299500D01*
X199955677Y-116326418D01*
X199955667Y-116326421D01*
X199828195Y-116379221D01*
X199828182Y-116379228D01*
X199713458Y-116455885D01*
X199713454Y-116455888D01*
X199615888Y-116553454D01*
X199615885Y-116553458D01*
X199539228Y-116668182D01*
X199539221Y-116668195D01*
X199486421Y-116795667D01*
X199486418Y-116795677D01*
X199459500Y-116931004D01*
X199459500Y-116931007D01*
X199459500Y-117868993D01*
X199459500Y-117868995D01*
X199459499Y-117868995D01*
X196337252Y-117868995D01*
X196488101Y-117745197D01*
X196745197Y-117488101D01*
X196975854Y-117207044D01*
X197177853Y-116904732D01*
X197228127Y-116810677D01*
X197296274Y-116683182D01*
X197349247Y-116584076D01*
X197488386Y-116248164D01*
X197593930Y-115900233D01*
X197593932Y-115900223D01*
X197593935Y-115900212D01*
X197664862Y-115543630D01*
X197700500Y-115181790D01*
X197700500Y-114818209D01*
X225299500Y-114818209D01*
X225299500Y-115181790D01*
X225335137Y-115543630D01*
X225406064Y-115900212D01*
X225406067Y-115900223D01*
X225511614Y-116248165D01*
X225650754Y-116584078D01*
X225650756Y-116584083D01*
X225822140Y-116904720D01*
X225822151Y-116904738D01*
X226024140Y-117207035D01*
X226024150Y-117207049D01*
X226254807Y-117488106D01*
X226511893Y-117745192D01*
X226511898Y-117745196D01*
X226511899Y-117745197D01*
X226792956Y-117975854D01*
X227095268Y-118177853D01*
X227095277Y-118177858D01*
X227095279Y-118177859D01*
X227415916Y-118349243D01*
X227415918Y-118349243D01*
X227415924Y-118349247D01*
X227751836Y-118488386D01*
X228099767Y-118593930D01*
X228099773Y-118593931D01*
X228099776Y-118593932D01*
X228099787Y-118593935D01*
X228456369Y-118664862D01*
X228818206Y-118700500D01*
X228818209Y-118700500D01*
X229181791Y-118700500D01*
X229181794Y-118700500D01*
X229543631Y-118664862D01*
X229613045Y-118651054D01*
X229900212Y-118593935D01*
X229900223Y-118593932D01*
X229900223Y-118593931D01*
X229900233Y-118593930D01*
X230248164Y-118488386D01*
X230584076Y-118349247D01*
X230904732Y-118177853D01*
X231207044Y-117975854D01*
X231488101Y-117745197D01*
X231745197Y-117488101D01*
X231975854Y-117207044D01*
X232177853Y-116904732D01*
X232349247Y-116584076D01*
X232488386Y-116248164D01*
X232593930Y-115900233D01*
X232593932Y-115900223D01*
X232593935Y-115900212D01*
X232664862Y-115543630D01*
X232700500Y-115181790D01*
X232700500Y-114818209D01*
X232664862Y-114456369D01*
X232593935Y-114099787D01*
X232593932Y-114099776D01*
X232593931Y-114099773D01*
X232593930Y-114099767D01*
X232488386Y-113751836D01*
X232349247Y-113415924D01*
X232341283Y-113401025D01*
X232177859Y-113095279D01*
X232177858Y-113095277D01*
X232177853Y-113095268D01*
X231975854Y-112792956D01*
X231745197Y-112511899D01*
X231745196Y-112511898D01*
X231745192Y-112511893D01*
X231488106Y-112254807D01*
X231207049Y-112024150D01*
X231207048Y-112024149D01*
X231207044Y-112024146D01*
X230983528Y-111874797D01*
X230904738Y-111822151D01*
X230904737Y-111822150D01*
X230904732Y-111822147D01*
X230904727Y-111822144D01*
X230904720Y-111822140D01*
X230584083Y-111650756D01*
X230584078Y-111650754D01*
X230548345Y-111635953D01*
X230458858Y-111598886D01*
X230248165Y-111511614D01*
X229900223Y-111406067D01*
X229900212Y-111406064D01*
X229543630Y-111335137D01*
X229271111Y-111308296D01*
X229181794Y-111299500D01*
X228818206Y-111299500D01*
X228735679Y-111307628D01*
X228456369Y-111335137D01*
X228099787Y-111406064D01*
X228099776Y-111406067D01*
X227751834Y-111511614D01*
X227415921Y-111650754D01*
X227415916Y-111650756D01*
X227095279Y-111822140D01*
X227095261Y-111822151D01*
X226792964Y-112024140D01*
X226792950Y-112024150D01*
X226511893Y-112254807D01*
X226254807Y-112511893D01*
X226024150Y-112792950D01*
X226024140Y-112792964D01*
X225822151Y-113095261D01*
X225822140Y-113095279D01*
X225650756Y-113415916D01*
X225650754Y-113415921D01*
X225511614Y-113751834D01*
X225406067Y-114099776D01*
X225406064Y-114099787D01*
X225335137Y-114456369D01*
X225299500Y-114818209D01*
X197700500Y-114818209D01*
X197664862Y-114456369D01*
X197593935Y-114099787D01*
X197593932Y-114099776D01*
X197593931Y-114099773D01*
X197593930Y-114099767D01*
X197514825Y-113838995D01*
X199459499Y-113838995D01*
X199486418Y-113974322D01*
X199486421Y-113974332D01*
X199539221Y-114101804D01*
X199539228Y-114101817D01*
X199615885Y-114216541D01*
X199615888Y-114216545D01*
X199713454Y-114314111D01*
X199713458Y-114314114D01*
X199828182Y-114390771D01*
X199828195Y-114390778D01*
X199955667Y-114443578D01*
X199955672Y-114443580D01*
X199955676Y-114443580D01*
X199955677Y-114443581D01*
X200091004Y-114470500D01*
X200091007Y-114470500D01*
X200228995Y-114470500D01*
X200320041Y-114452389D01*
X200364328Y-114443580D01*
X200491811Y-114390775D01*
X200606542Y-114314114D01*
X200704114Y-114216542D01*
X200780775Y-114101811D01*
X200833580Y-113974328D01*
X200851999Y-113881725D01*
X200884383Y-113819817D01*
X200945098Y-113785243D01*
X201014868Y-113788982D01*
X201071540Y-113829848D01*
X201093390Y-113873824D01*
X201105901Y-113920515D01*
X201105906Y-113920526D01*
X201174291Y-114038974D01*
X201174295Y-114038979D01*
X201174296Y-114038981D01*
X201271019Y-114135704D01*
X201271021Y-114135705D01*
X201271025Y-114135708D01*
X201389473Y-114204093D01*
X201389480Y-114204097D01*
X201521606Y-114239500D01*
X201521608Y-114239500D01*
X201658392Y-114239500D01*
X201658394Y-114239500D01*
X201790520Y-114204097D01*
X201908981Y-114135704D01*
X202005704Y-114038981D01*
X202034371Y-113989328D01*
X202078161Y-113913482D01*
X202080807Y-113915010D01*
X202115489Y-113871921D01*
X202181770Y-113849817D01*
X202249480Y-113867056D01*
X202273951Y-113886054D01*
X202698386Y-114310489D01*
X202801113Y-114369799D01*
X202825321Y-114376284D01*
X202825324Y-114376286D01*
X202825325Y-114376286D01*
X202855447Y-114384357D01*
X202915691Y-114400500D01*
X202915693Y-114400500D01*
X206034308Y-114400500D01*
X206034309Y-114400500D01*
X206124673Y-114376286D01*
X206148887Y-114369799D01*
X206251614Y-114310489D01*
X206683121Y-113878981D01*
X206744442Y-113845498D01*
X206814133Y-113850482D01*
X206870067Y-113892353D01*
X206885362Y-113919213D01*
X206885905Y-113920526D01*
X206954291Y-114038974D01*
X206954295Y-114038979D01*
X206954296Y-114038981D01*
X207051019Y-114135704D01*
X207051021Y-114135705D01*
X207051025Y-114135708D01*
X207169473Y-114204093D01*
X207169480Y-114204097D01*
X207301606Y-114239500D01*
X207301608Y-114239500D01*
X207438392Y-114239500D01*
X207438394Y-114239500D01*
X207570520Y-114204097D01*
X207688981Y-114135704D01*
X207785704Y-114038981D01*
X207854097Y-113920520D01*
X207866609Y-113873824D01*
X207902973Y-113814165D01*
X207965819Y-113783636D01*
X208035195Y-113791930D01*
X208089073Y-113836416D01*
X208108000Y-113881728D01*
X208126418Y-113974320D01*
X208126421Y-113974332D01*
X208179221Y-114101804D01*
X208179228Y-114101817D01*
X208255885Y-114216541D01*
X208255888Y-114216545D01*
X208353454Y-114314111D01*
X208353458Y-114314114D01*
X208468182Y-114390771D01*
X208468195Y-114390778D01*
X208595667Y-114443578D01*
X208595672Y-114443580D01*
X208595676Y-114443580D01*
X208595677Y-114443581D01*
X208731004Y-114470500D01*
X208731007Y-114470500D01*
X208868995Y-114470500D01*
X208960041Y-114452389D01*
X209004328Y-114443580D01*
X209131811Y-114390775D01*
X209246542Y-114314114D01*
X209344114Y-114216542D01*
X209420775Y-114101811D01*
X209473580Y-113974328D01*
X209491999Y-113881729D01*
X209497516Y-113853995D01*
X212479499Y-113853995D01*
X212506418Y-113989322D01*
X212506421Y-113989332D01*
X212559221Y-114116804D01*
X212559228Y-114116817D01*
X212635885Y-114231541D01*
X212635888Y-114231545D01*
X212733454Y-114329111D01*
X212733458Y-114329114D01*
X212848182Y-114405771D01*
X212848195Y-114405778D01*
X212939461Y-114443581D01*
X212975672Y-114458580D01*
X212975676Y-114458580D01*
X212975677Y-114458581D01*
X213111004Y-114485500D01*
X213111007Y-114485500D01*
X213248995Y-114485500D01*
X213340041Y-114467389D01*
X213384328Y-114458580D01*
X213511811Y-114405775D01*
X213626542Y-114329114D01*
X213724114Y-114231542D01*
X213800775Y-114116811D01*
X213853580Y-113989328D01*
X213871999Y-113896725D01*
X213904383Y-113834817D01*
X213965098Y-113800243D01*
X214034868Y-113803982D01*
X214091540Y-113844848D01*
X214113390Y-113888824D01*
X214125901Y-113935515D01*
X214125906Y-113935526D01*
X214194291Y-114053974D01*
X214194295Y-114053979D01*
X214194296Y-114053981D01*
X214291019Y-114150704D01*
X214291021Y-114150705D01*
X214291025Y-114150708D01*
X214405060Y-114216545D01*
X214409480Y-114219097D01*
X214541606Y-114254500D01*
X214541608Y-114254500D01*
X214678392Y-114254500D01*
X214678394Y-114254500D01*
X214810520Y-114219097D01*
X214928981Y-114150704D01*
X215025704Y-114053981D01*
X215094097Y-113935520D01*
X215094099Y-113935509D01*
X215097206Y-113928013D01*
X215100256Y-113929276D01*
X215128602Y-113882753D01*
X215191444Y-113852213D01*
X215260821Y-113860496D01*
X215299709Y-113886812D01*
X215723386Y-114310489D01*
X215826113Y-114369799D01*
X215850321Y-114376284D01*
X215850324Y-114376286D01*
X215850325Y-114376286D01*
X215880447Y-114384357D01*
X215940691Y-114400500D01*
X215940693Y-114400500D01*
X219059308Y-114400500D01*
X219059309Y-114400500D01*
X219149673Y-114376286D01*
X219173887Y-114369799D01*
X219276614Y-114310489D01*
X219700292Y-113886810D01*
X219761613Y-113853327D01*
X219831304Y-113858311D01*
X219887238Y-113900182D01*
X219901109Y-113928710D01*
X219902794Y-113928013D01*
X219905902Y-113935516D01*
X219905903Y-113935520D01*
X219905904Y-113935523D01*
X219905906Y-113935526D01*
X219974291Y-114053974D01*
X219974295Y-114053979D01*
X219974296Y-114053981D01*
X220071019Y-114150704D01*
X220071021Y-114150705D01*
X220071025Y-114150708D01*
X220185060Y-114216545D01*
X220189480Y-114219097D01*
X220321606Y-114254500D01*
X220321608Y-114254500D01*
X220458392Y-114254500D01*
X220458394Y-114254500D01*
X220590520Y-114219097D01*
X220708981Y-114150704D01*
X220805704Y-114053981D01*
X220874097Y-113935520D01*
X220886609Y-113888824D01*
X220922973Y-113829165D01*
X220985819Y-113798636D01*
X221055195Y-113806930D01*
X221109073Y-113851416D01*
X221128000Y-113896728D01*
X221146418Y-113989320D01*
X221146421Y-113989332D01*
X221199221Y-114116804D01*
X221199228Y-114116817D01*
X221275885Y-114231541D01*
X221275888Y-114231545D01*
X221373454Y-114329111D01*
X221373458Y-114329114D01*
X221488182Y-114405771D01*
X221488195Y-114405778D01*
X221579461Y-114443581D01*
X221615672Y-114458580D01*
X221615676Y-114458580D01*
X221615677Y-114458581D01*
X221751004Y-114485500D01*
X221751007Y-114485500D01*
X221888995Y-114485500D01*
X221980041Y-114467389D01*
X222024328Y-114458580D01*
X222151811Y-114405775D01*
X222266542Y-114329114D01*
X222364114Y-114231542D01*
X222440775Y-114116811D01*
X222493580Y-113989328D01*
X222508667Y-113913482D01*
X222520500Y-113853995D01*
X222520500Y-112616004D01*
X222493581Y-112480677D01*
X222493580Y-112480676D01*
X222493580Y-112480672D01*
X222487365Y-112465667D01*
X222440778Y-112353195D01*
X222440771Y-112353182D01*
X222364114Y-112238458D01*
X222364111Y-112238454D01*
X222266545Y-112140888D01*
X222266541Y-112140885D01*
X222151817Y-112064228D01*
X222151804Y-112064221D01*
X222024332Y-112011421D01*
X222024322Y-112011418D01*
X221888995Y-111984500D01*
X221888993Y-111984500D01*
X221751007Y-111984500D01*
X221751005Y-111984500D01*
X221615677Y-112011418D01*
X221615667Y-112011421D01*
X221488195Y-112064221D01*
X221488182Y-112064228D01*
X221373458Y-112140885D01*
X221373454Y-112140888D01*
X221275888Y-112238454D01*
X221275885Y-112238458D01*
X221199228Y-112353182D01*
X221199221Y-112353195D01*
X221146421Y-112480667D01*
X221146418Y-112480677D01*
X221119500Y-112616004D01*
X221119500Y-113508464D01*
X221099815Y-113575503D01*
X221047011Y-113621258D01*
X220977853Y-113631202D01*
X220914297Y-113602177D01*
X220876523Y-113543399D01*
X220875737Y-113540603D01*
X220874097Y-113534480D01*
X220859077Y-113508464D01*
X220805708Y-113416025D01*
X220805702Y-113416017D01*
X220708982Y-113319297D01*
X220708974Y-113319291D01*
X220590526Y-113250906D01*
X220590522Y-113250904D01*
X220590520Y-113250903D01*
X220458394Y-113215500D01*
X220458390Y-113215499D01*
X220458304Y-113215488D01*
X220458236Y-113215458D01*
X220450544Y-113213397D01*
X220450865Y-113212196D01*
X220394410Y-113187215D01*
X220355944Y-113128888D01*
X220350500Y-113092550D01*
X220350500Y-111340693D01*
X220350500Y-111340691D01*
X220319799Y-111226114D01*
X220260489Y-111123387D01*
X220176613Y-111039511D01*
X220073886Y-110980201D01*
X219959309Y-110949500D01*
X219840691Y-110949500D01*
X219726114Y-110980201D01*
X219726112Y-110980201D01*
X219726112Y-110980202D01*
X219623387Y-111039511D01*
X219623384Y-111039513D01*
X219539513Y-111123384D01*
X219539511Y-111123387D01*
X219491461Y-111206612D01*
X219480201Y-111226114D01*
X219449500Y-111340691D01*
X219449500Y-111340693D01*
X219449500Y-112812035D01*
X219429815Y-112879074D01*
X219413181Y-112899716D01*
X218849716Y-113463181D01*
X218788393Y-113496666D01*
X218762035Y-113499500D01*
X216237965Y-113499500D01*
X216170926Y-113479815D01*
X216150284Y-113463181D01*
X215586819Y-112899716D01*
X215553334Y-112838393D01*
X215550500Y-112812035D01*
X215550500Y-111395691D01*
X216119500Y-111395691D01*
X216119500Y-111514309D01*
X216150201Y-111628886D01*
X216209511Y-111731613D01*
X216293387Y-111815489D01*
X216396114Y-111874799D01*
X216510691Y-111905500D01*
X216510694Y-111905500D01*
X216629306Y-111905500D01*
X216629309Y-111905500D01*
X216743886Y-111874799D01*
X216846613Y-111815489D01*
X216870283Y-111791819D01*
X216931606Y-111758334D01*
X216957964Y-111755500D01*
X217595904Y-111755500D01*
X217662943Y-111775185D01*
X217683585Y-111791819D01*
X217714322Y-111822556D01*
X217817049Y-111881866D01*
X217931626Y-111912567D01*
X217931629Y-111912567D01*
X218050241Y-111912567D01*
X218050244Y-111912567D01*
X218164821Y-111881866D01*
X218267548Y-111822556D01*
X218351424Y-111738680D01*
X218410734Y-111635953D01*
X218441435Y-111521376D01*
X218441435Y-111492495D01*
X218461120Y-111425456D01*
X218513924Y-111379701D01*
X218533335Y-111372722D01*
X218618886Y-111349799D01*
X218721613Y-111290489D01*
X218805489Y-111206613D01*
X218864799Y-111103886D01*
X218895500Y-110989309D01*
X218895500Y-110870691D01*
X218864799Y-110756114D01*
X218805489Y-110653387D01*
X218721613Y-110569511D01*
X218618886Y-110510201D01*
X218504309Y-110479500D01*
X218385691Y-110479500D01*
X218271114Y-110510201D01*
X218271112Y-110510201D01*
X218271112Y-110510202D01*
X218168387Y-110569511D01*
X218168384Y-110569513D01*
X218151784Y-110586114D01*
X218090461Y-110619599D01*
X218064103Y-110622433D01*
X217412029Y-110622433D01*
X217344990Y-110602748D01*
X217324348Y-110586114D01*
X217300680Y-110562446D01*
X217300678Y-110562444D01*
X217197951Y-110503134D01*
X217083374Y-110472433D01*
X216964756Y-110472433D01*
X216850179Y-110503134D01*
X216850177Y-110503134D01*
X216850177Y-110503135D01*
X216747452Y-110562444D01*
X216747449Y-110562446D01*
X216663578Y-110646317D01*
X216663576Y-110646320D01*
X216604266Y-110749047D01*
X216573565Y-110863624D01*
X216573565Y-110863626D01*
X216573565Y-110892504D01*
X216553880Y-110959543D01*
X216501076Y-111005298D01*
X216481661Y-111012278D01*
X216396114Y-111035201D01*
X216396113Y-111035201D01*
X216396111Y-111035202D01*
X216293387Y-111094511D01*
X216293384Y-111094513D01*
X216209513Y-111178384D01*
X216209511Y-111178387D01*
X216162110Y-111260488D01*
X216150201Y-111281114D01*
X216119500Y-111395691D01*
X215550500Y-111395691D01*
X215550500Y-111340693D01*
X215550500Y-111340691D01*
X215519799Y-111226114D01*
X215460489Y-111123387D01*
X215376613Y-111039511D01*
X215273886Y-110980201D01*
X215159309Y-110949500D01*
X215040691Y-110949500D01*
X214926114Y-110980201D01*
X214926112Y-110980201D01*
X214926112Y-110980202D01*
X214823387Y-111039511D01*
X214823384Y-111039513D01*
X214739513Y-111123384D01*
X214739511Y-111123387D01*
X214691461Y-111206612D01*
X214680201Y-111226114D01*
X214649500Y-111340691D01*
X214649500Y-111340693D01*
X214649500Y-113092550D01*
X214629815Y-113159589D01*
X214577011Y-113205344D01*
X214549421Y-113213268D01*
X214549456Y-113213397D01*
X214542303Y-113215313D01*
X214541696Y-113215488D01*
X214541609Y-113215499D01*
X214409480Y-113250903D01*
X214409473Y-113250906D01*
X214291025Y-113319291D01*
X214291017Y-113319297D01*
X214194297Y-113416017D01*
X214194291Y-113416025D01*
X214125906Y-113534473D01*
X214125903Y-113534478D01*
X214125129Y-113537365D01*
X214124273Y-113540559D01*
X214087910Y-113600218D01*
X214025063Y-113630747D01*
X213955687Y-113622452D01*
X213901809Y-113577967D01*
X213880535Y-113511415D01*
X213880500Y-113508464D01*
X213880500Y-112616004D01*
X213853581Y-112480677D01*
X213853580Y-112480676D01*
X213853580Y-112480672D01*
X213847365Y-112465667D01*
X213800778Y-112353195D01*
X213800771Y-112353182D01*
X213724114Y-112238458D01*
X213724111Y-112238454D01*
X213626545Y-112140888D01*
X213626541Y-112140885D01*
X213511817Y-112064228D01*
X213511804Y-112064221D01*
X213384332Y-112011421D01*
X213384322Y-112011418D01*
X213248995Y-111984500D01*
X213248993Y-111984500D01*
X213111007Y-111984500D01*
X213111005Y-111984500D01*
X212975677Y-112011418D01*
X212975667Y-112011421D01*
X212848195Y-112064221D01*
X212848182Y-112064228D01*
X212733458Y-112140885D01*
X212733454Y-112140888D01*
X212635888Y-112238454D01*
X212635885Y-112238458D01*
X212559228Y-112353182D01*
X212559221Y-112353195D01*
X212506421Y-112480667D01*
X212506418Y-112480677D01*
X212479500Y-112616004D01*
X212479500Y-112616007D01*
X212479500Y-113853993D01*
X212479500Y-113853995D01*
X212479499Y-113853995D01*
X209497516Y-113853995D01*
X209500500Y-113838995D01*
X209500500Y-112601004D01*
X209473581Y-112465677D01*
X209473580Y-112465676D01*
X209473580Y-112465672D01*
X209426991Y-112353195D01*
X209420778Y-112338195D01*
X209420771Y-112338182D01*
X209344114Y-112223458D01*
X209344111Y-112223454D01*
X209246545Y-112125888D01*
X209246541Y-112125885D01*
X209131817Y-112049228D01*
X209131804Y-112049221D01*
X209004332Y-111996421D01*
X209004322Y-111996418D01*
X208868995Y-111969500D01*
X208868993Y-111969500D01*
X208731007Y-111969500D01*
X208731005Y-111969500D01*
X208595677Y-111996418D01*
X208595667Y-111996421D01*
X208468195Y-112049221D01*
X208468182Y-112049228D01*
X208353458Y-112125885D01*
X208353454Y-112125888D01*
X208255888Y-112223454D01*
X208255885Y-112223458D01*
X208179228Y-112338182D01*
X208179221Y-112338195D01*
X208126421Y-112465667D01*
X208126418Y-112465677D01*
X208099500Y-112601004D01*
X208099500Y-113493464D01*
X208079815Y-113560503D01*
X208027011Y-113606258D01*
X207957853Y-113616202D01*
X207894297Y-113587177D01*
X207856523Y-113528399D01*
X207855737Y-113525603D01*
X207854097Y-113519480D01*
X207842562Y-113499500D01*
X207785708Y-113401025D01*
X207785702Y-113401017D01*
X207688982Y-113304297D01*
X207688974Y-113304291D01*
X207570526Y-113235906D01*
X207570522Y-113235904D01*
X207570520Y-113235903D01*
X207438394Y-113200500D01*
X207433310Y-113199831D01*
X207369415Y-113171562D01*
X207330946Y-113113236D01*
X207325500Y-113076892D01*
X207325500Y-111340693D01*
X207325500Y-111340691D01*
X207294799Y-111226114D01*
X207235489Y-111123387D01*
X207151613Y-111039511D01*
X207048886Y-110980201D01*
X206934309Y-110949500D01*
X206815691Y-110949500D01*
X206701114Y-110980201D01*
X206701112Y-110980201D01*
X206701112Y-110980202D01*
X206598387Y-111039511D01*
X206598384Y-111039513D01*
X206514513Y-111123384D01*
X206514511Y-111123387D01*
X206466461Y-111206612D01*
X206455201Y-111226114D01*
X206424500Y-111340691D01*
X206424500Y-111340693D01*
X206424500Y-112812035D01*
X206404815Y-112879074D01*
X206388181Y-112899716D01*
X205824716Y-113463181D01*
X205763393Y-113496666D01*
X205737035Y-113499500D01*
X203212965Y-113499500D01*
X203145926Y-113479815D01*
X203125284Y-113463181D01*
X202561819Y-112899716D01*
X202528334Y-112838393D01*
X202525500Y-112812035D01*
X202525500Y-111365691D01*
X203099500Y-111365691D01*
X203099500Y-111484309D01*
X203130201Y-111598886D01*
X203189511Y-111701613D01*
X203273387Y-111785489D01*
X203376114Y-111844799D01*
X203490691Y-111875500D01*
X203490694Y-111875500D01*
X203609306Y-111875500D01*
X203609309Y-111875500D01*
X203723886Y-111844799D01*
X203826613Y-111785489D01*
X203850283Y-111761819D01*
X203911606Y-111728334D01*
X203937964Y-111725500D01*
X204575904Y-111725500D01*
X204642943Y-111745185D01*
X204663585Y-111761819D01*
X204694322Y-111792556D01*
X204797049Y-111851866D01*
X204911626Y-111882567D01*
X204911629Y-111882567D01*
X205030241Y-111882567D01*
X205030244Y-111882567D01*
X205144821Y-111851866D01*
X205247548Y-111792556D01*
X205331424Y-111708680D01*
X205390734Y-111605953D01*
X205421435Y-111491376D01*
X205421435Y-111462495D01*
X205441120Y-111395456D01*
X205493924Y-111349701D01*
X205513335Y-111342722D01*
X205598886Y-111319799D01*
X205701613Y-111260489D01*
X205785489Y-111176613D01*
X205844799Y-111073886D01*
X205875500Y-110959309D01*
X205875500Y-110840691D01*
X205844799Y-110726114D01*
X205785489Y-110623387D01*
X205701613Y-110539511D01*
X205598886Y-110480201D01*
X205484309Y-110449500D01*
X205365691Y-110449500D01*
X205251114Y-110480201D01*
X205251112Y-110480201D01*
X205251112Y-110480202D01*
X205148387Y-110539511D01*
X205148384Y-110539513D01*
X205131784Y-110556114D01*
X205070461Y-110589599D01*
X205044103Y-110592433D01*
X204392029Y-110592433D01*
X204324990Y-110572748D01*
X204304348Y-110556114D01*
X204280680Y-110532446D01*
X204280678Y-110532444D01*
X204177951Y-110473134D01*
X204063374Y-110442433D01*
X203944756Y-110442433D01*
X203830179Y-110473134D01*
X203830177Y-110473134D01*
X203830177Y-110473135D01*
X203727452Y-110532444D01*
X203727449Y-110532446D01*
X203643578Y-110616317D01*
X203643576Y-110616320D01*
X203584266Y-110719047D01*
X203553565Y-110833624D01*
X203553565Y-110833626D01*
X203553565Y-110862504D01*
X203533880Y-110929543D01*
X203481076Y-110975298D01*
X203461661Y-110982278D01*
X203376114Y-111005201D01*
X203376113Y-111005201D01*
X203376111Y-111005202D01*
X203273387Y-111064511D01*
X203273384Y-111064513D01*
X203189513Y-111148384D01*
X203189511Y-111148387D01*
X203130201Y-111251114D01*
X203099500Y-111365691D01*
X202525500Y-111365691D01*
X202525500Y-111340693D01*
X202525500Y-111340691D01*
X202494799Y-111226114D01*
X202435489Y-111123387D01*
X202351613Y-111039511D01*
X202248886Y-110980201D01*
X202134309Y-110949500D01*
X202015691Y-110949500D01*
X201901114Y-110980201D01*
X201901112Y-110980201D01*
X201901112Y-110980202D01*
X201798387Y-111039511D01*
X201798384Y-111039513D01*
X201714513Y-111123384D01*
X201714511Y-111123387D01*
X201666461Y-111206612D01*
X201655201Y-111226114D01*
X201624500Y-111340691D01*
X201624500Y-111340693D01*
X201624500Y-113078208D01*
X201604815Y-113145247D01*
X201552011Y-113191002D01*
X201529228Y-113197548D01*
X201529456Y-113198397D01*
X201521607Y-113200500D01*
X201521606Y-113200500D01*
X201389480Y-113235903D01*
X201389473Y-113235906D01*
X201271025Y-113304291D01*
X201271017Y-113304297D01*
X201174297Y-113401017D01*
X201174291Y-113401025D01*
X201105906Y-113519473D01*
X201105903Y-113519478D01*
X201105129Y-113522365D01*
X201104273Y-113525559D01*
X201067910Y-113585218D01*
X201005063Y-113615747D01*
X200935687Y-113607452D01*
X200881809Y-113562967D01*
X200860535Y-113496415D01*
X200860500Y-113493464D01*
X200860500Y-112601004D01*
X200833581Y-112465677D01*
X200833580Y-112465676D01*
X200833580Y-112465672D01*
X200786991Y-112353195D01*
X200780778Y-112338195D01*
X200780771Y-112338182D01*
X200704114Y-112223458D01*
X200704111Y-112223454D01*
X200606545Y-112125888D01*
X200606541Y-112125885D01*
X200491817Y-112049228D01*
X200491804Y-112049221D01*
X200364332Y-111996421D01*
X200364322Y-111996418D01*
X200228995Y-111969500D01*
X200228993Y-111969500D01*
X200091007Y-111969500D01*
X200091005Y-111969500D01*
X199955677Y-111996418D01*
X199955667Y-111996421D01*
X199828195Y-112049221D01*
X199828182Y-112049228D01*
X199713458Y-112125885D01*
X199713454Y-112125888D01*
X199615888Y-112223454D01*
X199615885Y-112223458D01*
X199539228Y-112338182D01*
X199539221Y-112338195D01*
X199486421Y-112465667D01*
X199486418Y-112465677D01*
X199459500Y-112601004D01*
X199459500Y-112601007D01*
X199459500Y-113838993D01*
X199459500Y-113838995D01*
X199459499Y-113838995D01*
X197514825Y-113838995D01*
X197488386Y-113751836D01*
X197349247Y-113415924D01*
X197341283Y-113401025D01*
X197177859Y-113095279D01*
X197177858Y-113095277D01*
X197177853Y-113095268D01*
X196975854Y-112792956D01*
X196745197Y-112511899D01*
X196745196Y-112511898D01*
X196745192Y-112511893D01*
X196488106Y-112254807D01*
X196207049Y-112024150D01*
X196207048Y-112024149D01*
X196207044Y-112024146D01*
X195983528Y-111874797D01*
X195904738Y-111822151D01*
X195904737Y-111822150D01*
X195904732Y-111822147D01*
X195904727Y-111822144D01*
X195904720Y-111822140D01*
X195584083Y-111650756D01*
X195584078Y-111650754D01*
X195548345Y-111635953D01*
X195458858Y-111598886D01*
X195248165Y-111511614D01*
X194900223Y-111406067D01*
X194900212Y-111406064D01*
X194543630Y-111335137D01*
X194271111Y-111308296D01*
X194181794Y-111299500D01*
X193818206Y-111299500D01*
X193735679Y-111307628D01*
X193456369Y-111335137D01*
X193099787Y-111406064D01*
X193099776Y-111406067D01*
X192751834Y-111511614D01*
X192415921Y-111650754D01*
X192415916Y-111650756D01*
X192095279Y-111822140D01*
X192095261Y-111822151D01*
X191792964Y-112024140D01*
X191792950Y-112024150D01*
X191511893Y-112254807D01*
X191254807Y-112511893D01*
X191024150Y-112792950D01*
X191024140Y-112792964D01*
X190822151Y-113095261D01*
X190822140Y-113095279D01*
X190650756Y-113415916D01*
X190650754Y-113415921D01*
X190511614Y-113751834D01*
X190406067Y-114099776D01*
X190406064Y-114099787D01*
X190335137Y-114456369D01*
X190299500Y-114818209D01*
X189500500Y-114818209D01*
X189500500Y-108740691D01*
X198749500Y-108740691D01*
X198749500Y-108859309D01*
X198780201Y-108973886D01*
X198839511Y-109076613D01*
X198923387Y-109160489D01*
X199026114Y-109219799D01*
X199140691Y-109250500D01*
X199140694Y-109250500D01*
X199259306Y-109250500D01*
X199259309Y-109250500D01*
X199373886Y-109219799D01*
X199476613Y-109160489D01*
X199560489Y-109076613D01*
X199619799Y-108973886D01*
X199650500Y-108859309D01*
X199650500Y-108740691D01*
X199619799Y-108626114D01*
X199560489Y-108523387D01*
X199476613Y-108439511D01*
X199373886Y-108380201D01*
X199259309Y-108349500D01*
X199140691Y-108349500D01*
X199026114Y-108380201D01*
X199026112Y-108380201D01*
X199026112Y-108380202D01*
X198923387Y-108439511D01*
X198923384Y-108439513D01*
X198839513Y-108523384D01*
X198839511Y-108523387D01*
X198808780Y-108576615D01*
X198780201Y-108626114D01*
X198749500Y-108740691D01*
X189500500Y-108740691D01*
X189500500Y-107790691D01*
X201924500Y-107790691D01*
X201924500Y-107909309D01*
X201955201Y-108023886D01*
X202014511Y-108126613D01*
X202098387Y-108210489D01*
X202201114Y-108269799D01*
X202315691Y-108300500D01*
X202315694Y-108300500D01*
X202434306Y-108300500D01*
X202434309Y-108300500D01*
X202548886Y-108269799D01*
X202651613Y-108210489D01*
X202735489Y-108126613D01*
X202794799Y-108023886D01*
X202825500Y-107909309D01*
X202825500Y-107790691D01*
X202794799Y-107676114D01*
X202735489Y-107573387D01*
X202651613Y-107489511D01*
X202548886Y-107430201D01*
X202434309Y-107399500D01*
X202315691Y-107399500D01*
X202201114Y-107430201D01*
X202201112Y-107430201D01*
X202201112Y-107430202D01*
X202098387Y-107489511D01*
X202098384Y-107489513D01*
X202014513Y-107573384D01*
X202014511Y-107573387D01*
X201968282Y-107653458D01*
X201955201Y-107676114D01*
X201924500Y-107790691D01*
X189500500Y-107790691D01*
X189500500Y-102715691D01*
X191599500Y-102715691D01*
X191599500Y-102834309D01*
X191630201Y-102948886D01*
X191689511Y-103051613D01*
X191773387Y-103135489D01*
X191876114Y-103194799D01*
X191990691Y-103225500D01*
X191990694Y-103225500D01*
X192109306Y-103225500D01*
X192109309Y-103225500D01*
X192223886Y-103194799D01*
X192326613Y-103135489D01*
X192410489Y-103051613D01*
X192469799Y-102948886D01*
X192500500Y-102834309D01*
X192500500Y-102715691D01*
X192469799Y-102601114D01*
X192410489Y-102498387D01*
X192326613Y-102414511D01*
X192223886Y-102355201D01*
X192109309Y-102324500D01*
X191990691Y-102324500D01*
X191876114Y-102355201D01*
X191876112Y-102355201D01*
X191876112Y-102355202D01*
X191773387Y-102414511D01*
X191773384Y-102414513D01*
X191689513Y-102498384D01*
X191689511Y-102498387D01*
X191636330Y-102590499D01*
X191630201Y-102601114D01*
X191599500Y-102715691D01*
X189500500Y-102715691D01*
X189500500Y-98290691D01*
X194989500Y-98290691D01*
X194989500Y-98409309D01*
X195020201Y-98523886D01*
X195079511Y-98626613D01*
X195079513Y-98626615D01*
X195103181Y-98650283D01*
X195136666Y-98711606D01*
X195139500Y-98737964D01*
X195139500Y-99318794D01*
X195159979Y-99395221D01*
X195179943Y-99429799D01*
X195199540Y-99463743D01*
X195780308Y-100044511D01*
X195836257Y-100100460D01*
X195836259Y-100100461D01*
X195836263Y-100100464D01*
X195904772Y-100140017D01*
X195904779Y-100140021D01*
X195981206Y-100160500D01*
X196060330Y-100160500D01*
X199637067Y-100160500D01*
X199704106Y-100180185D01*
X199724748Y-100196819D01*
X200564748Y-101036819D01*
X200598233Y-101098142D01*
X200593249Y-101167834D01*
X200551377Y-101223767D01*
X200485913Y-101248184D01*
X200477067Y-101248500D01*
X198224833Y-101248500D01*
X198157794Y-101228815D01*
X198137152Y-101212181D01*
X197584513Y-100659541D01*
X197582774Y-100658537D01*
X197582774Y-100658536D01*
X197515989Y-100619979D01*
X197515990Y-100619979D01*
X197485353Y-100611770D01*
X197439562Y-100599500D01*
X197439560Y-100599500D01*
X195887964Y-100599500D01*
X195820925Y-100579815D01*
X195800283Y-100563181D01*
X195776615Y-100539513D01*
X195776613Y-100539511D01*
X195673886Y-100480201D01*
X195559309Y-100449500D01*
X195440691Y-100449500D01*
X195326114Y-100480201D01*
X195326112Y-100480201D01*
X195326112Y-100480202D01*
X195223387Y-100539511D01*
X195223384Y-100539513D01*
X195139513Y-100623384D01*
X195139511Y-100623387D01*
X195119218Y-100658536D01*
X195080201Y-100726114D01*
X195049500Y-100840691D01*
X195049500Y-100959309D01*
X195080201Y-101073886D01*
X195139511Y-101176613D01*
X195223387Y-101260489D01*
X195326114Y-101319799D01*
X195440691Y-101350500D01*
X195440694Y-101350500D01*
X195559306Y-101350500D01*
X195559309Y-101350500D01*
X195673886Y-101319799D01*
X195776613Y-101260489D01*
X195800283Y-101236819D01*
X195861606Y-101203334D01*
X195887964Y-101200500D01*
X197224167Y-101200500D01*
X197291206Y-101220185D01*
X197311848Y-101236819D01*
X197330978Y-101255949D01*
X197364463Y-101317272D01*
X197359479Y-101386964D01*
X197317607Y-101442897D01*
X197252143Y-101467314D01*
X197211205Y-101463405D01*
X197159310Y-101449500D01*
X197159309Y-101449500D01*
X197040691Y-101449500D01*
X196926114Y-101480201D01*
X196926112Y-101480201D01*
X196926112Y-101480202D01*
X196823387Y-101539511D01*
X196823384Y-101539513D01*
X196739513Y-101623384D01*
X196739511Y-101623387D01*
X196718091Y-101660488D01*
X196680201Y-101726114D01*
X196649500Y-101840691D01*
X196649500Y-101959309D01*
X196680201Y-102073886D01*
X196739511Y-102176613D01*
X196823387Y-102260489D01*
X196926114Y-102319799D01*
X197040691Y-102350500D01*
X197040694Y-102350500D01*
X197159306Y-102350500D01*
X197159309Y-102350500D01*
X197273886Y-102319799D01*
X197376613Y-102260489D01*
X197400283Y-102236819D01*
X197461606Y-102203334D01*
X197487964Y-102200500D01*
X200424167Y-102200500D01*
X200491206Y-102220185D01*
X200511848Y-102236819D01*
X203713181Y-105438152D01*
X203746666Y-105499475D01*
X203749500Y-105525833D01*
X203749500Y-107289562D01*
X203753282Y-107303675D01*
X203769979Y-107365990D01*
X203789902Y-107400496D01*
X203789903Y-107400499D01*
X203809537Y-107434507D01*
X203809539Y-107434510D01*
X203809540Y-107434511D01*
X206159540Y-109784511D01*
X206215489Y-109840460D01*
X206215491Y-109840461D01*
X206215495Y-109840464D01*
X206284004Y-109880017D01*
X206284011Y-109880021D01*
X206360438Y-109900500D01*
X206360440Y-109900500D01*
X213339560Y-109900500D01*
X213339562Y-109900500D01*
X213415989Y-109880021D01*
X213484511Y-109840460D01*
X213540460Y-109784511D01*
X214850373Y-108474597D01*
X214911694Y-108441114D01*
X214981386Y-108446098D01*
X215037319Y-108487970D01*
X215045439Y-108500279D01*
X215089511Y-108576613D01*
X215173387Y-108660489D01*
X215276114Y-108719799D01*
X215390691Y-108750500D01*
X215390694Y-108750500D01*
X215509306Y-108750500D01*
X215509309Y-108750500D01*
X215623886Y-108719799D01*
X215726613Y-108660489D01*
X215810489Y-108576613D01*
X215869799Y-108473886D01*
X215900500Y-108359309D01*
X215900500Y-108240691D01*
X215869799Y-108126114D01*
X215818059Y-108036499D01*
X215801587Y-107968601D01*
X215824439Y-107902574D01*
X215879360Y-107859383D01*
X215925447Y-107850500D01*
X223174167Y-107850500D01*
X223241206Y-107870185D01*
X223261848Y-107886819D01*
X224985489Y-109610460D01*
X225054012Y-109650022D01*
X225130438Y-109670500D01*
X225209562Y-109670500D01*
X229092024Y-109670500D01*
X229159063Y-109690185D01*
X229195126Y-109725609D01*
X229255885Y-109816541D01*
X229255888Y-109816545D01*
X229353454Y-109914111D01*
X229353458Y-109914114D01*
X229468182Y-109990771D01*
X229468195Y-109990778D01*
X229595667Y-110043578D01*
X229595672Y-110043580D01*
X229595676Y-110043580D01*
X229595677Y-110043581D01*
X229731004Y-110070500D01*
X229731007Y-110070500D01*
X229868995Y-110070500D01*
X229960041Y-110052389D01*
X230004328Y-110043580D01*
X230131811Y-109990775D01*
X230246542Y-109914114D01*
X230344114Y-109816542D01*
X230420775Y-109701811D01*
X230473580Y-109574328D01*
X230500500Y-109438993D01*
X230500500Y-109301007D01*
X230500500Y-109301004D01*
X230473581Y-109165677D01*
X230473580Y-109165676D01*
X230473580Y-109165672D01*
X230436691Y-109076613D01*
X230420778Y-109038195D01*
X230420771Y-109038182D01*
X230344114Y-108923458D01*
X230344111Y-108923454D01*
X230243338Y-108822681D01*
X230209853Y-108761358D01*
X230214837Y-108691666D01*
X230243338Y-108647319D01*
X230344111Y-108546545D01*
X230344114Y-108546542D01*
X230420775Y-108431811D01*
X230473580Y-108304328D01*
X230492246Y-108210488D01*
X230500500Y-108168995D01*
X230500500Y-108031004D01*
X230473581Y-107895677D01*
X230473580Y-107895676D01*
X230473580Y-107895672D01*
X230467172Y-107880201D01*
X230420778Y-107768195D01*
X230420771Y-107768182D01*
X230344114Y-107653458D01*
X230344111Y-107653454D01*
X230246545Y-107555888D01*
X230246537Y-107555882D01*
X230131813Y-107479226D01*
X230131812Y-107479225D01*
X230092902Y-107463108D01*
X230052675Y-107436228D01*
X229800001Y-107183553D01*
X229547322Y-107436230D01*
X229507097Y-107463108D01*
X229468185Y-107479226D01*
X229353462Y-107555882D01*
X229353454Y-107555888D01*
X229255888Y-107653454D01*
X229255885Y-107653458D01*
X229195126Y-107744391D01*
X229141514Y-107789196D01*
X229092024Y-107799500D01*
X225675833Y-107799500D01*
X225608794Y-107779815D01*
X225588152Y-107763181D01*
X224684512Y-106859541D01*
X224684511Y-106859540D01*
X224651863Y-106840691D01*
X224651863Y-106840690D01*
X224651858Y-106840688D01*
X224638204Y-106832804D01*
X224638202Y-106832804D01*
X224633345Y-106830000D01*
X224615989Y-106819979D01*
X224539562Y-106799500D01*
X215289562Y-106799500D01*
X215210438Y-106799500D01*
X215134010Y-106819978D01*
X215065489Y-106859540D01*
X215065486Y-106859542D01*
X213261848Y-108663181D01*
X213200525Y-108696666D01*
X213174167Y-108699500D01*
X206575833Y-108699500D01*
X206508794Y-108679815D01*
X206488152Y-108663181D01*
X204786819Y-106961848D01*
X204753334Y-106900525D01*
X204750500Y-106874167D01*
X204750500Y-106590691D01*
X209849500Y-106590691D01*
X209849500Y-106709309D01*
X209880201Y-106823886D01*
X209939511Y-106926613D01*
X210023387Y-107010489D01*
X210126114Y-107069799D01*
X210240691Y-107100500D01*
X210240694Y-107100500D01*
X210359306Y-107100500D01*
X210359309Y-107100500D01*
X210473886Y-107069799D01*
X210519465Y-107043483D01*
X210522467Y-107042755D01*
X210524706Y-107040623D01*
X210556192Y-107034572D01*
X210587362Y-107027010D01*
X210590284Y-107028021D01*
X210593320Y-107027438D01*
X210623078Y-107039370D01*
X210653390Y-107049861D01*
X210656165Y-107052638D01*
X210658170Y-107053442D01*
X210665965Y-107062443D01*
X210682512Y-107078999D01*
X210685916Y-107083785D01*
X210739511Y-107176613D01*
X210782562Y-107219664D01*
X210788583Y-107228129D01*
X210796736Y-107251729D01*
X210808702Y-107273642D01*
X210807948Y-107284180D01*
X210811399Y-107294168D01*
X210805499Y-107318429D01*
X210803718Y-107343334D01*
X210796840Y-107354035D01*
X210794889Y-107362059D01*
X210786625Y-107369929D01*
X210775217Y-107387681D01*
X210739513Y-107423384D01*
X210739511Y-107423387D01*
X210680201Y-107526114D01*
X210649500Y-107640691D01*
X210649500Y-107759309D01*
X210680201Y-107873886D01*
X210739511Y-107976613D01*
X210823387Y-108060489D01*
X210926114Y-108119799D01*
X211040691Y-108150500D01*
X211040694Y-108150500D01*
X211159306Y-108150500D01*
X211159309Y-108150500D01*
X211273886Y-108119799D01*
X211376613Y-108060489D01*
X211460489Y-107976613D01*
X211519799Y-107873886D01*
X211550500Y-107759309D01*
X211550500Y-107640691D01*
X211519799Y-107526114D01*
X211460489Y-107423387D01*
X211424783Y-107387681D01*
X211391298Y-107326358D01*
X211396282Y-107256666D01*
X211424783Y-107212319D01*
X211460489Y-107176613D01*
X211519799Y-107073886D01*
X211550500Y-106959309D01*
X211550500Y-106840691D01*
X211521243Y-106731504D01*
X228800000Y-106731504D01*
X228800000Y-106928495D01*
X228838427Y-107121681D01*
X228838430Y-107121693D01*
X228913808Y-107303673D01*
X228913809Y-107303675D01*
X228937425Y-107339019D01*
X229446446Y-106830000D01*
X229446446Y-106829999D01*
X229403660Y-106787213D01*
X229475000Y-106787213D01*
X229475000Y-106872787D01*
X229497149Y-106955445D01*
X229539936Y-107029554D01*
X229600446Y-107090064D01*
X229674555Y-107132851D01*
X229757213Y-107155000D01*
X229842787Y-107155000D01*
X229925445Y-107132851D01*
X229999554Y-107090064D01*
X230060064Y-107029554D01*
X230102851Y-106955445D01*
X230125000Y-106872787D01*
X230125000Y-106829999D01*
X230153553Y-106829999D01*
X230153553Y-106830001D01*
X230662572Y-107339020D01*
X230662573Y-107339019D01*
X230686187Y-107303680D01*
X230686190Y-107303676D01*
X230761569Y-107121693D01*
X230761572Y-107121681D01*
X230799999Y-106928495D01*
X230800000Y-106928492D01*
X230800000Y-106731508D01*
X230799999Y-106731504D01*
X230761572Y-106538318D01*
X230761569Y-106538306D01*
X230686192Y-106356328D01*
X230662571Y-106320978D01*
X230661330Y-106322220D01*
X230661328Y-106322224D01*
X230562226Y-106421327D01*
X230562225Y-106421327D01*
X230153553Y-106829999D01*
X230125000Y-106829999D01*
X230125000Y-106787213D01*
X230102851Y-106704555D01*
X230060064Y-106630446D01*
X229999554Y-106569936D01*
X229925445Y-106527149D01*
X229842787Y-106505000D01*
X229757213Y-106505000D01*
X229674555Y-106527149D01*
X229600446Y-106569936D01*
X229539936Y-106630446D01*
X229497149Y-106704555D01*
X229475000Y-106787213D01*
X229403660Y-106787213D01*
X229037774Y-106421326D01*
X228937426Y-106320978D01*
X228937426Y-106320979D01*
X228913813Y-106356318D01*
X228913809Y-106356325D01*
X228838429Y-106538310D01*
X228838427Y-106538318D01*
X228800000Y-106731504D01*
X211521243Y-106731504D01*
X211519799Y-106726114D01*
X211460489Y-106623387D01*
X211376613Y-106539511D01*
X211273886Y-106480201D01*
X211159309Y-106449500D01*
X211040691Y-106449500D01*
X210941374Y-106476112D01*
X210926110Y-106480202D01*
X210880534Y-106506516D01*
X210812634Y-106522989D01*
X210746607Y-106500136D01*
X210711147Y-106461129D01*
X210688167Y-106421327D01*
X210660489Y-106373387D01*
X210576613Y-106289511D01*
X210473886Y-106230201D01*
X210359309Y-106199500D01*
X210240691Y-106199500D01*
X210126114Y-106230201D01*
X210126112Y-106230201D01*
X210126112Y-106230202D01*
X210023387Y-106289511D01*
X210023384Y-106289513D01*
X209939513Y-106373384D01*
X209939511Y-106373387D01*
X209880201Y-106476114D01*
X209849500Y-106590691D01*
X204750500Y-106590691D01*
X204750500Y-105110439D01*
X204750500Y-105110438D01*
X204749469Y-105106590D01*
X204749549Y-105103219D01*
X204749439Y-105102381D01*
X204749569Y-105102363D01*
X204751134Y-105036740D01*
X204790298Y-104978879D01*
X204854528Y-104951376D01*
X204869245Y-104950500D01*
X206238594Y-104950500D01*
X206305633Y-104970185D01*
X206351388Y-105022989D01*
X206358366Y-105042399D01*
X206380201Y-105123886D01*
X206439511Y-105226613D01*
X206523387Y-105310489D01*
X206626114Y-105369799D01*
X206740691Y-105400500D01*
X206740694Y-105400500D01*
X206859306Y-105400500D01*
X206859309Y-105400500D01*
X206973886Y-105369799D01*
X207076613Y-105310489D01*
X207160489Y-105226613D01*
X207219799Y-105123886D01*
X207242210Y-105040247D01*
X229099500Y-105040247D01*
X229099500Y-106079752D01*
X229111131Y-106138229D01*
X229111132Y-106138230D01*
X229122670Y-106155498D01*
X229122671Y-106155499D01*
X229155448Y-106204552D01*
X229204500Y-106237328D01*
X229221768Y-106248867D01*
X229221770Y-106248868D01*
X229280247Y-106260499D01*
X229280250Y-106260500D01*
X229532692Y-106260500D01*
X229599731Y-106280185D01*
X229620373Y-106296819D01*
X229800000Y-106476446D01*
X229979627Y-106296819D01*
X230040950Y-106263334D01*
X230067308Y-106260500D01*
X230319750Y-106260500D01*
X230319751Y-106260499D01*
X230339418Y-106256587D01*
X230378228Y-106248868D01*
X230378228Y-106248867D01*
X230378231Y-106248867D01*
X230444552Y-106204552D01*
X230488867Y-106138231D01*
X230500500Y-106079748D01*
X230500500Y-105040252D01*
X230500500Y-105040249D01*
X230500499Y-105040247D01*
X230488868Y-104981770D01*
X230488867Y-104981769D01*
X230444552Y-104915447D01*
X230378230Y-104871132D01*
X230378229Y-104871131D01*
X230319752Y-104859500D01*
X230319748Y-104859500D01*
X229280252Y-104859500D01*
X229280247Y-104859500D01*
X229221770Y-104871131D01*
X229221769Y-104871132D01*
X229155447Y-104915447D01*
X229111132Y-104981769D01*
X229111131Y-104981770D01*
X229099500Y-105040247D01*
X207242210Y-105040247D01*
X207250500Y-105009309D01*
X207250500Y-104890691D01*
X207219799Y-104776114D01*
X207160489Y-104673387D01*
X207149783Y-104662681D01*
X207116298Y-104601358D01*
X207121282Y-104531666D01*
X207149783Y-104487319D01*
X207160489Y-104476613D01*
X207219799Y-104373886D01*
X207250500Y-104259309D01*
X207250500Y-104140691D01*
X207219799Y-104026114D01*
X207160489Y-103923387D01*
X207076613Y-103839511D01*
X206973886Y-103780201D01*
X206859309Y-103749500D01*
X206740691Y-103749500D01*
X206626114Y-103780201D01*
X206626112Y-103780201D01*
X206626112Y-103780202D01*
X206523387Y-103839511D01*
X206523384Y-103839513D01*
X206499717Y-103863181D01*
X206438394Y-103896666D01*
X206412036Y-103899500D01*
X204895833Y-103899500D01*
X204828794Y-103879815D01*
X204808152Y-103863181D01*
X199714514Y-98769542D01*
X199714511Y-98769540D01*
X199708359Y-98765988D01*
X199708359Y-98765987D01*
X199645989Y-98729979D01*
X199645990Y-98729979D01*
X199620513Y-98723152D01*
X199569562Y-98709500D01*
X199569560Y-98709500D01*
X196817964Y-98709500D01*
X196750925Y-98689815D01*
X196730283Y-98673181D01*
X196706615Y-98649513D01*
X196706613Y-98649511D01*
X196603886Y-98590201D01*
X196489309Y-98559500D01*
X196370691Y-98559500D01*
X196256114Y-98590201D01*
X196256112Y-98590201D01*
X196256112Y-98590202D01*
X196153387Y-98649511D01*
X196153384Y-98649513D01*
X196069513Y-98733384D01*
X196069511Y-98733387D01*
X196011127Y-98834511D01*
X196010201Y-98836114D01*
X195984273Y-98932874D01*
X195974243Y-98949330D01*
X195968815Y-98967818D01*
X195956437Y-98978543D01*
X195947910Y-98992533D01*
X195930573Y-99000954D01*
X195916011Y-99013573D01*
X195899798Y-99015904D01*
X195885063Y-99023062D01*
X195865928Y-99020774D01*
X195846853Y-99023517D01*
X195831951Y-99016711D01*
X195815687Y-99014767D01*
X195800827Y-99002497D01*
X195783297Y-98994492D01*
X195774441Y-98980711D01*
X195761809Y-98970282D01*
X195755940Y-98951924D01*
X195745523Y-98935714D01*
X195741242Y-98905943D01*
X195740535Y-98903730D01*
X195740500Y-98900779D01*
X195740500Y-98737964D01*
X195760185Y-98670925D01*
X195776819Y-98650283D01*
X195777591Y-98649511D01*
X195800489Y-98626613D01*
X195859799Y-98523886D01*
X195890500Y-98409309D01*
X195890500Y-98290691D01*
X195859799Y-98176114D01*
X195800489Y-98073387D01*
X195716613Y-97989511D01*
X195613886Y-97930201D01*
X195499309Y-97899500D01*
X195380691Y-97899500D01*
X195266114Y-97930201D01*
X195266112Y-97930201D01*
X195266112Y-97930202D01*
X195163387Y-97989511D01*
X195163384Y-97989513D01*
X195079513Y-98073384D01*
X195079511Y-98073387D01*
X195025755Y-98166495D01*
X195020201Y-98176114D01*
X194989500Y-98290691D01*
X189500500Y-98290691D01*
X189500500Y-96590691D01*
X190749500Y-96590691D01*
X190749500Y-96709309D01*
X190780201Y-96823886D01*
X190839511Y-96926613D01*
X190923387Y-97010489D01*
X191026114Y-97069799D01*
X191140691Y-97100500D01*
X191140694Y-97100500D01*
X191259306Y-97100500D01*
X191259309Y-97100500D01*
X191373886Y-97069799D01*
X191424302Y-97040691D01*
X203049500Y-97040691D01*
X203049500Y-97159309D01*
X203080201Y-97273886D01*
X203139511Y-97376613D01*
X203223387Y-97460489D01*
X203326114Y-97519799D01*
X203440691Y-97550500D01*
X203440694Y-97550500D01*
X203559306Y-97550500D01*
X203559309Y-97550500D01*
X203673886Y-97519799D01*
X203776613Y-97460489D01*
X203800283Y-97436819D01*
X203861606Y-97403334D01*
X203887964Y-97400500D01*
X206263036Y-97400500D01*
X206330075Y-97420185D01*
X206375830Y-97472989D01*
X206385774Y-97542147D01*
X206356749Y-97605703D01*
X206350717Y-97612181D01*
X206339513Y-97623384D01*
X206339511Y-97623387D01*
X206280201Y-97726114D01*
X206249500Y-97840691D01*
X206249500Y-97840693D01*
X206249500Y-97874167D01*
X206229815Y-97941206D01*
X206213181Y-97961848D01*
X206008541Y-98166487D01*
X206008535Y-98166495D01*
X205968982Y-98235004D01*
X205968979Y-98235009D01*
X205961613Y-98262500D01*
X205948500Y-98311438D01*
X205948500Y-100938562D01*
X205963491Y-100994509D01*
X205968978Y-101014986D01*
X205968980Y-101014992D01*
X205973824Y-101023380D01*
X205973826Y-101023388D01*
X205973828Y-101023387D01*
X206008539Y-101083509D01*
X206008541Y-101083512D01*
X206163181Y-101238152D01*
X206196666Y-101299475D01*
X206199500Y-101325833D01*
X206199500Y-101359309D01*
X206230201Y-101473886D01*
X206289511Y-101576613D01*
X206373387Y-101660489D01*
X206476114Y-101719799D01*
X206590691Y-101750500D01*
X206590694Y-101750500D01*
X206709306Y-101750500D01*
X206709309Y-101750500D01*
X206823886Y-101719799D01*
X206926613Y-101660489D01*
X207010489Y-101576613D01*
X207069799Y-101473886D01*
X207100500Y-101359309D01*
X207100500Y-101240691D01*
X207069799Y-101126114D01*
X207010489Y-101023387D01*
X206926613Y-100939511D01*
X206823886Y-100880201D01*
X206709309Y-100849500D01*
X206709306Y-100849500D01*
X206675833Y-100849500D01*
X206646392Y-100840855D01*
X206616406Y-100834332D01*
X206611390Y-100830577D01*
X206608794Y-100829815D01*
X206588152Y-100813181D01*
X206585819Y-100810848D01*
X206552334Y-100749525D01*
X206549500Y-100723167D01*
X206549500Y-98526833D01*
X206558144Y-98497392D01*
X206564668Y-98467406D01*
X206568422Y-98462390D01*
X206569185Y-98459794D01*
X206585819Y-98439152D01*
X206612319Y-98412652D01*
X206673642Y-98379167D01*
X206743334Y-98384151D01*
X206787681Y-98412652D01*
X207209540Y-98834511D01*
X207265489Y-98890460D01*
X207265491Y-98890461D01*
X207265495Y-98890464D01*
X207334004Y-98930017D01*
X207334011Y-98930021D01*
X207410438Y-98950500D01*
X207489562Y-98950500D01*
X216012036Y-98950500D01*
X216079075Y-98970185D01*
X216099717Y-98986819D01*
X216123387Y-99010489D01*
X216226114Y-99069799D01*
X216340691Y-99100500D01*
X216340694Y-99100500D01*
X216459306Y-99100500D01*
X216459309Y-99100500D01*
X216573886Y-99069799D01*
X216676613Y-99010489D01*
X216760489Y-98926613D01*
X216819799Y-98823886D01*
X216850500Y-98709309D01*
X216850500Y-98590691D01*
X216819799Y-98476114D01*
X216803856Y-98448501D01*
X216787383Y-98380602D01*
X216810235Y-98314574D01*
X216865155Y-98271383D01*
X216911243Y-98262500D01*
X228158285Y-98262500D01*
X228225324Y-98282185D01*
X228271079Y-98334989D01*
X228281023Y-98404147D01*
X228268769Y-98442795D01*
X228248907Y-98481775D01*
X228248905Y-98481779D01*
X228183242Y-98683869D01*
X228183242Y-98683872D01*
X228150000Y-98893753D01*
X228150000Y-99106246D01*
X228183242Y-99316127D01*
X228183242Y-99316130D01*
X228248904Y-99518217D01*
X228345375Y-99707550D01*
X228384728Y-99761716D01*
X229017037Y-99129408D01*
X229034075Y-99192993D01*
X229099901Y-99307007D01*
X229192993Y-99400099D01*
X229307007Y-99465925D01*
X229370590Y-99482962D01*
X228738282Y-100115269D01*
X228738282Y-100115270D01*
X228792449Y-100154624D01*
X228986121Y-100253306D01*
X228985603Y-100254321D01*
X229035808Y-100294779D01*
X229057873Y-100361073D01*
X229040594Y-100428772D01*
X228989458Y-100476383D01*
X228933952Y-100489500D01*
X228630247Y-100489500D01*
X228571770Y-100501131D01*
X228571769Y-100501132D01*
X228505447Y-100545447D01*
X228461132Y-100611769D01*
X228461131Y-100611770D01*
X228449500Y-100670247D01*
X228449500Y-102409752D01*
X228461131Y-102468229D01*
X228461132Y-102468230D01*
X228505447Y-102534552D01*
X228571769Y-102578867D01*
X228571770Y-102578868D01*
X228630247Y-102590499D01*
X228630250Y-102590500D01*
X228630252Y-102590500D01*
X230369750Y-102590500D01*
X230369751Y-102590499D01*
X230384568Y-102587552D01*
X230428229Y-102578868D01*
X230428229Y-102578867D01*
X230428231Y-102578867D01*
X230494552Y-102534552D01*
X230538867Y-102468231D01*
X230538867Y-102468229D01*
X230538868Y-102468229D01*
X230549552Y-102414513D01*
X230550500Y-102409748D01*
X230550500Y-100670252D01*
X230550500Y-100670249D01*
X230550499Y-100670247D01*
X230538868Y-100611770D01*
X230538867Y-100611769D01*
X230494552Y-100545447D01*
X230428230Y-100501132D01*
X230428229Y-100501131D01*
X230369752Y-100489500D01*
X230369748Y-100489500D01*
X230066048Y-100489500D01*
X229999009Y-100469815D01*
X229953254Y-100417011D01*
X229943310Y-100347853D01*
X229972335Y-100284297D01*
X230014264Y-100254061D01*
X230013879Y-100253306D01*
X230207554Y-100154622D01*
X230261716Y-100115270D01*
X230261717Y-100115270D01*
X229629408Y-99482962D01*
X229692993Y-99465925D01*
X229807007Y-99400099D01*
X229900099Y-99307007D01*
X229965925Y-99192993D01*
X229982962Y-99129408D01*
X230615270Y-99761717D01*
X230615270Y-99761716D01*
X230654622Y-99707554D01*
X230751095Y-99518217D01*
X230816757Y-99316130D01*
X230816757Y-99316127D01*
X230850000Y-99106246D01*
X230850000Y-98893753D01*
X230816757Y-98683872D01*
X230816757Y-98683869D01*
X230751095Y-98481782D01*
X230654624Y-98292449D01*
X230615270Y-98238282D01*
X230615269Y-98238282D01*
X229982962Y-98870590D01*
X229965925Y-98807007D01*
X229900099Y-98692993D01*
X229807007Y-98599901D01*
X229692993Y-98534075D01*
X229629408Y-98517037D01*
X230261716Y-97884728D01*
X230259716Y-97859322D01*
X230259065Y-97858477D01*
X230253081Y-97788864D01*
X230285682Y-97727066D01*
X230286932Y-97725799D01*
X231502245Y-96510486D01*
X232740460Y-95272271D01*
X232766820Y-95226614D01*
X232780021Y-95203749D01*
X232800500Y-95127322D01*
X232800500Y-91433050D01*
X232820185Y-91366011D01*
X232867507Y-91325006D01*
X232866847Y-91323863D01*
X232872778Y-91320438D01*
X232872989Y-91320256D01*
X232873417Y-91320069D01*
X232873883Y-91319799D01*
X232873886Y-91319799D01*
X232976613Y-91260489D01*
X233060489Y-91176613D01*
X233119799Y-91073886D01*
X233150500Y-90959309D01*
X233150500Y-90840691D01*
X233119799Y-90726114D01*
X233060489Y-90623387D01*
X232976613Y-90539511D01*
X232873886Y-90480201D01*
X232759309Y-90449500D01*
X232640691Y-90449500D01*
X232526114Y-90480201D01*
X232526112Y-90480201D01*
X232526112Y-90480202D01*
X232423387Y-90539511D01*
X232423384Y-90539513D01*
X232339513Y-90623384D01*
X232339511Y-90623387D01*
X232287520Y-90713438D01*
X232280201Y-90726114D01*
X232249500Y-90840691D01*
X232249500Y-90840693D01*
X232249500Y-90899652D01*
X232232889Y-90961649D01*
X232219980Y-90984008D01*
X232219979Y-90984009D01*
X232199500Y-91060439D01*
X232199500Y-94911926D01*
X232179815Y-94978965D01*
X232163181Y-94999607D01*
X230756972Y-96405815D01*
X230695649Y-96439300D01*
X230625957Y-96434316D01*
X230570024Y-96392444D01*
X230547674Y-96342325D01*
X230521215Y-96209309D01*
X230510130Y-96153580D01*
X230460194Y-96033026D01*
X230452726Y-95963559D01*
X230484001Y-95901080D01*
X230487044Y-95897926D01*
X230891460Y-95493511D01*
X230916656Y-95449870D01*
X230931021Y-95424989D01*
X230951500Y-95348562D01*
X230951500Y-79791438D01*
X230931021Y-79715011D01*
X230916656Y-79690130D01*
X230891464Y-79646495D01*
X230891458Y-79646487D01*
X230487075Y-79242104D01*
X230453590Y-79180781D01*
X230458574Y-79111089D01*
X230460163Y-79107049D01*
X230510130Y-78986420D01*
X230550500Y-78783465D01*
X230550500Y-78576535D01*
X230510130Y-78373580D01*
X230430941Y-78182402D01*
X230315977Y-78010345D01*
X230315975Y-78010342D01*
X230169657Y-77864024D01*
X230117297Y-77829039D01*
X230026845Y-77768601D01*
X229982041Y-77714991D01*
X229973334Y-77645666D01*
X230003488Y-77582638D01*
X230062931Y-77545918D01*
X230095737Y-77541500D01*
X231007272Y-77541500D01*
X231069273Y-77558113D01*
X231073385Y-77560487D01*
X231073387Y-77560489D01*
X231176114Y-77619799D01*
X231290691Y-77650500D01*
X231290694Y-77650500D01*
X231409306Y-77650500D01*
X231409309Y-77650500D01*
X231523886Y-77619799D01*
X231626613Y-77560489D01*
X231710489Y-77476613D01*
X231769799Y-77373886D01*
X231800500Y-77259309D01*
X231800500Y-77140691D01*
X231769799Y-77026114D01*
X231710489Y-76923387D01*
X231626613Y-76839511D01*
X231523886Y-76780201D01*
X231409309Y-76749500D01*
X231290691Y-76749500D01*
X231176114Y-76780201D01*
X231176112Y-76780201D01*
X231176112Y-76780202D01*
X231073387Y-76839511D01*
X231073384Y-76839513D01*
X231008717Y-76904181D01*
X230947394Y-76937666D01*
X230921036Y-76940500D01*
X230460537Y-76940500D01*
X230393498Y-76920815D01*
X230347743Y-76868011D01*
X230337799Y-76798853D01*
X230357434Y-76747610D01*
X230364816Y-76736561D01*
X230430941Y-76637598D01*
X230510130Y-76446420D01*
X230550500Y-76243465D01*
X230550500Y-76036535D01*
X230510130Y-75833580D01*
X230430941Y-75642402D01*
X230315977Y-75470345D01*
X230315975Y-75470342D01*
X230169657Y-75324024D01*
X230035555Y-75234421D01*
X229997598Y-75209059D01*
X229988880Y-75205448D01*
X229806420Y-75129870D01*
X229806412Y-75129868D01*
X229603469Y-75089500D01*
X229603465Y-75089500D01*
X229396535Y-75089500D01*
X229396530Y-75089500D01*
X229193587Y-75129868D01*
X229193579Y-75129870D01*
X229002403Y-75209058D01*
X228830342Y-75324024D01*
X228684024Y-75470342D01*
X228569058Y-75642403D01*
X228489870Y-75833579D01*
X228489868Y-75833587D01*
X228449500Y-76036530D01*
X228449500Y-76243469D01*
X228489868Y-76446412D01*
X228489870Y-76446420D01*
X228569058Y-76637596D01*
X228642566Y-76747610D01*
X228663443Y-76814287D01*
X228644958Y-76881667D01*
X228592979Y-76928357D01*
X228539463Y-76940500D01*
X226731678Y-76940500D01*
X226693464Y-76950739D01*
X226655249Y-76960979D01*
X226655248Y-76960980D01*
X226586890Y-77000446D01*
X226586798Y-77000500D01*
X226586729Y-77000540D01*
X226586726Y-77000542D01*
X217809541Y-85777727D01*
X217809535Y-85777735D01*
X217769982Y-85846244D01*
X217769979Y-85846249D01*
X217765651Y-85862402D01*
X217750593Y-85918601D01*
X217749500Y-85922679D01*
X217749500Y-93474167D01*
X217729815Y-93541206D01*
X217713181Y-93561848D01*
X214050848Y-97224181D01*
X213989525Y-97257666D01*
X213963167Y-97260500D01*
X208236827Y-97260500D01*
X208169788Y-97240815D01*
X208149146Y-97224181D01*
X207286819Y-96361854D01*
X207253334Y-96300531D01*
X207250500Y-96274173D01*
X207250500Y-96240699D01*
X207250500Y-96240697D01*
X207219799Y-96126120D01*
X207160489Y-96023393D01*
X207076613Y-95939517D01*
X206973886Y-95880207D01*
X206859309Y-95849506D01*
X206740691Y-95849506D01*
X206626114Y-95880207D01*
X206626112Y-95880207D01*
X206626112Y-95880208D01*
X206523387Y-95939517D01*
X206523384Y-95939519D01*
X206439513Y-96023390D01*
X206439511Y-96023393D01*
X206380201Y-96126120D01*
X206349500Y-96240697D01*
X206349500Y-96359315D01*
X206380201Y-96473892D01*
X206439511Y-96576619D01*
X206439513Y-96576621D01*
X206450711Y-96587819D01*
X206484196Y-96649142D01*
X206479212Y-96718834D01*
X206437340Y-96774767D01*
X206371876Y-96799184D01*
X206363030Y-96799500D01*
X203887964Y-96799500D01*
X203820925Y-96779815D01*
X203800283Y-96763181D01*
X203776615Y-96739513D01*
X203776613Y-96739511D01*
X203673886Y-96680201D01*
X203559309Y-96649500D01*
X203440691Y-96649500D01*
X203326114Y-96680201D01*
X203326112Y-96680201D01*
X203326112Y-96680202D01*
X203223387Y-96739511D01*
X203223384Y-96739513D01*
X203139513Y-96823384D01*
X203139511Y-96823387D01*
X203080201Y-96926114D01*
X203049500Y-97040691D01*
X191424302Y-97040691D01*
X191476613Y-97010489D01*
X191560489Y-96926613D01*
X191619799Y-96823886D01*
X191650500Y-96709309D01*
X191650500Y-96675833D01*
X191670185Y-96608794D01*
X191686819Y-96588152D01*
X193788152Y-94486819D01*
X193849475Y-94453334D01*
X193875833Y-94450500D01*
X196312036Y-94450500D01*
X196379075Y-94470185D01*
X196399717Y-94486819D01*
X196423387Y-94510489D01*
X196526114Y-94569799D01*
X196640691Y-94600500D01*
X196640694Y-94600500D01*
X196759306Y-94600500D01*
X196759309Y-94600500D01*
X196873886Y-94569799D01*
X196976613Y-94510489D01*
X197060489Y-94426613D01*
X197119799Y-94323886D01*
X197150500Y-94209309D01*
X197150500Y-94090691D01*
X197119799Y-93976114D01*
X197060489Y-93873387D01*
X197035358Y-93848256D01*
X197033979Y-93846783D01*
X197019133Y-93817328D01*
X197015509Y-93810691D01*
X198219500Y-93810691D01*
X198219500Y-93929309D01*
X198250201Y-94043886D01*
X198309511Y-94146613D01*
X198393387Y-94230489D01*
X198496114Y-94289799D01*
X198610691Y-94320500D01*
X198610694Y-94320500D01*
X198729306Y-94320500D01*
X198729309Y-94320500D01*
X198843886Y-94289799D01*
X198946613Y-94230489D01*
X198970283Y-94206819D01*
X199031606Y-94173334D01*
X199057964Y-94170500D01*
X206375500Y-94170500D01*
X206384185Y-94173050D01*
X206393147Y-94171762D01*
X206417187Y-94182740D01*
X206442539Y-94190185D01*
X206448466Y-94197025D01*
X206456703Y-94200787D01*
X206470992Y-94223021D01*
X206488294Y-94242989D01*
X206490581Y-94253503D01*
X206494477Y-94259565D01*
X206499500Y-94294500D01*
X206499500Y-94512036D01*
X206479815Y-94579075D01*
X206463181Y-94599717D01*
X206439513Y-94623384D01*
X206439511Y-94623387D01*
X206380201Y-94726114D01*
X206349500Y-94840691D01*
X206349500Y-94959309D01*
X206380201Y-95073886D01*
X206439511Y-95176613D01*
X206523387Y-95260489D01*
X206626114Y-95319799D01*
X206740691Y-95350500D01*
X206740694Y-95350500D01*
X206859306Y-95350500D01*
X206859309Y-95350500D01*
X206973886Y-95319799D01*
X207076613Y-95260489D01*
X207160489Y-95176613D01*
X207219799Y-95073886D01*
X207250500Y-94959309D01*
X207250500Y-94840691D01*
X207219799Y-94726114D01*
X207160489Y-94623387D01*
X207136819Y-94599717D01*
X207122115Y-94572789D01*
X207105523Y-94546971D01*
X207104631Y-94540770D01*
X207103334Y-94538394D01*
X207100500Y-94512036D01*
X207100500Y-94294500D01*
X207120185Y-94227461D01*
X207172989Y-94181706D01*
X207224500Y-94170500D01*
X208624167Y-94170500D01*
X208691206Y-94190185D01*
X208711848Y-94206819D01*
X209902848Y-95397819D01*
X209936333Y-95459142D01*
X209931349Y-95528834D01*
X209889477Y-95584767D01*
X209824013Y-95609184D01*
X209815167Y-95609500D01*
X209809309Y-95609500D01*
X209690691Y-95609500D01*
X209576114Y-95640201D01*
X209576112Y-95640201D01*
X209576112Y-95640202D01*
X209473387Y-95699511D01*
X209473384Y-95699513D01*
X209389513Y-95783384D01*
X209389511Y-95783387D01*
X209334374Y-95878887D01*
X209330201Y-95886114D01*
X209299500Y-96000691D01*
X209299500Y-96119309D01*
X209330201Y-96233886D01*
X209389511Y-96336613D01*
X209473387Y-96420489D01*
X209576114Y-96479799D01*
X209690691Y-96510500D01*
X209690694Y-96510500D01*
X209809306Y-96510500D01*
X209809309Y-96510500D01*
X209923886Y-96479799D01*
X210026613Y-96420489D01*
X210110489Y-96336613D01*
X210169799Y-96233886D01*
X210200500Y-96119309D01*
X210200500Y-96000691D01*
X210200500Y-95994833D01*
X210206738Y-95973587D01*
X210208318Y-95951499D01*
X210216390Y-95940715D01*
X210220185Y-95927794D01*
X210236918Y-95913294D01*
X210250190Y-95895566D01*
X210262810Y-95890858D01*
X210272989Y-95882039D01*
X210294906Y-95878887D01*
X210315654Y-95871149D01*
X210328814Y-95874011D01*
X210342147Y-95872095D01*
X210362290Y-95881294D01*
X210383927Y-95886001D01*
X210401652Y-95899269D01*
X210405703Y-95901120D01*
X210412181Y-95907152D01*
X210543181Y-96038152D01*
X210576666Y-96099475D01*
X210579500Y-96125833D01*
X210579500Y-96159309D01*
X210610201Y-96273886D01*
X210669511Y-96376613D01*
X210753387Y-96460489D01*
X210856114Y-96519799D01*
X210970691Y-96550500D01*
X210970694Y-96550500D01*
X211089306Y-96550500D01*
X211089309Y-96550500D01*
X211203886Y-96519799D01*
X211306613Y-96460489D01*
X211390489Y-96376613D01*
X211449799Y-96273886D01*
X211480500Y-96159309D01*
X211480500Y-96090691D01*
X212699500Y-96090691D01*
X212699500Y-96209309D01*
X212730201Y-96323886D01*
X212789511Y-96426613D01*
X212873387Y-96510489D01*
X212976114Y-96569799D01*
X213090691Y-96600500D01*
X213090694Y-96600500D01*
X213209306Y-96600500D01*
X213209309Y-96600500D01*
X213323886Y-96569799D01*
X213426613Y-96510489D01*
X213510489Y-96426613D01*
X213569799Y-96323886D01*
X213600500Y-96209309D01*
X213600500Y-96090691D01*
X213569799Y-95976114D01*
X213510489Y-95873387D01*
X213426613Y-95789511D01*
X213323886Y-95730201D01*
X213209309Y-95699500D01*
X213090691Y-95699500D01*
X212976114Y-95730201D01*
X212976112Y-95730201D01*
X212976112Y-95730202D01*
X212873387Y-95789511D01*
X212873384Y-95789513D01*
X212789513Y-95873384D01*
X212789511Y-95873387D01*
X212744413Y-95951499D01*
X212730201Y-95976114D01*
X212699500Y-96090691D01*
X211480500Y-96090691D01*
X211480500Y-96040691D01*
X211449799Y-95926114D01*
X211390489Y-95823387D01*
X211306613Y-95739511D01*
X211203886Y-95680201D01*
X211089309Y-95649500D01*
X211089306Y-95649500D01*
X211055833Y-95649500D01*
X210988794Y-95629815D01*
X210968152Y-95613181D01*
X208984512Y-93629541D01*
X208984511Y-93629540D01*
X208951425Y-93610438D01*
X208951423Y-93610437D01*
X208951422Y-93610435D01*
X208915994Y-93589981D01*
X208915991Y-93589979D01*
X208877775Y-93579739D01*
X208839562Y-93569500D01*
X208839560Y-93569500D01*
X199057964Y-93569500D01*
X198990925Y-93549815D01*
X198970283Y-93533181D01*
X198946615Y-93509513D01*
X198946613Y-93509511D01*
X198843886Y-93450201D01*
X198729309Y-93419500D01*
X198610691Y-93419500D01*
X198496114Y-93450201D01*
X198496112Y-93450201D01*
X198496112Y-93450202D01*
X198393387Y-93509511D01*
X198393384Y-93509513D01*
X198309513Y-93593384D01*
X198309511Y-93593387D01*
X198299667Y-93610438D01*
X198250201Y-93696114D01*
X198219500Y-93810691D01*
X197015509Y-93810691D01*
X197003334Y-93788394D01*
X197003004Y-93785326D01*
X197002532Y-93784390D01*
X197002715Y-93782639D01*
X197000500Y-93762036D01*
X197000500Y-91940691D01*
X207449500Y-91940691D01*
X207449500Y-92059309D01*
X207480201Y-92173886D01*
X207539511Y-92276613D01*
X207623387Y-92360489D01*
X207726114Y-92419799D01*
X207840691Y-92450500D01*
X207840694Y-92450500D01*
X207959306Y-92450500D01*
X207959309Y-92450500D01*
X208073886Y-92419799D01*
X208176613Y-92360489D01*
X208260489Y-92276613D01*
X208319799Y-92173886D01*
X208350500Y-92059309D01*
X208350500Y-91940691D01*
X208319799Y-91826114D01*
X208260489Y-91723387D01*
X208176613Y-91639511D01*
X208073886Y-91580201D01*
X207959309Y-91549500D01*
X207840691Y-91549500D01*
X207726114Y-91580201D01*
X207726112Y-91580201D01*
X207726112Y-91580202D01*
X207623387Y-91639511D01*
X207623384Y-91639513D01*
X207539513Y-91723384D01*
X207539511Y-91723387D01*
X207480201Y-91826114D01*
X207449500Y-91940691D01*
X197000500Y-91940691D01*
X197000500Y-89540691D01*
X207509500Y-89540691D01*
X207509500Y-89659309D01*
X207540201Y-89773886D01*
X207599511Y-89876613D01*
X207683387Y-89960489D01*
X207786114Y-90019799D01*
X207900691Y-90050500D01*
X207900694Y-90050500D01*
X208019306Y-90050500D01*
X208019309Y-90050500D01*
X208133886Y-90019799D01*
X208236613Y-89960489D01*
X208320489Y-89876613D01*
X208379799Y-89773886D01*
X208410500Y-89659309D01*
X208410500Y-89540691D01*
X208379799Y-89426114D01*
X208320489Y-89323387D01*
X208236613Y-89239511D01*
X208133886Y-89180201D01*
X208019309Y-89149500D01*
X207900691Y-89149500D01*
X207786114Y-89180201D01*
X207786112Y-89180201D01*
X207786112Y-89180202D01*
X207683387Y-89239511D01*
X207683384Y-89239513D01*
X207599513Y-89323384D01*
X207599511Y-89323387D01*
X207540201Y-89426114D01*
X207509500Y-89540691D01*
X197000500Y-89540691D01*
X197000500Y-87025833D01*
X197020185Y-86958794D01*
X197036819Y-86938152D01*
X198138152Y-85836819D01*
X198199475Y-85803334D01*
X198225833Y-85800500D01*
X201225167Y-85800500D01*
X201292206Y-85820185D01*
X201337961Y-85872989D01*
X201347905Y-85942147D01*
X201318880Y-86005703D01*
X201312848Y-86012181D01*
X199561848Y-87763181D01*
X199500525Y-87796666D01*
X199474167Y-87799500D01*
X199440691Y-87799500D01*
X199326114Y-87830201D01*
X199326112Y-87830201D01*
X199326112Y-87830202D01*
X199223387Y-87889511D01*
X199223384Y-87889513D01*
X199139513Y-87973384D01*
X199139511Y-87973387D01*
X199087173Y-88064039D01*
X199080201Y-88076114D01*
X199049500Y-88190691D01*
X199049500Y-88309309D01*
X199080201Y-88423886D01*
X199139511Y-88526613D01*
X199223387Y-88610489D01*
X199326114Y-88669799D01*
X199440691Y-88700500D01*
X199440694Y-88700500D01*
X199559306Y-88700500D01*
X199559309Y-88700500D01*
X199673886Y-88669799D01*
X199776613Y-88610489D01*
X199860489Y-88526613D01*
X199919799Y-88423886D01*
X199928694Y-88390691D01*
X202149500Y-88390691D01*
X202149500Y-88509309D01*
X202180201Y-88623886D01*
X202239511Y-88726613D01*
X202323387Y-88810489D01*
X202426114Y-88869799D01*
X202540691Y-88900500D01*
X202540694Y-88900500D01*
X202659306Y-88900500D01*
X202659309Y-88900500D01*
X202773886Y-88869799D01*
X202876613Y-88810489D01*
X202960489Y-88726613D01*
X203019799Y-88623886D01*
X203050500Y-88509309D01*
X203050500Y-88390691D01*
X203019799Y-88276114D01*
X202960489Y-88173387D01*
X202876613Y-88089511D01*
X202773886Y-88030201D01*
X202659309Y-87999500D01*
X202540691Y-87999500D01*
X202426114Y-88030201D01*
X202426112Y-88030201D01*
X202426112Y-88030202D01*
X202323387Y-88089511D01*
X202323384Y-88089513D01*
X202239513Y-88173384D01*
X202239511Y-88173387D01*
X202201059Y-88239988D01*
X202180201Y-88276114D01*
X202149500Y-88390691D01*
X199928694Y-88390691D01*
X199950500Y-88309309D01*
X199950500Y-88267019D01*
X199951748Y-88258288D01*
X199962725Y-88234196D01*
X199970185Y-88208794D01*
X199979658Y-88197038D01*
X199980720Y-88194708D01*
X199982415Y-88193616D01*
X199986819Y-88188152D01*
X201588152Y-86586819D01*
X201649475Y-86553334D01*
X201675833Y-86550500D01*
X202212036Y-86550500D01*
X202279075Y-86570185D01*
X202299717Y-86586819D01*
X202323387Y-86610489D01*
X202426114Y-86669799D01*
X202540691Y-86700500D01*
X202540694Y-86700500D01*
X202659306Y-86700500D01*
X202659309Y-86700500D01*
X202773886Y-86669799D01*
X202876613Y-86610489D01*
X202960489Y-86526613D01*
X203019799Y-86423886D01*
X203050500Y-86309309D01*
X203050500Y-86190691D01*
X203019799Y-86076114D01*
X202968059Y-85986499D01*
X202951587Y-85918601D01*
X202974439Y-85852574D01*
X203029360Y-85809383D01*
X203075447Y-85800500D01*
X204074167Y-85800500D01*
X204141206Y-85820185D01*
X204161848Y-85836819D01*
X205884540Y-87559511D01*
X205940489Y-87615460D01*
X205940491Y-87615461D01*
X205940495Y-87615464D01*
X206009004Y-87655017D01*
X206009011Y-87655021D01*
X206085438Y-87675500D01*
X215537036Y-87675500D01*
X215604075Y-87695185D01*
X215624717Y-87711819D01*
X215648387Y-87735489D01*
X215751114Y-87794799D01*
X215865691Y-87825500D01*
X215865694Y-87825500D01*
X215984300Y-87825500D01*
X215984309Y-87825500D01*
X215984317Y-87825497D01*
X215985142Y-87825389D01*
X215985854Y-87825500D01*
X215992436Y-87825500D01*
X215992436Y-87826525D01*
X216014771Y-87830006D01*
X216044672Y-87832145D01*
X216048926Y-87835329D01*
X216054178Y-87836148D01*
X216076604Y-87856048D01*
X216100606Y-87874016D01*
X216102463Y-87878996D01*
X216106438Y-87882523D01*
X216114543Y-87911383D01*
X216125023Y-87939480D01*
X216123893Y-87944673D01*
X216125330Y-87949790D01*
X216116543Y-87978457D01*
X216110171Y-88007753D01*
X216105758Y-88013647D01*
X216104856Y-88016593D01*
X216089021Y-88036008D01*
X215986846Y-88138182D01*
X215925526Y-88171666D01*
X215899167Y-88174500D01*
X215865691Y-88174500D01*
X215751114Y-88205201D01*
X215751112Y-88205201D01*
X215751112Y-88205202D01*
X215648387Y-88264511D01*
X215648384Y-88264513D01*
X215564513Y-88348384D01*
X215564511Y-88348387D01*
X215533325Y-88402403D01*
X215505201Y-88451114D01*
X215474500Y-88565691D01*
X215474500Y-88684309D01*
X215505201Y-88798886D01*
X215564511Y-88901613D01*
X215648387Y-88985489D01*
X215751114Y-89044799D01*
X215865691Y-89075500D01*
X215865694Y-89075500D01*
X215984306Y-89075500D01*
X215984309Y-89075500D01*
X216098886Y-89044799D01*
X216201613Y-88985489D01*
X216285489Y-88901613D01*
X216344799Y-88798886D01*
X216375500Y-88684309D01*
X216375500Y-88650833D01*
X216395185Y-88583794D01*
X216411819Y-88563152D01*
X216523859Y-88451112D01*
X216666460Y-88308511D01*
X216685164Y-88276114D01*
X216691863Y-88264512D01*
X216695949Y-88257433D01*
X216706021Y-88239989D01*
X216726500Y-88163562D01*
X216726500Y-87127917D01*
X216706022Y-87051491D01*
X216666460Y-86982968D01*
X216243032Y-86559540D01*
X216243030Y-86559539D01*
X216243025Y-86559535D01*
X216186000Y-86526612D01*
X216185999Y-86526612D01*
X216174511Y-86519979D01*
X216149034Y-86513152D01*
X216098083Y-86499500D01*
X216098081Y-86499500D01*
X206272222Y-86499500D01*
X206205183Y-86479815D01*
X206184541Y-86463181D01*
X204580901Y-84859541D01*
X204580896Y-84859537D01*
X204554005Y-84844012D01*
X204537548Y-84834511D01*
X204537546Y-84834509D01*
X204537546Y-84834510D01*
X204537544Y-84834509D01*
X204529958Y-84830129D01*
X204512379Y-84819979D01*
X204512380Y-84819979D01*
X204474164Y-84809739D01*
X204435951Y-84799500D01*
X204435949Y-84799500D01*
X197543833Y-84799500D01*
X197476794Y-84779815D01*
X197456152Y-84763181D01*
X195208662Y-82515691D01*
X202324500Y-82515691D01*
X202324500Y-82634309D01*
X202355201Y-82748886D01*
X202414511Y-82851613D01*
X202498387Y-82935489D01*
X202601114Y-82994799D01*
X202715691Y-83025500D01*
X202715694Y-83025500D01*
X202834306Y-83025500D01*
X202834309Y-83025500D01*
X202948886Y-82994799D01*
X203051613Y-82935489D01*
X203135489Y-82851613D01*
X203194799Y-82748886D01*
X203225500Y-82634309D01*
X203225500Y-82600833D01*
X203234144Y-82571392D01*
X203240668Y-82541406D01*
X203244422Y-82536390D01*
X203245185Y-82533794D01*
X203261819Y-82513152D01*
X203361819Y-82413152D01*
X203423142Y-82379667D01*
X203492834Y-82384651D01*
X203548767Y-82426523D01*
X203573184Y-82491987D01*
X203573500Y-82500833D01*
X203573500Y-83813562D01*
X203593979Y-83889989D01*
X203595275Y-83894824D01*
X203599500Y-83926918D01*
X203599500Y-84009309D01*
X203630201Y-84123886D01*
X203689511Y-84226613D01*
X203773387Y-84310489D01*
X203876114Y-84369799D01*
X203990691Y-84400500D01*
X203990694Y-84400500D01*
X204109306Y-84400500D01*
X204109309Y-84400500D01*
X204223886Y-84369799D01*
X204326613Y-84310489D01*
X204410489Y-84226613D01*
X204469799Y-84123886D01*
X204500500Y-84009309D01*
X204500500Y-83990691D01*
X217649500Y-83990691D01*
X217649500Y-84109309D01*
X217680201Y-84223886D01*
X217739511Y-84326613D01*
X217823387Y-84410489D01*
X217926114Y-84469799D01*
X218040691Y-84500500D01*
X218040694Y-84500500D01*
X218159306Y-84500500D01*
X218159309Y-84500500D01*
X218273886Y-84469799D01*
X218376613Y-84410489D01*
X218460489Y-84326613D01*
X218519799Y-84223886D01*
X218550500Y-84109309D01*
X218550500Y-83990691D01*
X218519799Y-83876114D01*
X218460489Y-83773387D01*
X218376613Y-83689511D01*
X218273886Y-83630201D01*
X218159309Y-83599500D01*
X218040691Y-83599500D01*
X217926114Y-83630201D01*
X217926112Y-83630201D01*
X217926112Y-83630202D01*
X217823387Y-83689511D01*
X217823384Y-83689513D01*
X217739513Y-83773384D01*
X217739511Y-83773387D01*
X217680201Y-83876114D01*
X217649500Y-83990691D01*
X204500500Y-83990691D01*
X204500500Y-83890691D01*
X204469799Y-83776114D01*
X204410489Y-83673387D01*
X204326613Y-83589511D01*
X204236499Y-83537483D01*
X204188284Y-83486917D01*
X204174500Y-83430097D01*
X204174500Y-83148306D01*
X204194185Y-83081267D01*
X204246989Y-83035512D01*
X204307564Y-83026436D01*
X204307564Y-83025500D01*
X204313814Y-83025500D01*
X204314695Y-83025368D01*
X204315685Y-83025498D01*
X204315691Y-83025500D01*
X204315697Y-83025500D01*
X204434306Y-83025500D01*
X204434309Y-83025500D01*
X204548886Y-82994799D01*
X204651613Y-82935489D01*
X204735489Y-82851613D01*
X204787330Y-82761821D01*
X204837898Y-82713607D01*
X204906505Y-82700385D01*
X204971369Y-82726353D01*
X205002102Y-82761820D01*
X205039511Y-82826613D01*
X205123387Y-82910489D01*
X205226114Y-82969799D01*
X205340691Y-83000500D01*
X205340694Y-83000500D01*
X205459306Y-83000500D01*
X205459309Y-83000500D01*
X205573886Y-82969799D01*
X205676613Y-82910489D01*
X205712319Y-82874783D01*
X205773642Y-82841298D01*
X205843334Y-82846282D01*
X205887681Y-82874783D01*
X205923387Y-82910489D01*
X206026114Y-82969799D01*
X206140691Y-83000500D01*
X206140694Y-83000500D01*
X206259306Y-83000500D01*
X206259309Y-83000500D01*
X206373886Y-82969799D01*
X206476613Y-82910489D01*
X206500283Y-82886819D01*
X206561606Y-82853334D01*
X206587964Y-82850500D01*
X208689560Y-82850500D01*
X208689562Y-82850500D01*
X208765989Y-82830021D01*
X208834511Y-82790460D01*
X208890460Y-82734511D01*
X214740460Y-76884511D01*
X214746883Y-76873386D01*
X214780021Y-76815989D01*
X214800500Y-76739562D01*
X214800500Y-76236964D01*
X214820185Y-76169925D01*
X214872989Y-76124170D01*
X214942147Y-76114226D01*
X215005703Y-76143251D01*
X215012181Y-76149283D01*
X215023387Y-76160489D01*
X215126114Y-76219799D01*
X215240691Y-76250500D01*
X215240694Y-76250500D01*
X215359306Y-76250500D01*
X215359309Y-76250500D01*
X215473886Y-76219799D01*
X215576613Y-76160489D01*
X215660489Y-76076613D01*
X215719799Y-75973886D01*
X215750500Y-75859309D01*
X215750500Y-75740691D01*
X215719799Y-75626114D01*
X215660489Y-75523387D01*
X215636819Y-75499717D01*
X215603334Y-75438394D01*
X215600500Y-75412036D01*
X215600500Y-73710439D01*
X215597837Y-73700500D01*
X215580021Y-73634011D01*
X215560674Y-73600500D01*
X215540464Y-73565495D01*
X215540458Y-73565487D01*
X215034512Y-73059541D01*
X215034504Y-73059535D01*
X214965995Y-73019982D01*
X214965990Y-73019979D01*
X214940513Y-73013152D01*
X214889562Y-72999500D01*
X214189562Y-72999500D01*
X214110438Y-72999500D01*
X214034010Y-73019978D01*
X213965489Y-73059540D01*
X213965486Y-73059542D01*
X213711848Y-73313181D01*
X213650525Y-73346666D01*
X213647295Y-73347324D01*
X213635833Y-73349500D01*
X213590691Y-73349500D01*
X213480957Y-73378903D01*
X213476434Y-73379762D01*
X213446061Y-73376776D01*
X213415549Y-73376050D01*
X213412026Y-73373665D01*
X213408230Y-73396241D01*
X213378304Y-73432934D01*
X213379134Y-73433764D01*
X213289513Y-73523384D01*
X213289511Y-73523387D01*
X213230201Y-73626114D01*
X213199500Y-73740691D01*
X213199500Y-73859309D01*
X213230201Y-73973886D01*
X213289511Y-74076613D01*
X213373387Y-74160489D01*
X213476114Y-74219799D01*
X213590691Y-74250500D01*
X213590694Y-74250500D01*
X213625167Y-74250500D01*
X213692206Y-74270185D01*
X213737961Y-74322989D01*
X213747905Y-74392147D01*
X213718880Y-74455703D01*
X213712848Y-74462181D01*
X213659541Y-74515487D01*
X213659535Y-74515495D01*
X213619982Y-74584004D01*
X213619979Y-74584009D01*
X213599500Y-74660439D01*
X213599500Y-76474167D01*
X213579815Y-76541206D01*
X213563181Y-76561848D01*
X208411848Y-81713181D01*
X208350525Y-81746666D01*
X208324167Y-81749500D01*
X205924832Y-81749500D01*
X205857793Y-81729815D01*
X205812038Y-81677011D01*
X205802094Y-81607853D01*
X205831119Y-81544297D01*
X205837151Y-81537819D01*
X206461391Y-80913579D01*
X207790460Y-79584511D01*
X207795380Y-79575990D01*
X207830021Y-79515989D01*
X207850500Y-79439562D01*
X207850500Y-76087964D01*
X207870185Y-76020925D01*
X207886819Y-76000283D01*
X207910489Y-75976613D01*
X207969799Y-75873886D01*
X208000500Y-75759309D01*
X208000500Y-75640691D01*
X207969799Y-75526114D01*
X207910489Y-75423387D01*
X207826613Y-75339511D01*
X207723886Y-75280201D01*
X207609309Y-75249500D01*
X207490691Y-75249500D01*
X207376114Y-75280201D01*
X207376112Y-75280201D01*
X207376112Y-75280202D01*
X207336501Y-75303072D01*
X207330598Y-75304504D01*
X207326011Y-75308479D01*
X207297048Y-75312643D01*
X207268601Y-75319545D01*
X207262862Y-75317558D01*
X207256853Y-75318423D01*
X207230230Y-75306264D01*
X207202574Y-75296693D01*
X207198820Y-75291920D01*
X207193297Y-75289398D01*
X207177472Y-75264774D01*
X207159383Y-75241772D01*
X207157966Y-75234421D01*
X207155523Y-75230620D01*
X207150500Y-75195685D01*
X207150500Y-75037964D01*
X207170185Y-74970925D01*
X207186819Y-74950283D01*
X207210489Y-74926613D01*
X207269799Y-74823886D01*
X207300500Y-74709309D01*
X207300500Y-74590691D01*
X207269799Y-74476114D01*
X207210489Y-74373387D01*
X207126613Y-74289511D01*
X207126610Y-74289509D01*
X207126606Y-74289506D01*
X207122887Y-74287359D01*
X207120377Y-74284726D01*
X207120164Y-74284563D01*
X207120189Y-74284529D01*
X207074674Y-74236790D01*
X207061454Y-74168182D01*
X207065116Y-74147888D01*
X207078366Y-74098441D01*
X207078366Y-73979823D01*
X207047665Y-73865246D01*
X206988355Y-73762519D01*
X206904479Y-73678643D01*
X206801752Y-73619333D01*
X206687175Y-73588632D01*
X206568557Y-73588632D01*
X206453980Y-73619333D01*
X206453978Y-73619333D01*
X206453978Y-73619334D01*
X206351253Y-73678643D01*
X206351250Y-73678645D01*
X206267379Y-73762516D01*
X206267377Y-73762519D01*
X206232235Y-73823387D01*
X206208067Y-73865246D01*
X206177366Y-73979823D01*
X206177366Y-74098441D01*
X206208067Y-74213018D01*
X206267377Y-74315745D01*
X206351253Y-74399621D01*
X206354969Y-74401766D01*
X206357477Y-74404397D01*
X206357702Y-74404569D01*
X206357675Y-74404603D01*
X206403186Y-74452329D01*
X206416412Y-74520936D01*
X206412748Y-74541247D01*
X206399500Y-74590689D01*
X206399500Y-74590691D01*
X206399500Y-74709309D01*
X206430201Y-74823886D01*
X206489511Y-74926613D01*
X206489513Y-74926615D01*
X206513181Y-74950283D01*
X206546666Y-75011606D01*
X206549500Y-75037964D01*
X206549500Y-75824553D01*
X206529815Y-75891592D01*
X206477011Y-75937347D01*
X206407853Y-75947291D01*
X206363500Y-75931940D01*
X206273886Y-75880201D01*
X206159309Y-75849500D01*
X206040691Y-75849500D01*
X205926114Y-75880201D01*
X205926112Y-75880201D01*
X205926112Y-75880202D01*
X205823387Y-75939511D01*
X205823384Y-75939513D01*
X205739513Y-76023384D01*
X205739511Y-76023387D01*
X205687065Y-76114226D01*
X205680201Y-76126114D01*
X205649500Y-76240691D01*
X205649500Y-76359309D01*
X205680201Y-76473886D01*
X205739511Y-76576613D01*
X205739513Y-76576615D01*
X205763181Y-76600283D01*
X205796666Y-76661606D01*
X205799500Y-76687964D01*
X205799500Y-79074167D01*
X205779815Y-79141206D01*
X205763181Y-79161848D01*
X202836848Y-82088181D01*
X202775525Y-82121666D01*
X202749167Y-82124500D01*
X202715691Y-82124500D01*
X202601114Y-82155201D01*
X202601112Y-82155201D01*
X202601112Y-82155202D01*
X202498387Y-82214511D01*
X202498384Y-82214513D01*
X202414513Y-82298384D01*
X202414511Y-82298387D01*
X202367584Y-82379667D01*
X202355201Y-82401114D01*
X202324500Y-82515691D01*
X195208662Y-82515691D01*
X194535075Y-81842104D01*
X194501590Y-81780781D01*
X194506574Y-81711089D01*
X194508163Y-81707049D01*
X194558130Y-81586420D01*
X194598500Y-81383465D01*
X194598500Y-81176535D01*
X194558130Y-80973580D01*
X194478941Y-80782402D01*
X194363977Y-80610345D01*
X194363975Y-80610342D01*
X194217657Y-80464024D01*
X194130315Y-80405665D01*
X194045598Y-80349059D01*
X194045593Y-80349057D01*
X193983891Y-80323499D01*
X193880890Y-80280834D01*
X193826488Y-80236994D01*
X193804423Y-80170700D01*
X193821702Y-80103001D01*
X193872839Y-80055390D01*
X193890026Y-80048343D01*
X194066217Y-79991095D01*
X194255554Y-79894622D01*
X194309716Y-79855270D01*
X194309717Y-79855270D01*
X193677408Y-79222962D01*
X193740993Y-79205925D01*
X193855007Y-79140099D01*
X193948099Y-79047007D01*
X194013925Y-78932993D01*
X194030962Y-78869408D01*
X194663270Y-79501717D01*
X194663270Y-79501716D01*
X194702622Y-79447554D01*
X194799095Y-79258217D01*
X194864757Y-79056130D01*
X194864757Y-79056127D01*
X194898000Y-78846246D01*
X194898000Y-78633753D01*
X194864757Y-78423872D01*
X194864757Y-78423869D01*
X194799095Y-78221782D01*
X194702624Y-78032449D01*
X194663270Y-77978282D01*
X194663269Y-77978282D01*
X194030962Y-78610590D01*
X194013925Y-78547007D01*
X193948099Y-78432993D01*
X193855007Y-78339901D01*
X193740993Y-78274075D01*
X193677409Y-78257037D01*
X194309716Y-77624728D01*
X194255550Y-77585375D01*
X194061879Y-77486694D01*
X194062396Y-77485678D01*
X194012192Y-77445221D01*
X193990127Y-77378927D01*
X194007406Y-77311228D01*
X194058542Y-77263617D01*
X194114048Y-77250500D01*
X194417750Y-77250500D01*
X194417751Y-77250499D01*
X194432568Y-77247552D01*
X194476229Y-77238868D01*
X194476229Y-77238867D01*
X194476231Y-77238867D01*
X194542552Y-77194552D01*
X194586867Y-77128231D01*
X194586867Y-77128229D01*
X194586868Y-77128229D01*
X194598499Y-77069752D01*
X194598500Y-77069750D01*
X194598500Y-75330249D01*
X194598499Y-75330247D01*
X194586868Y-75271770D01*
X194586867Y-75271769D01*
X194542552Y-75205447D01*
X194476230Y-75161132D01*
X194476229Y-75161131D01*
X194417752Y-75149500D01*
X194417748Y-75149500D01*
X192678252Y-75149500D01*
X192678247Y-75149500D01*
X192619770Y-75161131D01*
X192619769Y-75161132D01*
X192553447Y-75205447D01*
X192509132Y-75271769D01*
X192509131Y-75271770D01*
X192497500Y-75330247D01*
X192497500Y-77069752D01*
X192509131Y-77128229D01*
X192509132Y-77128230D01*
X192553447Y-77194552D01*
X192619769Y-77238867D01*
X192619770Y-77238868D01*
X192678247Y-77250499D01*
X192678250Y-77250500D01*
X192981952Y-77250500D01*
X193048991Y-77270185D01*
X193094746Y-77322989D01*
X193104690Y-77392147D01*
X193075665Y-77455703D01*
X193033735Y-77485938D01*
X193034121Y-77486694D01*
X192840439Y-77585380D01*
X192786282Y-77624727D01*
X192786282Y-77624728D01*
X193418591Y-78257037D01*
X193355007Y-78274075D01*
X193240993Y-78339901D01*
X193147901Y-78432993D01*
X193082075Y-78547007D01*
X193065037Y-78610591D01*
X192432728Y-77978282D01*
X192432727Y-77978282D01*
X192393380Y-78032439D01*
X192296904Y-78221782D01*
X192231242Y-78423869D01*
X192231242Y-78423872D01*
X192198000Y-78633753D01*
X192198000Y-78846246D01*
X192231242Y-79056127D01*
X192231242Y-79056130D01*
X192296904Y-79258217D01*
X192393375Y-79447550D01*
X192432728Y-79501716D01*
X193065037Y-78869408D01*
X193082075Y-78932993D01*
X193147901Y-79047007D01*
X193240993Y-79140099D01*
X193355007Y-79205925D01*
X193418590Y-79222962D01*
X192786282Y-79855269D01*
X192786282Y-79855270D01*
X192840449Y-79894624D01*
X193029782Y-79991095D01*
X193205973Y-80048343D01*
X193263648Y-80087780D01*
X193290847Y-80152139D01*
X193278932Y-80220985D01*
X193231688Y-80272461D01*
X193215108Y-80280835D01*
X193050403Y-80349057D01*
X192878342Y-80464024D01*
X192732024Y-80610342D01*
X192617058Y-80782403D01*
X192537870Y-80973579D01*
X192537868Y-80973587D01*
X192497500Y-81176530D01*
X192497500Y-81383469D01*
X192537868Y-81586412D01*
X192537871Y-81586424D01*
X192587803Y-81706971D01*
X192595272Y-81776440D01*
X192563997Y-81838919D01*
X192560923Y-81842104D01*
X191161489Y-83241540D01*
X191105541Y-83297487D01*
X191105535Y-83297495D01*
X191065982Y-83366004D01*
X191065979Y-83366009D01*
X191052326Y-83416962D01*
X191045500Y-83442438D01*
X191045500Y-92385562D01*
X191065979Y-92461989D01*
X191076492Y-92480197D01*
X191076493Y-92480201D01*
X191076494Y-92480201D01*
X191105539Y-92530509D01*
X191105541Y-92530512D01*
X191413181Y-92838152D01*
X191446666Y-92899475D01*
X191449500Y-92925833D01*
X191449500Y-92959309D01*
X191480201Y-93073886D01*
X191539511Y-93176613D01*
X191623387Y-93260489D01*
X191726114Y-93319799D01*
X191840691Y-93350500D01*
X191840694Y-93350500D01*
X191959306Y-93350500D01*
X191959309Y-93350500D01*
X192073886Y-93319799D01*
X192176613Y-93260489D01*
X192260489Y-93176613D01*
X192260489Y-93176612D01*
X192266236Y-93170866D01*
X192267740Y-93172370D01*
X192315071Y-93137806D01*
X192384816Y-93133646D01*
X192445740Y-93167853D01*
X192473512Y-93216622D01*
X192474093Y-93216382D01*
X192476005Y-93220999D01*
X192476802Y-93222399D01*
X192477201Y-93223886D01*
X192536511Y-93326613D01*
X192620387Y-93410489D01*
X192723114Y-93469799D01*
X192837691Y-93500500D01*
X192837694Y-93500500D01*
X192956306Y-93500500D01*
X192956309Y-93500500D01*
X193070886Y-93469799D01*
X193173613Y-93410489D01*
X193197283Y-93386819D01*
X193258606Y-93353334D01*
X193284964Y-93350500D01*
X193849081Y-93350500D01*
X193849083Y-93350500D01*
X193925510Y-93330021D01*
X193994032Y-93290460D01*
X194049981Y-93234511D01*
X195641460Y-91643032D01*
X195643493Y-91639511D01*
X195681021Y-91574510D01*
X195701500Y-91498083D01*
X195701500Y-90713438D01*
X195687058Y-90659540D01*
X195681022Y-90637012D01*
X195641460Y-90568489D01*
X194535075Y-89462104D01*
X194501590Y-89400781D01*
X194506574Y-89331089D01*
X194508163Y-89327049D01*
X194558130Y-89206420D01*
X194598500Y-89003465D01*
X194598500Y-88796535D01*
X194558130Y-88593580D01*
X194478941Y-88402402D01*
X194363977Y-88230345D01*
X194363975Y-88230342D01*
X194217657Y-88084024D01*
X194052075Y-87973387D01*
X194045598Y-87969059D01*
X193993002Y-87947273D01*
X193854420Y-87889870D01*
X193854412Y-87889868D01*
X193651469Y-87849500D01*
X193651465Y-87849500D01*
X193444535Y-87849500D01*
X193444530Y-87849500D01*
X193241587Y-87889868D01*
X193241579Y-87889870D01*
X193121029Y-87939804D01*
X193051559Y-87947273D01*
X192989080Y-87915998D01*
X192985895Y-87912924D01*
X192684819Y-87611848D01*
X192651334Y-87550525D01*
X192648500Y-87524167D01*
X192648500Y-87245495D01*
X192668185Y-87178456D01*
X192720989Y-87132701D01*
X192790147Y-87122757D01*
X192853703Y-87151782D01*
X192860181Y-87157814D01*
X192878342Y-87175975D01*
X192878345Y-87175977D01*
X193050402Y-87290941D01*
X193241580Y-87370130D01*
X193444530Y-87410499D01*
X193444534Y-87410500D01*
X193444535Y-87410500D01*
X193651466Y-87410500D01*
X193651467Y-87410499D01*
X193854420Y-87370130D01*
X194045598Y-87290941D01*
X194217655Y-87175977D01*
X194363977Y-87029655D01*
X194478941Y-86857598D01*
X194558130Y-86666420D01*
X194598500Y-86463465D01*
X194598500Y-86256535D01*
X194558130Y-86053580D01*
X194478941Y-85862402D01*
X194363977Y-85690345D01*
X194363975Y-85690342D01*
X194217657Y-85544024D01*
X194111344Y-85472989D01*
X194045598Y-85429059D01*
X194024174Y-85420185D01*
X193854420Y-85349870D01*
X193854412Y-85349868D01*
X193651469Y-85309500D01*
X193651465Y-85309500D01*
X193444535Y-85309500D01*
X193444530Y-85309500D01*
X193241587Y-85349868D01*
X193241579Y-85349870D01*
X193050403Y-85429058D01*
X192878342Y-85544024D01*
X192878341Y-85544025D01*
X192860181Y-85562186D01*
X192798858Y-85595671D01*
X192729166Y-85590687D01*
X192673233Y-85548815D01*
X192648816Y-85483351D01*
X192648500Y-85474505D01*
X192648500Y-85108439D01*
X192641657Y-85082900D01*
X192628021Y-85032011D01*
X192600654Y-84984609D01*
X192588464Y-84963495D01*
X192588458Y-84963487D01*
X192336819Y-84711848D01*
X192303334Y-84650525D01*
X192300500Y-84624167D01*
X192300500Y-84590693D01*
X192300500Y-84590691D01*
X192269799Y-84476114D01*
X192210489Y-84373387D01*
X192126613Y-84289511D01*
X192023886Y-84230201D01*
X191909309Y-84199500D01*
X191790691Y-84199500D01*
X191790688Y-84199500D01*
X191786683Y-84200028D01*
X191783298Y-84199500D01*
X191782564Y-84199500D01*
X191782564Y-84199385D01*
X191717648Y-84189260D01*
X191665393Y-84142879D01*
X191646500Y-84077088D01*
X191646500Y-83657832D01*
X191666185Y-83590793D01*
X191682814Y-83570156D01*
X192985896Y-82267073D01*
X193047217Y-82233590D01*
X193116909Y-82238574D01*
X193121007Y-82240186D01*
X193241580Y-82290130D01*
X193431549Y-82327917D01*
X193444530Y-82330499D01*
X193444534Y-82330500D01*
X193444535Y-82330500D01*
X193651466Y-82330500D01*
X193651467Y-82330499D01*
X193854420Y-82290130D01*
X193974974Y-82240194D01*
X194044438Y-82232726D01*
X194106918Y-82264000D01*
X194110104Y-82267075D01*
X197127540Y-85284511D01*
X197183489Y-85340460D01*
X197183491Y-85340461D01*
X197183495Y-85340464D01*
X197252004Y-85380017D01*
X197252011Y-85380021D01*
X197328438Y-85400500D01*
X197407562Y-85400500D01*
X197425167Y-85400500D01*
X197492206Y-85420185D01*
X197537961Y-85472989D01*
X197547905Y-85542147D01*
X197518880Y-85605703D01*
X197512848Y-85612181D01*
X196726681Y-86398348D01*
X196665358Y-86431833D01*
X196595666Y-86426849D01*
X196551319Y-86398348D01*
X194535075Y-84382104D01*
X194501590Y-84320781D01*
X194506574Y-84251089D01*
X194508163Y-84247049D01*
X194558130Y-84126420D01*
X194598500Y-83923465D01*
X194598500Y-83716535D01*
X194558130Y-83513580D01*
X194478941Y-83322402D01*
X194363977Y-83150345D01*
X194363975Y-83150342D01*
X194217657Y-83004024D01*
X194130315Y-82945665D01*
X194045598Y-82889059D01*
X194040190Y-82886819D01*
X193854420Y-82809870D01*
X193854412Y-82809868D01*
X193651469Y-82769500D01*
X193651465Y-82769500D01*
X193444535Y-82769500D01*
X193444530Y-82769500D01*
X193241587Y-82809868D01*
X193241579Y-82809870D01*
X193050403Y-82889058D01*
X192878342Y-83004024D01*
X192732024Y-83150342D01*
X192617058Y-83322403D01*
X192537870Y-83513579D01*
X192537868Y-83513587D01*
X192497500Y-83716530D01*
X192497500Y-83923469D01*
X192537868Y-84126412D01*
X192537870Y-84126420D01*
X192617058Y-84317596D01*
X192732024Y-84489657D01*
X192878342Y-84635975D01*
X192878345Y-84635977D01*
X193050402Y-84750941D01*
X193241580Y-84830130D01*
X193438497Y-84869299D01*
X193444530Y-84870499D01*
X193444534Y-84870500D01*
X193444535Y-84870500D01*
X193651466Y-84870500D01*
X193651467Y-84870499D01*
X193854420Y-84830130D01*
X193974974Y-84780194D01*
X194044438Y-84772726D01*
X194106918Y-84804000D01*
X194110104Y-84807075D01*
X196363181Y-87060152D01*
X196396666Y-87121475D01*
X196399500Y-87147833D01*
X196399500Y-93725500D01*
X196379815Y-93792539D01*
X196327011Y-93838294D01*
X196275500Y-93849500D01*
X193660438Y-93849500D01*
X193629867Y-93857691D01*
X193584008Y-93869979D01*
X193584007Y-93869980D01*
X193548538Y-93890459D01*
X193515492Y-93909537D01*
X193515487Y-93909541D01*
X191261848Y-96163181D01*
X191200525Y-96196666D01*
X191174167Y-96199500D01*
X191140691Y-96199500D01*
X191026114Y-96230201D01*
X191026112Y-96230201D01*
X191026112Y-96230202D01*
X190923387Y-96289511D01*
X190923384Y-96289513D01*
X190839513Y-96373384D01*
X190839511Y-96373387D01*
X190808780Y-96426615D01*
X190780201Y-96476114D01*
X190749500Y-96590691D01*
X189500500Y-96590691D01*
X189500500Y-69818209D01*
X190299500Y-69818209D01*
X190299500Y-70181790D01*
X190335137Y-70543630D01*
X190406064Y-70900212D01*
X190406067Y-70900223D01*
X190511614Y-71248165D01*
X190650754Y-71584078D01*
X190650756Y-71584083D01*
X190822140Y-71904720D01*
X190822151Y-71904738D01*
X191024140Y-72207035D01*
X191024150Y-72207049D01*
X191254807Y-72488106D01*
X191511893Y-72745192D01*
X191511898Y-72745196D01*
X191511899Y-72745197D01*
X191792956Y-72975854D01*
X192095268Y-73177853D01*
X192095277Y-73177858D01*
X192095279Y-73177859D01*
X192415916Y-73349243D01*
X192415918Y-73349243D01*
X192415924Y-73349247D01*
X192751836Y-73488386D01*
X193099767Y-73593930D01*
X193099773Y-73593931D01*
X193099776Y-73593932D01*
X193099787Y-73593935D01*
X193456369Y-73664862D01*
X193818206Y-73700500D01*
X193818209Y-73700500D01*
X194181791Y-73700500D01*
X194181794Y-73700500D01*
X194543631Y-73664862D01*
X194620862Y-73649500D01*
X194900212Y-73593935D01*
X194900223Y-73593932D01*
X194900223Y-73593931D01*
X194900233Y-73593930D01*
X195248164Y-73488386D01*
X195584076Y-73349247D01*
X195904732Y-73177853D01*
X196207044Y-72975854D01*
X196488101Y-72745197D01*
X196492607Y-72740691D01*
X212649500Y-72740691D01*
X212649500Y-72859309D01*
X212680201Y-72973886D01*
X212739511Y-73076613D01*
X212823387Y-73160489D01*
X212926114Y-73219799D01*
X213040691Y-73250500D01*
X213040694Y-73250500D01*
X213159305Y-73250500D01*
X213159309Y-73250500D01*
X213264603Y-73222286D01*
X213334448Y-73223949D01*
X213337973Y-73226334D01*
X213341770Y-73203757D01*
X213345101Y-73199673D01*
X213346092Y-73195639D01*
X213356246Y-73186010D01*
X213371698Y-73167068D01*
X213370866Y-73166236D01*
X213376616Y-73160486D01*
X213460489Y-73076613D01*
X213519799Y-72973886D01*
X213550500Y-72859309D01*
X213550500Y-72740691D01*
X213519799Y-72626114D01*
X213460489Y-72523387D01*
X213376613Y-72439511D01*
X213273886Y-72380201D01*
X213159309Y-72349500D01*
X213040691Y-72349500D01*
X212926114Y-72380201D01*
X212926112Y-72380201D01*
X212926112Y-72380202D01*
X212823387Y-72439511D01*
X212823384Y-72439513D01*
X212739513Y-72523384D01*
X212739511Y-72523387D01*
X212680201Y-72626114D01*
X212649500Y-72740691D01*
X196492607Y-72740691D01*
X196745197Y-72488101D01*
X196975854Y-72207044D01*
X197177853Y-71904732D01*
X197349247Y-71584076D01*
X197488386Y-71248164D01*
X197593930Y-70900233D01*
X197593932Y-70900223D01*
X197593935Y-70900212D01*
X197664862Y-70543630D01*
X197700500Y-70181790D01*
X197700500Y-69818209D01*
X225299500Y-69818209D01*
X225299500Y-70181790D01*
X225335137Y-70543630D01*
X225406064Y-70900212D01*
X225406067Y-70900223D01*
X225511614Y-71248165D01*
X225650754Y-71584078D01*
X225650756Y-71584083D01*
X225822140Y-71904720D01*
X225822151Y-71904738D01*
X226024140Y-72207035D01*
X226024150Y-72207049D01*
X226254807Y-72488106D01*
X226511893Y-72745192D01*
X226511898Y-72745196D01*
X226511899Y-72745197D01*
X226792956Y-72975854D01*
X227095268Y-73177853D01*
X227095277Y-73177858D01*
X227095279Y-73177859D01*
X227415916Y-73349243D01*
X227415918Y-73349243D01*
X227415924Y-73349247D01*
X227751836Y-73488386D01*
X228099767Y-73593930D01*
X228099773Y-73593931D01*
X228099776Y-73593932D01*
X228099787Y-73593935D01*
X228456369Y-73664862D01*
X228818206Y-73700500D01*
X228818209Y-73700500D01*
X229181791Y-73700500D01*
X229181794Y-73700500D01*
X229543631Y-73664862D01*
X229620862Y-73649500D01*
X229900212Y-73593935D01*
X229900223Y-73593932D01*
X229900223Y-73593931D01*
X229900233Y-73593930D01*
X230248164Y-73488386D01*
X230584076Y-73349247D01*
X230904732Y-73177853D01*
X231207044Y-72975854D01*
X231488101Y-72745197D01*
X231745197Y-72488101D01*
X231975854Y-72207044D01*
X232177853Y-71904732D01*
X232349247Y-71584076D01*
X232488386Y-71248164D01*
X232593930Y-70900233D01*
X232593932Y-70900223D01*
X232593935Y-70900212D01*
X232664862Y-70543630D01*
X232700500Y-70181790D01*
X232700500Y-69818209D01*
X232664862Y-69456369D01*
X232593935Y-69099787D01*
X232593932Y-69099776D01*
X232593931Y-69099773D01*
X232593930Y-69099767D01*
X232488386Y-68751836D01*
X232349247Y-68415924D01*
X232177853Y-68095268D01*
X231975854Y-67792956D01*
X231745197Y-67511899D01*
X231745196Y-67511898D01*
X231745192Y-67511893D01*
X231488106Y-67254807D01*
X231207049Y-67024150D01*
X231207048Y-67024149D01*
X231207044Y-67024146D01*
X230904732Y-66822147D01*
X230904727Y-66822144D01*
X230904720Y-66822140D01*
X230584083Y-66650756D01*
X230584078Y-66650754D01*
X230248165Y-66511614D01*
X229900223Y-66406067D01*
X229900212Y-66406064D01*
X229543630Y-66335137D01*
X229271111Y-66308296D01*
X229181794Y-66299500D01*
X228818206Y-66299500D01*
X228735679Y-66307628D01*
X228456369Y-66335137D01*
X228099787Y-66406064D01*
X228099776Y-66406067D01*
X227751834Y-66511614D01*
X227415921Y-66650754D01*
X227415916Y-66650756D01*
X227095279Y-66822140D01*
X227095261Y-66822151D01*
X226792964Y-67024140D01*
X226792950Y-67024150D01*
X226511893Y-67254807D01*
X226254807Y-67511893D01*
X226024150Y-67792950D01*
X226024140Y-67792964D01*
X225822151Y-68095261D01*
X225822140Y-68095279D01*
X225650756Y-68415916D01*
X225650754Y-68415921D01*
X225511614Y-68751834D01*
X225406067Y-69099776D01*
X225406064Y-69099787D01*
X225335137Y-69456369D01*
X225299500Y-69818209D01*
X197700500Y-69818209D01*
X197664862Y-69456369D01*
X197593935Y-69099787D01*
X197593932Y-69099776D01*
X197593931Y-69099773D01*
X197593930Y-69099767D01*
X197488386Y-68751836D01*
X197349247Y-68415924D01*
X197177853Y-68095268D01*
X196975854Y-67792956D01*
X196745197Y-67511899D01*
X196745196Y-67511898D01*
X196745192Y-67511893D01*
X196488106Y-67254807D01*
X196207049Y-67024150D01*
X196207048Y-67024149D01*
X196207044Y-67024146D01*
X195904732Y-66822147D01*
X195904727Y-66822144D01*
X195904720Y-66822140D01*
X195584083Y-66650756D01*
X195584078Y-66650754D01*
X195248165Y-66511614D01*
X194900223Y-66406067D01*
X194900212Y-66406064D01*
X194543630Y-66335137D01*
X194271111Y-66308296D01*
X194181794Y-66299500D01*
X193818206Y-66299500D01*
X193735679Y-66307628D01*
X193456369Y-66335137D01*
X193099787Y-66406064D01*
X193099776Y-66406067D01*
X192751834Y-66511614D01*
X192415921Y-66650754D01*
X192415916Y-66650756D01*
X192095279Y-66822140D01*
X192095261Y-66822151D01*
X191792964Y-67024140D01*
X191792950Y-67024150D01*
X191511893Y-67254807D01*
X191254807Y-67511893D01*
X191024150Y-67792950D01*
X191024140Y-67792964D01*
X190822151Y-68095261D01*
X190822140Y-68095279D01*
X190650756Y-68415916D01*
X190650754Y-68415921D01*
X190511614Y-68751834D01*
X190406067Y-69099776D01*
X190406064Y-69099787D01*
X190335137Y-69456369D01*
X190299500Y-69818209D01*
X189500500Y-69818209D01*
X189500500Y-68258676D01*
X189520185Y-68191637D01*
X189536819Y-68170995D01*
X192170995Y-65536819D01*
X192232318Y-65503334D01*
X192258676Y-65500500D01*
X230741324Y-65500500D01*
X230808363Y-65520185D01*
G37*
%TD.AperFunction*%
%TD*%
M02*
