%TF.GenerationSoftware,KiCad,Pcbnew,9.0.5-9.0.5~ubuntu24.04.1*%
%TF.CreationDate,2025-10-15T00:30:22+05:00*%
%TF.ProjectId,AH4,4148342e-6b69-4636-9164-5f7063625858,rev?*%
%TF.SameCoordinates,Original*%
%TF.FileFunction,Soldermask,Bot*%
%TF.FilePolarity,Negative*%
%FSLAX46Y46*%
G04 Gerber Fmt 4.6, Leading zero omitted, Abs format (unit mm)*
G04 Created by KiCad (PCBNEW 9.0.5-9.0.5~ubuntu24.04.1) date 2025-10-15 00:30:22*
%MOMM*%
%LPD*%
G01*
G04 APERTURE LIST*
%ADD10R,1.000000X1.000000*%
%ADD11C,1.000000*%
%ADD12C,0.650000*%
%ADD13O,1.000000X2.100000*%
%ADD14O,1.000000X1.800000*%
%ADD15C,0.800000*%
%ADD16C,6.400000*%
%ADD17R,1.700000X1.700000*%
%ADD18C,1.700000*%
G04 APERTURE END LIST*
D10*
%TO.C,J6*%
X229800000Y-105560000D03*
D11*
X229800000Y-106830000D03*
X229800000Y-108100000D03*
X229800000Y-109370000D03*
%TD*%
D12*
%TO.C,J2*%
X214610000Y-113735000D03*
X220390000Y-113735000D03*
D13*
X213180000Y-113235000D03*
D14*
X213180000Y-117415000D03*
D13*
X221820000Y-113235000D03*
D14*
X221820000Y-117415000D03*
%TD*%
D12*
%TO.C,J1*%
X201590000Y-113720000D03*
X207370000Y-113720000D03*
D13*
X200160000Y-113220000D03*
D14*
X200160000Y-117400000D03*
D13*
X208800000Y-113220000D03*
D14*
X208800000Y-117400000D03*
%TD*%
D15*
%TO.C,H3*%
X191600000Y-115000000D03*
X192302944Y-113302944D03*
X192302944Y-116697056D03*
X194000000Y-112600000D03*
D16*
X194000000Y-115000000D03*
D15*
X194000000Y-117400000D03*
X195697056Y-113302944D03*
X195697056Y-116697056D03*
X196400000Y-115000000D03*
%TD*%
D17*
%TO.C,J5*%
X193548000Y-76200000D03*
D18*
X193548000Y-78740000D03*
X193548000Y-81280000D03*
X193548000Y-83820000D03*
X193548000Y-86360000D03*
X193548000Y-88900000D03*
%TD*%
D15*
%TO.C,H1*%
X191600000Y-70000000D03*
X192302944Y-68302944D03*
X192302944Y-71697056D03*
X194000000Y-67600000D03*
D16*
X194000000Y-70000000D03*
D15*
X194000000Y-72400000D03*
X195697056Y-68302944D03*
X195697056Y-71697056D03*
X196400000Y-70000000D03*
%TD*%
D17*
%TO.C,J4*%
X229500000Y-88840000D03*
D18*
X229500000Y-86300000D03*
X229500000Y-83760000D03*
X229500000Y-81220000D03*
X229500000Y-78680000D03*
X229500000Y-76140000D03*
%TD*%
D15*
%TO.C,H2*%
X226600000Y-70000000D03*
X227302944Y-68302944D03*
X227302944Y-71697056D03*
X229000000Y-67600000D03*
D16*
X229000000Y-70000000D03*
D15*
X229000000Y-72400000D03*
X230697056Y-68302944D03*
X230697056Y-71697056D03*
X231400000Y-70000000D03*
%TD*%
%TO.C,H4*%
X226600000Y-115000000D03*
X227302944Y-113302944D03*
X227302944Y-116697056D03*
X229000000Y-112600000D03*
D16*
X229000000Y-115000000D03*
D15*
X229000000Y-117400000D03*
X230697056Y-113302944D03*
X230697056Y-116697056D03*
X231400000Y-115000000D03*
%TD*%
D17*
%TO.C,J3*%
X229500000Y-101540000D03*
D18*
X229500000Y-99000000D03*
X229500000Y-96460000D03*
X229500000Y-93920000D03*
%TD*%
M02*
