%TF.GenerationSoftware,KiCad,Pcbnew,9.0.5-9.0.5~ubuntu24.04.1*%
%TF.CreationDate,2025-10-15T00:30:22+05:00*%
%TF.ProjectId,AH4,4148342e-6b69-4636-9164-5f7063625858,rev?*%
%TF.SameCoordinates,Original*%
%TF.FileFunction,Soldermask,Top*%
%TF.FilePolarity,Negative*%
%FSLAX46Y46*%
G04 Gerber Fmt 4.6, Leading zero omitted, Abs format (unit mm)*
G04 Created by KiCad (PCBNEW 9.0.5-9.0.5~ubuntu24.04.1) date 2025-10-15 00:30:22*
%MOMM*%
%LPD*%
G01*
G04 APERTURE LIST*
G04 Aperture macros list*
%AMRoundRect*
0 Rectangle with rounded corners*
0 $1 Rounding radius*
0 $2 $3 $4 $5 $6 $7 $8 $9 X,Y pos of 4 corners*
0 Add a 4 corners polygon primitive as box body*
4,1,4,$2,$3,$4,$5,$6,$7,$8,$9,$2,$3,0*
0 Add four circle primitives for the rounded corners*
1,1,$1+$1,$2,$3*
1,1,$1+$1,$4,$5*
1,1,$1+$1,$6,$7*
1,1,$1+$1,$8,$9*
0 Add four rect primitives between the rounded corners*
20,1,$1+$1,$2,$3,$4,$5,0*
20,1,$1+$1,$4,$5,$6,$7,0*
20,1,$1+$1,$6,$7,$8,$9,0*
20,1,$1+$1,$8,$9,$2,$3,0*%
G04 Aperture macros list end*
%ADD10R,1.000000X1.000000*%
%ADD11C,1.000000*%
%ADD12C,0.650000*%
%ADD13RoundRect,0.150000X-0.150000X-0.425000X0.150000X-0.425000X0.150000X0.425000X-0.150000X0.425000X0*%
%ADD14RoundRect,0.075000X-0.075000X-0.500000X0.075000X-0.500000X0.075000X0.500000X-0.075000X0.500000X0*%
%ADD15O,1.000000X2.100000*%
%ADD16O,1.000000X1.800000*%
%ADD17RoundRect,0.135000X0.135000X0.185000X-0.135000X0.185000X-0.135000X-0.185000X0.135000X-0.185000X0*%
%ADD18RoundRect,0.140000X-0.140000X-0.170000X0.140000X-0.170000X0.140000X0.170000X-0.140000X0.170000X0*%
%ADD19RoundRect,0.150000X0.150000X-0.512500X0.150000X0.512500X-0.150000X0.512500X-0.150000X-0.512500X0*%
%ADD20RoundRect,0.135000X-0.135000X-0.185000X0.135000X-0.185000X0.135000X0.185000X-0.135000X0.185000X0*%
%ADD21R,0.400000X0.500000*%
%ADD22R,0.300000X0.500000*%
%ADD23RoundRect,0.135000X0.185000X-0.135000X0.185000X0.135000X-0.185000X0.135000X-0.185000X-0.135000X0*%
%ADD24RoundRect,0.190000X-0.610000X-0.190000X0.610000X-0.190000X0.610000X0.190000X-0.610000X0.190000X0*%
%ADD25R,0.650000X1.050000*%
%ADD26RoundRect,0.243750X-0.456250X0.243750X-0.456250X-0.243750X0.456250X-0.243750X0.456250X0.243750X0*%
%ADD27C,0.800000*%
%ADD28C,6.400000*%
%ADD29RoundRect,0.243750X0.456250X-0.243750X0.456250X0.243750X-0.456250X0.243750X-0.456250X-0.243750X0*%
%ADD30RoundRect,0.140000X0.170000X-0.140000X0.170000X0.140000X-0.170000X0.140000X-0.170000X-0.140000X0*%
%ADD31R,1.700000X1.700000*%
%ADD32C,1.700000*%
%ADD33RoundRect,0.075000X0.700000X0.075000X-0.700000X0.075000X-0.700000X-0.075000X0.700000X-0.075000X0*%
%ADD34RoundRect,0.075000X0.075000X0.700000X-0.075000X0.700000X-0.075000X-0.700000X0.075000X-0.700000X0*%
%ADD35RoundRect,0.140000X-0.170000X0.140000X-0.170000X-0.140000X0.170000X-0.140000X0.170000X0.140000X0*%
%ADD36R,0.900000X1.000000*%
%ADD37RoundRect,0.200000X0.200000X-0.250000X0.200000X0.250000X-0.200000X0.250000X-0.200000X-0.250000X0*%
%ADD38RoundRect,0.243750X-0.243750X-0.456250X0.243750X-0.456250X0.243750X0.456250X-0.243750X0.456250X0*%
%ADD39RoundRect,0.140000X0.140000X0.170000X-0.140000X0.170000X-0.140000X-0.170000X0.140000X-0.170000X0*%
%ADD40RoundRect,0.087500X0.725000X0.087500X-0.725000X0.087500X-0.725000X-0.087500X0.725000X-0.087500X0*%
%ADD41R,0.500000X0.400000*%
%ADD42R,0.500000X0.300000*%
G04 APERTURE END LIST*
%TO.C,U1*%
G36*
X209839182Y-75016464D02*
G01*
X210414182Y-75016464D01*
X210414182Y-75366464D01*
X209839182Y-75366464D01*
X209839182Y-75016464D01*
G37*
G36*
X209839182Y-75516464D02*
G01*
X210414182Y-75516464D01*
X210414182Y-75866464D01*
X209839182Y-75866464D01*
X209839182Y-75516464D01*
G37*
G36*
X209841682Y-74016464D02*
G01*
X210416682Y-74016464D01*
X210416682Y-74366464D01*
X209841682Y-74366464D01*
X209841682Y-74016464D01*
G37*
G36*
X209841682Y-74516464D02*
G01*
X210416682Y-74516464D01*
X210416682Y-74866464D01*
X209841682Y-74866464D01*
X209841682Y-74516464D01*
G37*
G36*
X210616682Y-73743964D02*
G01*
X210966682Y-73743964D01*
X210966682Y-74318964D01*
X210616682Y-74318964D01*
X210616682Y-73743964D01*
G37*
G36*
X210616682Y-75566464D02*
G01*
X210966682Y-75566464D01*
X210966682Y-76141464D01*
X210616682Y-76141464D01*
X210616682Y-75566464D01*
G37*
G36*
X211116682Y-73743964D02*
G01*
X211466682Y-73743964D01*
X211466682Y-74318964D01*
X211116682Y-74318964D01*
X211116682Y-73743964D01*
G37*
G36*
X211116682Y-75566464D02*
G01*
X211466682Y-75566464D01*
X211466682Y-76141464D01*
X211116682Y-76141464D01*
X211116682Y-75566464D01*
G37*
G36*
X211616682Y-73743964D02*
G01*
X211966682Y-73743964D01*
X211966682Y-74318964D01*
X211616682Y-74318964D01*
X211616682Y-73743964D01*
G37*
G36*
X211616682Y-75566464D02*
G01*
X211966682Y-75566464D01*
X211966682Y-76141464D01*
X211616682Y-76141464D01*
X211616682Y-75566464D01*
G37*
G36*
X212164182Y-74016464D02*
G01*
X212739182Y-74016464D01*
X212739182Y-74366464D01*
X212164182Y-74366464D01*
X212164182Y-74016464D01*
G37*
G36*
X212164182Y-74516464D02*
G01*
X212739182Y-74516464D01*
X212739182Y-74866464D01*
X212164182Y-74866464D01*
X212164182Y-74516464D01*
G37*
G36*
X212164182Y-75016464D02*
G01*
X212739182Y-75016464D01*
X212739182Y-75366464D01*
X212164182Y-75366464D01*
X212164182Y-75016464D01*
G37*
G36*
X212164182Y-75516464D02*
G01*
X212739182Y-75516464D01*
X212739182Y-75866464D01*
X212164182Y-75866464D01*
X212164182Y-75516464D01*
G37*
%TD*%
D10*
%TO.C,J6*%
X229800000Y-105560000D03*
D11*
X229800000Y-106830000D03*
X229800000Y-108100000D03*
X229800000Y-109370000D03*
%TD*%
D12*
%TO.C,J2*%
X214610000Y-113735000D03*
X220390000Y-113735000D03*
D13*
X214300000Y-112660000D03*
X215100000Y-112660000D03*
D14*
X216250000Y-112660000D03*
X217250000Y-112660000D03*
X217750000Y-112660000D03*
X218750000Y-112660000D03*
D13*
X219900000Y-112660000D03*
X220700000Y-112660000D03*
X220700000Y-112660000D03*
X219900000Y-112660000D03*
D14*
X219250000Y-112660000D03*
X218250000Y-112660000D03*
X216750000Y-112660000D03*
X215750000Y-112660000D03*
D13*
X215100000Y-112660000D03*
X214300000Y-112660000D03*
D15*
X213180000Y-113235000D03*
D16*
X213180000Y-117415000D03*
D15*
X221820000Y-113235000D03*
D16*
X221820000Y-117415000D03*
%TD*%
D17*
%TO.C,R7*%
X205890000Y-83750000D03*
X204870000Y-83750000D03*
%TD*%
D18*
%TO.C,C7*%
X204095000Y-84875000D03*
X205055000Y-84875000D03*
%TD*%
D19*
%TO.C,U6*%
X210150000Y-110212500D03*
X211100000Y-110212500D03*
X212050000Y-110212500D03*
X212050000Y-107937500D03*
X210150000Y-107937500D03*
%TD*%
D20*
%TO.C,R2*%
X210490000Y-114050000D03*
X211510000Y-114050000D03*
%TD*%
D17*
%TO.C,R12*%
X208970000Y-87350000D03*
X207950000Y-87350000D03*
%TD*%
D21*
%TO.C,RN2*%
X200250000Y-90550000D03*
D22*
X200750000Y-90550000D03*
X201250000Y-90550000D03*
D21*
X201750000Y-90550000D03*
X201750000Y-89550000D03*
D22*
X201250000Y-89550000D03*
X200750000Y-89550000D03*
D21*
X200250000Y-89550000D03*
%TD*%
D23*
%TO.C,R17*%
X201075000Y-106760000D03*
X201075000Y-105740000D03*
%TD*%
D18*
%TO.C,C8*%
X195820000Y-90300000D03*
X196780000Y-90300000D03*
%TD*%
D24*
%TO.C,SW3*%
X210490000Y-87365000D03*
X210490000Y-88635000D03*
X218110000Y-88635000D03*
X218110000Y-87365000D03*
%TD*%
D25*
%TO.C,SW5*%
X211050000Y-101450000D03*
X211050000Y-97300000D03*
X213200000Y-101450000D03*
X213200000Y-97325000D03*
%TD*%
D20*
%TO.C,R8*%
X200590000Y-109500000D03*
X201610000Y-109500000D03*
%TD*%
D17*
%TO.C,R14*%
X208900000Y-93020000D03*
X207880000Y-93020000D03*
%TD*%
D26*
%TO.C,D4*%
X232300000Y-76262500D03*
X232300000Y-78137500D03*
%TD*%
D12*
%TO.C,J1*%
X201590000Y-113720000D03*
X207370000Y-113720000D03*
D13*
X201280000Y-112645000D03*
X202080000Y-112645000D03*
D14*
X203230000Y-112645000D03*
X204230000Y-112645000D03*
X204730000Y-112645000D03*
X205730000Y-112645000D03*
D13*
X206880000Y-112645000D03*
X207680000Y-112645000D03*
X207680000Y-112645000D03*
X206880000Y-112645000D03*
D14*
X206230000Y-112645000D03*
X205230000Y-112645000D03*
X203730000Y-112645000D03*
X202730000Y-112645000D03*
D13*
X202080000Y-112645000D03*
X201280000Y-112645000D03*
D15*
X200160000Y-113220000D03*
D16*
X200160000Y-117400000D03*
D15*
X208800000Y-113220000D03*
D16*
X208800000Y-117400000D03*
%TD*%
D27*
%TO.C,H3*%
X191600000Y-115000000D03*
X192302944Y-113302944D03*
X192302944Y-116697056D03*
X194000000Y-112600000D03*
D28*
X194000000Y-115000000D03*
D27*
X194000000Y-117400000D03*
X195697056Y-113302944D03*
X195697056Y-116697056D03*
X196400000Y-115000000D03*
%TD*%
D17*
%TO.C,R15*%
X208900000Y-93990000D03*
X207880000Y-93990000D03*
%TD*%
D29*
%TO.C,D5*%
X190800000Y-88537500D03*
X190800000Y-86662500D03*
%TD*%
D30*
%TO.C,C3*%
X213425000Y-109555000D03*
X213425000Y-108595000D03*
%TD*%
D31*
%TO.C,J5*%
X193548000Y-76200000D03*
D32*
X193548000Y-78740000D03*
X193548000Y-81280000D03*
X193548000Y-83820000D03*
X193548000Y-86360000D03*
X193548000Y-88900000D03*
%TD*%
D17*
%TO.C,R11*%
X191310000Y-89800000D03*
X190290000Y-89800000D03*
%TD*%
D33*
%TO.C,U2*%
X205150000Y-101600000D03*
X205150000Y-101100000D03*
X205150000Y-100600000D03*
X205150000Y-100100000D03*
X205150000Y-99600000D03*
X205150000Y-99100000D03*
X205150000Y-98600000D03*
X205150000Y-98100000D03*
X205150000Y-97600000D03*
X205150000Y-97100000D03*
X205150000Y-96600000D03*
X205150000Y-96100000D03*
X205150000Y-95600000D03*
X205150000Y-95100000D03*
X205150000Y-94600000D03*
X205150000Y-94100000D03*
D34*
X203225000Y-92175000D03*
X202725000Y-92175000D03*
X202225000Y-92175000D03*
X201725000Y-92175000D03*
X201225000Y-92175000D03*
X200725000Y-92175000D03*
X200225000Y-92175000D03*
X199725000Y-92175000D03*
X199225000Y-92175000D03*
X198725000Y-92175000D03*
X198225000Y-92175000D03*
X197725000Y-92175000D03*
X197225000Y-92175000D03*
X196725000Y-92175000D03*
X196225000Y-92175000D03*
X195725000Y-92175000D03*
D33*
X193800000Y-94100000D03*
X193800000Y-94600000D03*
X193800000Y-95100000D03*
X193800000Y-95600000D03*
X193800000Y-96100000D03*
X193800000Y-96600000D03*
X193800000Y-97100000D03*
X193800000Y-97600000D03*
X193800000Y-98100000D03*
X193800000Y-98600000D03*
X193800000Y-99100000D03*
X193800000Y-99600000D03*
X193800000Y-100100000D03*
X193800000Y-100600000D03*
X193800000Y-101100000D03*
X193800000Y-101600000D03*
D34*
X195725000Y-103525000D03*
X196225000Y-103525000D03*
X196725000Y-103525000D03*
X197225000Y-103525000D03*
X197725000Y-103525000D03*
X198225000Y-103525000D03*
X198725000Y-103525000D03*
X199225000Y-103525000D03*
X199725000Y-103525000D03*
X200225000Y-103525000D03*
X200725000Y-103525000D03*
X201225000Y-103525000D03*
X201725000Y-103525000D03*
X202225000Y-103525000D03*
X202725000Y-103525000D03*
X203225000Y-103525000D03*
%TD*%
D25*
%TO.C,SW2*%
X219725000Y-97275000D03*
X219725000Y-101425000D03*
X217575000Y-97275000D03*
X217575000Y-101400000D03*
%TD*%
D35*
%TO.C,C15*%
X208670000Y-73170000D03*
X208670000Y-74130000D03*
%TD*%
D27*
%TO.C,H1*%
X191600000Y-70000000D03*
X192302944Y-68302944D03*
X192302944Y-71697056D03*
X194000000Y-67600000D03*
D28*
X194000000Y-70000000D03*
D27*
X194000000Y-72400000D03*
X195697056Y-68302944D03*
X195697056Y-71697056D03*
X196400000Y-70000000D03*
%TD*%
D36*
%TO.C,Y2*%
X205325000Y-88425000D03*
X205325000Y-86275000D03*
X203775000Y-86275000D03*
X203775000Y-88425000D03*
%TD*%
D35*
%TO.C,C16*%
X206800000Y-93020000D03*
X206800000Y-93980000D03*
%TD*%
D18*
%TO.C,C1*%
X207610000Y-106520000D03*
X208570000Y-106520000D03*
%TD*%
D37*
%TO.C,Y1*%
X208950000Y-99700000D03*
X208950000Y-98300000D03*
X207850000Y-98300000D03*
X207850000Y-99700000D03*
%TD*%
D38*
%TO.C,D1*%
X196062500Y-108800000D03*
X197937500Y-108800000D03*
%TD*%
D26*
%TO.C,D3*%
X232300000Y-93462500D03*
X232300000Y-95337500D03*
%TD*%
D20*
%TO.C,R6*%
X207960000Y-86280000D03*
X208980000Y-86280000D03*
%TD*%
%TO.C,R16*%
X200590000Y-108500000D03*
X201610000Y-108500000D03*
%TD*%
D39*
%TO.C,C13*%
X212080000Y-72800000D03*
X211120000Y-72800000D03*
%TD*%
D24*
%TO.C,SW4*%
X210490000Y-92965000D03*
X210490000Y-94235000D03*
X218110000Y-94235000D03*
X218110000Y-92965000D03*
%TD*%
D39*
%TO.C,C2*%
X207230000Y-103200000D03*
X206270000Y-103200000D03*
%TD*%
D31*
%TO.C,J4*%
X229500000Y-88840000D03*
D32*
X229500000Y-86300000D03*
X229500000Y-83760000D03*
X229500000Y-81220000D03*
X229500000Y-78680000D03*
X229500000Y-76140000D03*
%TD*%
D30*
%TO.C,C4*%
X208750000Y-108880000D03*
X208750000Y-107920000D03*
%TD*%
D24*
%TO.C,SW1*%
X210497520Y-81742484D03*
X210497520Y-83012484D03*
X218117520Y-83012484D03*
X218117520Y-81742484D03*
%TD*%
D30*
%TO.C,C14*%
X207570000Y-74130000D03*
X207570000Y-73170000D03*
%TD*%
D20*
%TO.C,R3*%
X210490000Y-115025000D03*
X211510000Y-115025000D03*
%TD*%
D17*
%TO.C,R1*%
X208910000Y-96060000D03*
X207890000Y-96060000D03*
%TD*%
D39*
%TO.C,C6*%
X208930000Y-101000000D03*
X207970000Y-101000000D03*
%TD*%
D17*
%TO.C,R5*%
X211510000Y-115975000D03*
X210490000Y-115975000D03*
%TD*%
D18*
%TO.C,C11*%
X202720000Y-89900000D03*
X203680000Y-89900000D03*
%TD*%
D27*
%TO.C,H2*%
X226600000Y-70000000D03*
X227302944Y-68302944D03*
X227302944Y-71697056D03*
X229000000Y-67600000D03*
D28*
X229000000Y-70000000D03*
D27*
X229000000Y-72400000D03*
X230697056Y-68302944D03*
X230697056Y-71697056D03*
X231400000Y-70000000D03*
%TD*%
D17*
%TO.C,R4*%
X211510000Y-116925000D03*
X210490000Y-116925000D03*
%TD*%
D40*
%TO.C,U5*%
X213212500Y-105200000D03*
X213212500Y-104700000D03*
X213212500Y-104200000D03*
X213212500Y-103700000D03*
X213212500Y-103200000D03*
X208987500Y-103200000D03*
X208987500Y-103700000D03*
X208987500Y-104200000D03*
X208987500Y-104700000D03*
X208987500Y-105200000D03*
%TD*%
D18*
%TO.C,C5*%
X207920000Y-97000000D03*
X208880000Y-97000000D03*
%TD*%
D19*
%TO.C,U3*%
X203530000Y-109045000D03*
X204480000Y-109045000D03*
X205430000Y-109045000D03*
X205430000Y-106770000D03*
X204480000Y-106770000D03*
X203530000Y-106770000D03*
%TD*%
D41*
%TO.C,RN1*%
X192200000Y-95600000D03*
D42*
X192200000Y-95100000D03*
X192200000Y-94600000D03*
D41*
X192200000Y-94100000D03*
X191200000Y-94100000D03*
D42*
X191200000Y-94600000D03*
X191200000Y-95100000D03*
D41*
X191200000Y-95600000D03*
%TD*%
D17*
%TO.C,R18*%
X208910000Y-95120000D03*
X207890000Y-95120000D03*
%TD*%
D27*
%TO.C,H4*%
X226600000Y-115000000D03*
X227302944Y-113302944D03*
X227302944Y-116697056D03*
X229000000Y-112600000D03*
D28*
X229000000Y-115000000D03*
D27*
X229000000Y-117400000D03*
X230697056Y-113302944D03*
X230697056Y-116697056D03*
X231400000Y-115000000D03*
%TD*%
D17*
%TO.C,R9*%
X232760000Y-92150000D03*
X231740000Y-92150000D03*
%TD*%
%TO.C,R13*%
X208980000Y-88630000D03*
X207960000Y-88630000D03*
%TD*%
D19*
%TO.C,U4*%
X216539854Y-109029230D03*
X217489854Y-109029230D03*
X218439854Y-109029230D03*
X218439854Y-106754230D03*
X217489854Y-106754230D03*
X216539854Y-106754230D03*
%TD*%
D31*
%TO.C,J3*%
X229500000Y-101540000D03*
D32*
X229500000Y-99000000D03*
X229500000Y-96460000D03*
X229500000Y-93920000D03*
%TD*%
D38*
%TO.C,D2*%
X196062500Y-106350000D03*
X197937500Y-106350000D03*
%TD*%
D20*
%TO.C,R10*%
X231780000Y-74800000D03*
X232800000Y-74800000D03*
%TD*%
D18*
%TO.C,C12*%
X218170000Y-102700000D03*
X219130000Y-102700000D03*
%TD*%
D30*
%TO.C,C10*%
X192050000Y-101900000D03*
X192050000Y-100940000D03*
%TD*%
%TO.C,C9*%
X202000000Y-106730000D03*
X202000000Y-105770000D03*
%TD*%
M02*
