%TF.GenerationSoftware,KiCad,Pcbnew,9.0.5-9.0.5~ubuntu24.04.1*%
%TF.CreationDate,2025-10-15T00:30:22+05:00*%
%TF.ProjectId,AH4,4148342e-6b69-4636-9164-5f7063625858,rev?*%
%TF.SameCoordinates,Original*%
%TF.FileFunction,Legend,Top*%
%TF.FilePolarity,Positive*%
%FSLAX46Y46*%
G04 Gerber Fmt 4.6, Leading zero omitted, Abs format (unit mm)*
G04 Created by KiCad (PCBNEW 9.0.5-9.0.5~ubuntu24.04.1) date 2025-10-15 00:30:22*
%MOMM*%
%LPD*%
G01*
G04 APERTURE LIST*
%ADD10C,0.300000*%
%ADD11C,0.650000*%
%ADD12C,0.100000*%
%ADD13C,0.120000*%
%ADD14C,0.000000*%
%ADD15C,0.200000*%
G04 APERTURE END LIST*
D10*
X221686252Y-72593126D02*
X222186252Y-72093126D01*
X223118034Y-70309017D02*
X222500000Y-70500000D01*
X223118034Y-70309017D02*
G75*
G02*
X222936269Y-68593112I-1431734J715917D01*
G01*
X218686252Y-69593126D02*
X219186252Y-69093126D01*
X218686252Y-69593126D02*
X219186252Y-70093126D01*
D11*
X222011252Y-69593126D02*
G75*
G02*
X221361252Y-69593126I-325000J0D01*
G01*
X221361252Y-69593126D02*
G75*
G02*
X222011252Y-69593126I325000J0D01*
G01*
D10*
X221686252Y-69593126D02*
X221686252Y-72593126D01*
D12*
X195346646Y-87993293D02*
X197046646Y-87993293D01*
X225896646Y-75203293D02*
X227596646Y-75203293D01*
D10*
X221686252Y-72593126D02*
X221186252Y-72093126D01*
X221686252Y-69593126D02*
X218686252Y-69593126D01*
X223118034Y-70309017D02*
X223250000Y-71000000D01*
D13*
G36*
X225130003Y-93849440D02*
G01*
X225373208Y-93988781D01*
X225373208Y-94548952D01*
X225615069Y-94409550D01*
X225615069Y-93849440D01*
X225373208Y-93710039D01*
X225130003Y-93849440D01*
G37*
G36*
X225130003Y-93289269D02*
G01*
X225373208Y-93430014D01*
X225615069Y-93289269D01*
X225373208Y-93149929D01*
X225130003Y-93289269D01*
G37*
G36*
X224888203Y-93988781D02*
G01*
X225130003Y-93849440D01*
X225130003Y-93289269D01*
X224888203Y-93430014D01*
X224888203Y-93710039D01*
X224888203Y-93988781D01*
G37*
G36*
X224888203Y-94268866D02*
G01*
X225130003Y-94129526D01*
X225130003Y-94409550D01*
X225373208Y-94548952D01*
X225130003Y-94688293D01*
X224888203Y-94548952D01*
X224888203Y-94268866D01*
G37*
G36*
X225736763Y-93360283D02*
G01*
X225858335Y-93430014D01*
X225858335Y-94548952D01*
X226101540Y-94688293D01*
X226343340Y-94548952D01*
X226101540Y-94409550D01*
X226101540Y-93289269D01*
X225978564Y-93219599D01*
X225736763Y-93360283D01*
G37*
G36*
X226101540Y-93289269D02*
G01*
X226343340Y-93430014D01*
X226343340Y-94548952D01*
X226585202Y-94409550D01*
X226585202Y-93289269D01*
X226343340Y-93149929D01*
X226101540Y-93289269D01*
G37*
G36*
X227312496Y-93429953D02*
G01*
X227069291Y-93288598D01*
X227312496Y-93148586D01*
X227554357Y-93288598D01*
X227554357Y-94410833D01*
X227675929Y-94480564D01*
X227432724Y-94619905D01*
X227312496Y-94550234D01*
X227312496Y-93990063D01*
X227069291Y-93850723D01*
X227312496Y-93711321D01*
X227312496Y-93429953D01*
G37*
G36*
X226827491Y-94687621D02*
G01*
X227069291Y-94548280D01*
X227069291Y-93288598D01*
X226827491Y-93429343D01*
X226827491Y-94687621D01*
G37*
G36*
X219798446Y-94479440D02*
G01*
X220041651Y-94618781D01*
X220041651Y-95178952D01*
X220283512Y-95039550D01*
X220283512Y-94479440D01*
X220041651Y-94340039D01*
X219798446Y-94479440D01*
G37*
G36*
X219798446Y-93919269D02*
G01*
X220041651Y-94060014D01*
X220283512Y-93919269D01*
X220041651Y-93779929D01*
X219798446Y-93919269D01*
G37*
G36*
X219556646Y-94618781D02*
G01*
X219798446Y-94479440D01*
X219798446Y-93919269D01*
X219556646Y-94060014D01*
X219556646Y-94340039D01*
X219556646Y-94618781D01*
G37*
G36*
X219556646Y-94898866D02*
G01*
X219798446Y-94759526D01*
X219798446Y-95039550D01*
X220041651Y-95178952D01*
X219798446Y-95318293D01*
X219556646Y-95178952D01*
X219556646Y-94898866D01*
G37*
G36*
X221011783Y-94898500D02*
G01*
X221253645Y-94759037D01*
X221253645Y-95039367D01*
X221011783Y-95178830D01*
X221011783Y-94898500D01*
G37*
G36*
X220526778Y-94058915D02*
G01*
X220768579Y-93918048D01*
X220768579Y-95039367D01*
X221011783Y-95178830D01*
X220768579Y-95318293D01*
X220526778Y-95178830D01*
X220526778Y-94058915D01*
G37*
G36*
X220768579Y-93918048D02*
G01*
X221011783Y-93778586D01*
X221253645Y-93918048D01*
X221253645Y-94198378D01*
X221011783Y-94339245D01*
X221011783Y-94058915D01*
X220768579Y-93918048D01*
G37*
G36*
X221375339Y-93990283D02*
G01*
X221617139Y-93849599D01*
X221740115Y-93919269D01*
X221740115Y-95039550D01*
X221981916Y-95178952D01*
X221740115Y-95318293D01*
X221496911Y-95178952D01*
X221496911Y-94060014D01*
X221375339Y-93990283D01*
G37*
G36*
X231399302Y-103280320D02*
G01*
X231223008Y-103102340D01*
X231399302Y-102924433D01*
X232472237Y-102924433D01*
X232576358Y-102820313D01*
X232754337Y-102998292D01*
X232576358Y-103176199D01*
X231503570Y-103176199D01*
X231399302Y-103280320D01*
G37*
G36*
X231673489Y-102816722D02*
G01*
X231495583Y-102638816D01*
X231616410Y-102517915D01*
X231319288Y-102220721D01*
X231495583Y-102046112D01*
X231495583Y-102042814D01*
X231752404Y-102042814D01*
X232214097Y-102460836D01*
X232472676Y-102460836D01*
X232511291Y-102422221D01*
X232351776Y-102262706D01*
X232571668Y-102042814D01*
X232747596Y-102220794D01*
X232594822Y-102373568D01*
X232754337Y-102533010D01*
X232576358Y-102712675D01*
X232432376Y-102712675D01*
X231965628Y-102294580D01*
X231601316Y-102294580D01*
X231527457Y-102370124D01*
X231618095Y-102460836D01*
X231967314Y-102460836D01*
X231967314Y-102712675D01*
X231777610Y-102712675D01*
X231673489Y-102816722D01*
G37*
G36*
X232064327Y-101388195D02*
G01*
X232064327Y-101136356D01*
X232423584Y-101136356D01*
X232754337Y-101472092D01*
X232576358Y-101878390D01*
X231681769Y-101878390D01*
X231577575Y-101982511D01*
X231399302Y-101804531D01*
X231545335Y-101658498D01*
X231221323Y-101391565D01*
X231399302Y-101136356D01*
X231731741Y-101136356D01*
X231731741Y-101388195D01*
X231526944Y-101388195D01*
X231437917Y-101515836D01*
X231577282Y-101626624D01*
X232430251Y-101626624D01*
X232534372Y-101388195D01*
X232064327Y-101388195D01*
G37*
G36*
X231594062Y-101076272D02*
G01*
X231416082Y-100898292D01*
X231565558Y-100747204D01*
X231221323Y-100485326D01*
X231399302Y-100230117D01*
X231510091Y-100230117D01*
X231221323Y-99993446D01*
X231399302Y-99738236D01*
X232472237Y-99738236D01*
X232576358Y-99634189D01*
X232754337Y-99812095D01*
X232576358Y-99990075D01*
X231527090Y-99990075D01*
X231438137Y-100117643D01*
X231575743Y-100230117D01*
X232472237Y-100230117D01*
X232576358Y-100126070D01*
X232754337Y-100303976D01*
X232576358Y-100481956D01*
X231527090Y-100481956D01*
X231443120Y-100601171D01*
X231599264Y-100720386D01*
X232472237Y-100720386D01*
X232576358Y-100616265D01*
X232754337Y-100794245D01*
X232576358Y-100972151D01*
X231698182Y-100972151D01*
X231594062Y-101076272D01*
G37*
G36*
X232576358Y-99579894D02*
G01*
X232398378Y-99401914D01*
X232576358Y-99223934D01*
X232905426Y-99445585D01*
X232707296Y-99448955D01*
X232576358Y-99579894D01*
G37*
G36*
X232754337Y-98091209D02*
G01*
X232603249Y-98242298D01*
X232754337Y-98393386D01*
X232576358Y-98692193D01*
X231953538Y-98692193D01*
X231701699Y-98440354D01*
X231579114Y-98562940D01*
X231429033Y-98411851D01*
X231731888Y-98411851D01*
X231760464Y-98440354D01*
X232442048Y-98440354D01*
X232544484Y-98269116D01*
X231874623Y-98269116D01*
X231731888Y-98411851D01*
X231429033Y-98411851D01*
X231317237Y-98299304D01*
X231347425Y-98270801D01*
X231431396Y-98354772D01*
X231770503Y-98017350D01*
X232472237Y-98017350D01*
X232576358Y-97913229D01*
X232754337Y-98091209D01*
G37*
G36*
X231399302Y-97910372D02*
G01*
X231221323Y-97732392D01*
X231399302Y-97554486D01*
X231577209Y-97732392D01*
X231399302Y-97910372D01*
G37*
G36*
X231770503Y-97910372D02*
G01*
X231592596Y-97732465D01*
X231770503Y-97554486D01*
X232472237Y-97554486D01*
X232576358Y-97450365D01*
X232754337Y-97628345D01*
X232576358Y-97806324D01*
X231874623Y-97806324D01*
X231770503Y-97910372D01*
G37*
G36*
X232027690Y-96921848D02*
G01*
X232027690Y-96720421D01*
X232376909Y-96720421D01*
X232753018Y-97094772D01*
X232596874Y-97358334D01*
X232732868Y-97464140D01*
X232711033Y-97499384D01*
X232276232Y-97165260D01*
X232276232Y-97396949D01*
X231965555Y-97396949D01*
X231712656Y-97145183D01*
X231798786Y-97145183D01*
X232127781Y-97145183D01*
X232028789Y-96975557D01*
X232024414Y-96972259D01*
X232174456Y-96972259D01*
X232241647Y-97086419D01*
X232402774Y-97208931D01*
X232543824Y-96972259D01*
X232174456Y-96972259D01*
X232024414Y-96972259D01*
X231939763Y-96908439D01*
X231798786Y-97145183D01*
X231712656Y-97145183D01*
X231589519Y-97022598D01*
X231745663Y-96759035D01*
X231609669Y-96653229D01*
X231631504Y-96617985D01*
X232027690Y-96921848D01*
G37*
G36*
X232248095Y-96616080D02*
G01*
X232069896Y-96438174D01*
X232248095Y-96260194D01*
X232426295Y-96438174D01*
X232248095Y-96616080D01*
G37*
G36*
X231738629Y-96616080D02*
G01*
X231558964Y-96438100D01*
X231738629Y-96260194D01*
X231916609Y-96438100D01*
X231738629Y-96616080D01*
G37*
G36*
X224494580Y-110488519D02*
G01*
X224737785Y-110627860D01*
X224737785Y-111188031D01*
X224979646Y-111048629D01*
X224979646Y-110488519D01*
X224737785Y-110349118D01*
X224494580Y-110488519D01*
G37*
G36*
X224494580Y-109928348D02*
G01*
X224737785Y-110069093D01*
X224979646Y-109928348D01*
X224737785Y-109789008D01*
X224494580Y-109928348D01*
G37*
G36*
X224252780Y-110627860D02*
G01*
X224494580Y-110488519D01*
X224494580Y-109928348D01*
X224252780Y-110069093D01*
X224252780Y-110349118D01*
X224252780Y-110627860D01*
G37*
G36*
X224252780Y-110907945D02*
G01*
X224494580Y-110768605D01*
X224494580Y-111048629D01*
X224737785Y-111188031D01*
X224494580Y-111327372D01*
X224252780Y-111188031D01*
X224252780Y-110907945D01*
G37*
G36*
X225101340Y-109999362D02*
G01*
X225222912Y-110069093D01*
X225222912Y-111188031D01*
X225466117Y-111327372D01*
X225707917Y-111188031D01*
X225466117Y-111048629D01*
X225466117Y-109928348D01*
X225343141Y-109858678D01*
X225101340Y-109999362D01*
G37*
G36*
X226434784Y-111048629D02*
G01*
X226434784Y-109789008D01*
X226191579Y-109928348D01*
X226191579Y-111188031D01*
X226434784Y-111048629D01*
G37*
G36*
X225707917Y-110069093D02*
G01*
X225707917Y-110350522D01*
X225707917Y-111188031D01*
X225949779Y-111327372D01*
X226191579Y-111188031D01*
X225949779Y-111048629D01*
X225949779Y-109928348D01*
X225707917Y-110069093D01*
G37*
G36*
X227162628Y-110907579D02*
G01*
X227404489Y-110768116D01*
X227404489Y-111048446D01*
X227162628Y-111187909D01*
X227162628Y-110907579D01*
G37*
G36*
X226677622Y-110067994D02*
G01*
X226919423Y-109927127D01*
X226919423Y-111048446D01*
X227162628Y-111187909D01*
X226919423Y-111327372D01*
X226677622Y-111187909D01*
X226677622Y-110067994D01*
G37*
G36*
X226919423Y-109927127D02*
G01*
X227162628Y-109787665D01*
X227404489Y-109927127D01*
X227404489Y-110207457D01*
X227162628Y-110348324D01*
X227162628Y-110067994D01*
X226919423Y-109927127D01*
G37*
G36*
X223795521Y-78120283D02*
G01*
X223917093Y-78190014D01*
X223917093Y-79448293D01*
X224160297Y-79308952D01*
X224160297Y-78049269D01*
X224037321Y-77979599D01*
X223795521Y-78120283D01*
G37*
G36*
X224160297Y-78049269D02*
G01*
X224402098Y-78190014D01*
X224402098Y-79448293D01*
X224643959Y-79308952D01*
X224643959Y-78049269D01*
X224402098Y-77909929D01*
X224160297Y-78049269D01*
G37*
G36*
X225249193Y-79239282D02*
G01*
X225128964Y-79169550D01*
X225128964Y-78049269D01*
X224885760Y-77909929D01*
X224643959Y-78049269D01*
X224885760Y-78190014D01*
X224885760Y-79308952D01*
X225007332Y-79378622D01*
X225249193Y-79239282D01*
G37*
G36*
X225250231Y-78120283D02*
G01*
X225492031Y-77979599D01*
X225615008Y-78049269D01*
X225615008Y-79308952D01*
X225371803Y-79448293D01*
X225371803Y-78190014D01*
X225250231Y-78120283D01*
G37*
G36*
X226098181Y-78609440D02*
G01*
X226341386Y-78748781D01*
X226341386Y-79308952D01*
X226583247Y-79169550D01*
X226583247Y-78609440D01*
X226341386Y-78470039D01*
X226098181Y-78609440D01*
G37*
G36*
X226098181Y-78049269D02*
G01*
X226341386Y-78190014D01*
X226583247Y-78049269D01*
X226341386Y-77909929D01*
X226098181Y-78049269D01*
G37*
G36*
X225856381Y-78748781D02*
G01*
X226098181Y-78609440D01*
X226098181Y-78049269D01*
X225856381Y-78190014D01*
X225856381Y-78470039D01*
X225856381Y-78748781D01*
G37*
G36*
X225856381Y-79028866D02*
G01*
X226098181Y-78889526D01*
X226098181Y-79169550D01*
X226341386Y-79308952D01*
X226098181Y-79448293D01*
X225856381Y-79308952D01*
X225856381Y-79028866D01*
G37*
G36*
X226826513Y-78188915D02*
G01*
X227068314Y-78048048D01*
X227068314Y-79169367D01*
X227311519Y-79308830D01*
X227068314Y-79448293D01*
X226826513Y-79308830D01*
X226826513Y-78188915D01*
G37*
G36*
X227311519Y-79308830D02*
G01*
X227311519Y-78188915D01*
X227068314Y-78048048D01*
X227311519Y-77908586D01*
X227553380Y-78048048D01*
X227553380Y-79169367D01*
X227311519Y-79308830D01*
G37*
G36*
X224739312Y-106467994D02*
G01*
X224981112Y-106327127D01*
X224981112Y-106887787D01*
X225224317Y-106750400D01*
X225466178Y-106889496D01*
X225466178Y-107448629D01*
X225587750Y-107518178D01*
X225344545Y-107657518D01*
X225224317Y-107587848D01*
X225224317Y-107027249D01*
X224981112Y-106887787D01*
X224981112Y-107448446D01*
X225224317Y-107587909D01*
X224981112Y-107727372D01*
X224739312Y-107587909D01*
X224739312Y-106467994D01*
G37*
G36*
X224981112Y-106327127D02*
G01*
X225224317Y-106187665D01*
X225466178Y-106327127D01*
X225224317Y-106467872D01*
X224981112Y-106327127D01*
G37*
G36*
X225586895Y-106398263D02*
G01*
X225828696Y-106257579D01*
X225951672Y-106327249D01*
X225951672Y-107587909D01*
X225708467Y-107727372D01*
X225708467Y-106467994D01*
X225586895Y-106398263D01*
G37*
G36*
X226315105Y-107657518D02*
G01*
X226193472Y-107587848D01*
X226193472Y-106467994D01*
X225951672Y-106327127D01*
X226193472Y-106187665D01*
X226435334Y-106327127D01*
X226435334Y-107448446D01*
X226556906Y-107518178D01*
X226315105Y-107657518D01*
G37*
G36*
X226557028Y-106399362D02*
G01*
X226678600Y-106469093D01*
X226678600Y-107588031D01*
X226921805Y-107727372D01*
X227163605Y-107588031D01*
X226921805Y-107448629D01*
X226921805Y-106328348D01*
X226798828Y-106258678D01*
X226557028Y-106399362D01*
G37*
G36*
X226921805Y-106328348D02*
G01*
X227163605Y-106469093D01*
X227163605Y-107588031D01*
X227405466Y-107448629D01*
X227405466Y-106328348D01*
X227163605Y-106189008D01*
X226921805Y-106328348D01*
G37*
G36*
X219432594Y-80931668D02*
G01*
X219674394Y-80790984D01*
X219797370Y-80860654D01*
X219797370Y-81981851D01*
X220039171Y-82121314D01*
X219797370Y-82260777D01*
X219554166Y-82121314D01*
X219554166Y-81001399D01*
X219432594Y-80931668D01*
G37*
G36*
X220160804Y-82190923D02*
G01*
X220039171Y-82121253D01*
X220039171Y-80860532D01*
X220281032Y-80721070D01*
X220281032Y-81981851D01*
X220402604Y-82051583D01*
X220160804Y-82190923D01*
G37*
G36*
X220524298Y-81282523D02*
G01*
X220524298Y-82121436D01*
X220766099Y-82260777D01*
X221009303Y-82121436D01*
X220766099Y-81982034D01*
X220766099Y-81141839D01*
X220524298Y-81282523D01*
G37*
G36*
X221251165Y-81982034D02*
G01*
X221251165Y-81141839D01*
X221009303Y-81002498D01*
X220766099Y-81141839D01*
X221009303Y-81282523D01*
X221009303Y-82121436D01*
X221251165Y-81982034D01*
G37*
G36*
X195781651Y-89288500D02*
G01*
X196023512Y-89149037D01*
X196023512Y-89429367D01*
X195781651Y-89568830D01*
X195781651Y-89288500D01*
G37*
G36*
X195296646Y-88448915D02*
G01*
X195538446Y-88308048D01*
X195538446Y-89429367D01*
X195781651Y-89568830D01*
X195538446Y-89708293D01*
X195296646Y-89568830D01*
X195296646Y-88448915D01*
G37*
G36*
X195538446Y-88308048D02*
G01*
X195781651Y-88168586D01*
X196023512Y-88308048D01*
X196023512Y-88588378D01*
X195781651Y-88729245D01*
X195781651Y-88448915D01*
X195538446Y-88308048D01*
G37*
G36*
X196508579Y-88869440D02*
G01*
X196751783Y-89008781D01*
X196751783Y-89568952D01*
X196993645Y-89429550D01*
X196993645Y-88869440D01*
X196751783Y-88730039D01*
X196508579Y-88869440D01*
G37*
G36*
X196508579Y-88309269D02*
G01*
X196751783Y-88450014D01*
X196993645Y-88309269D01*
X196751783Y-88169929D01*
X196508579Y-88309269D01*
G37*
G36*
X196266778Y-89008781D02*
G01*
X196508579Y-88869440D01*
X196508579Y-88309269D01*
X196266778Y-88450014D01*
X196266778Y-88730039D01*
X196266778Y-89008781D01*
G37*
G36*
X196266778Y-89288866D02*
G01*
X196508579Y-89149526D01*
X196508579Y-89429550D01*
X196751783Y-89568952D01*
X196508579Y-89708293D01*
X196266778Y-89568952D01*
X196266778Y-89288866D01*
G37*
G36*
X195175074Y-85840283D02*
G01*
X195296646Y-85910014D01*
X195296646Y-87168293D01*
X195539850Y-87028952D01*
X195539850Y-85769269D01*
X195416874Y-85699599D01*
X195175074Y-85840283D01*
G37*
G36*
X195539850Y-85769269D02*
G01*
X195781651Y-85910014D01*
X195781651Y-87168293D01*
X196023512Y-87028952D01*
X196023512Y-85769269D01*
X195781651Y-85629929D01*
X195539850Y-85769269D01*
G37*
G36*
X196628746Y-86959282D02*
G01*
X196508517Y-86889550D01*
X196508517Y-85769269D01*
X196265313Y-85629929D01*
X196023512Y-85769269D01*
X196265313Y-85910014D01*
X196265313Y-87028952D01*
X196386885Y-87098622D01*
X196628746Y-86959282D01*
G37*
G36*
X196629784Y-85840283D02*
G01*
X196871584Y-85699599D01*
X196994561Y-85769269D01*
X196994561Y-87028952D01*
X196751356Y-87168293D01*
X196751356Y-85910014D01*
X196629784Y-85840283D01*
G37*
G36*
X197477734Y-86329440D02*
G01*
X197720939Y-86468781D01*
X197720939Y-87028952D01*
X197962800Y-86889550D01*
X197962800Y-86329440D01*
X197720939Y-86190039D01*
X197477734Y-86329440D01*
G37*
G36*
X197477734Y-85769269D02*
G01*
X197720939Y-85910014D01*
X197962800Y-85769269D01*
X197720939Y-85629929D01*
X197477734Y-85769269D01*
G37*
G36*
X197235934Y-86468781D02*
G01*
X197477734Y-86329440D01*
X197477734Y-85769269D01*
X197235934Y-85910014D01*
X197235934Y-86190039D01*
X197235934Y-86468781D01*
G37*
G36*
X197235934Y-86748866D02*
G01*
X197477734Y-86609526D01*
X197477734Y-86889550D01*
X197720939Y-87028952D01*
X197477734Y-87168293D01*
X197235934Y-87028952D01*
X197235934Y-86748866D01*
G37*
G36*
X198206066Y-85908915D02*
G01*
X198447867Y-85768048D01*
X198447867Y-86889367D01*
X198691072Y-87028830D01*
X198447867Y-87168293D01*
X198206066Y-87028830D01*
X198206066Y-85908915D01*
G37*
G36*
X198691072Y-87028830D02*
G01*
X198691072Y-85908915D01*
X198447867Y-85768048D01*
X198691072Y-85628586D01*
X198932933Y-85768048D01*
X198932933Y-86889367D01*
X198691072Y-87028830D01*
G37*
G36*
X232763733Y-89014215D02*
G01*
X232585754Y-89420513D01*
X231601992Y-89420513D01*
X231352432Y-89168675D01*
X231435736Y-89168675D01*
X232439721Y-89168675D01*
X232562233Y-88888333D01*
X231558322Y-88888333D01*
X231435736Y-89168675D01*
X231352432Y-89168675D01*
X231232624Y-89047774D01*
X231412289Y-88636494D01*
X231413901Y-88636494D01*
X232389309Y-88636494D01*
X232763733Y-89014215D01*
G37*
G36*
X231408698Y-88575897D02*
G01*
X231232404Y-88397917D01*
X231408698Y-88220011D01*
X232481633Y-88220011D01*
X232585754Y-88115890D01*
X232763733Y-88293870D01*
X232585754Y-88471776D01*
X231512966Y-88471776D01*
X231408698Y-88575897D01*
G37*
G36*
X231415586Y-87222548D02*
G01*
X231670795Y-87222548D01*
X231746340Y-87148689D01*
X231904169Y-87345133D01*
X231744654Y-87474386D01*
X231561692Y-87474386D01*
X231439107Y-87756414D01*
X231845405Y-87756414D01*
X232110652Y-87205768D01*
X232369159Y-87205768D01*
X232620998Y-87457534D01*
X232619312Y-87457534D01*
X232763733Y-87601954D01*
X232585754Y-88008252D01*
X232295300Y-88008252D01*
X232191252Y-88112300D01*
X232011587Y-87934393D01*
X232191252Y-87756414D01*
X232439721Y-87756414D01*
X232570659Y-87457534D01*
X232110652Y-87457534D01*
X231847090Y-88008252D01*
X231610345Y-88008252D01*
X231235994Y-87635513D01*
X231415586Y-87222548D01*
G37*
G36*
X232073723Y-86552467D02*
G01*
X232073723Y-86300629D01*
X232432980Y-86300629D01*
X232763733Y-86636365D01*
X232585754Y-87042663D01*
X231691165Y-87042663D01*
X231586971Y-87146783D01*
X231408698Y-86968804D01*
X231554731Y-86822771D01*
X231230719Y-86555838D01*
X231408698Y-86300629D01*
X231741137Y-86300629D01*
X231741137Y-86552467D01*
X231536340Y-86552467D01*
X231447313Y-86680109D01*
X231586678Y-86790897D01*
X232439647Y-86790897D01*
X232543768Y-86552467D01*
X232073723Y-86552467D01*
G37*
G36*
X232585754Y-86289345D02*
G01*
X232407774Y-86111365D01*
X232585754Y-85933385D01*
X232914822Y-86155035D01*
X232716692Y-86158406D01*
X232585754Y-86289345D01*
G37*
G36*
X232763733Y-84800660D02*
G01*
X232612645Y-84951749D01*
X232763733Y-85102837D01*
X232585754Y-85401644D01*
X231962934Y-85401644D01*
X231711095Y-85149805D01*
X231588510Y-85272391D01*
X231438429Y-85121302D01*
X231741284Y-85121302D01*
X231769860Y-85149805D01*
X232451444Y-85149805D01*
X232553880Y-84978566D01*
X231884019Y-84978566D01*
X231741284Y-85121302D01*
X231438429Y-85121302D01*
X231326633Y-85008755D01*
X231356821Y-84980252D01*
X231440792Y-85064222D01*
X231779899Y-84726801D01*
X232481633Y-84726801D01*
X232585754Y-84622680D01*
X232763733Y-84800660D01*
G37*
G36*
X231408698Y-84619823D02*
G01*
X231230719Y-84441843D01*
X231408698Y-84263936D01*
X231586605Y-84441843D01*
X231408698Y-84619823D01*
G37*
G36*
X231779899Y-84619823D02*
G01*
X231601992Y-84441916D01*
X231779899Y-84263936D01*
X232481633Y-84263936D01*
X232585754Y-84159816D01*
X232763733Y-84337795D01*
X232585754Y-84515775D01*
X231884019Y-84515775D01*
X231779899Y-84619823D01*
G37*
G36*
X232037086Y-83631298D02*
G01*
X232037086Y-83429871D01*
X232386305Y-83429871D01*
X232762414Y-83804222D01*
X232606270Y-84067785D01*
X232742264Y-84173591D01*
X232720429Y-84208835D01*
X232285628Y-83874711D01*
X232285628Y-84106400D01*
X231974951Y-84106400D01*
X231722052Y-83854634D01*
X231808182Y-83854634D01*
X232137177Y-83854634D01*
X232038185Y-83685007D01*
X232033812Y-83681710D01*
X232183852Y-83681710D01*
X232251043Y-83795869D01*
X232412170Y-83918382D01*
X232553220Y-83681710D01*
X232183852Y-83681710D01*
X232033812Y-83681710D01*
X231949159Y-83617890D01*
X231808182Y-83854634D01*
X231722052Y-83854634D01*
X231598915Y-83732049D01*
X231755059Y-83468486D01*
X231619065Y-83362680D01*
X231640900Y-83327436D01*
X232037086Y-83631298D01*
G37*
G36*
X232763733Y-82716194D02*
G01*
X232585754Y-82894100D01*
X232520248Y-82894100D01*
X232763733Y-83139198D01*
X232585754Y-83317178D01*
X232295300Y-83317178D01*
X232129117Y-83150995D01*
X231962934Y-83302084D01*
X231698774Y-82949495D01*
X231828625Y-82949495D01*
X232092188Y-83125789D01*
X232159195Y-83065339D01*
X232223126Y-83065339D01*
X232481633Y-83065339D01*
X232557177Y-82989795D01*
X232459871Y-82894100D01*
X232412830Y-82894100D01*
X232223126Y-83065339D01*
X232159195Y-83065339D01*
X232349009Y-82894100D01*
X231884019Y-82894100D01*
X231828625Y-82949495D01*
X231698774Y-82949495D01*
X231601992Y-82820315D01*
X231779899Y-82642335D01*
X232481633Y-82642335D01*
X232585754Y-82538214D01*
X232763733Y-82716194D01*
G37*
G36*
X232763733Y-82134114D02*
G01*
X232585754Y-82432921D01*
X231512966Y-82432921D01*
X231408698Y-82537042D01*
X231232404Y-82359062D01*
X231408698Y-82181155D01*
X231846943Y-82181155D01*
X231749564Y-82083776D01*
X231810160Y-82083776D01*
X231905855Y-82181155D01*
X232451444Y-82181155D01*
X232553880Y-82009917D01*
X231884019Y-82009917D01*
X231810160Y-82083776D01*
X231749564Y-82083776D01*
X231601846Y-81936058D01*
X231779752Y-81758078D01*
X232392680Y-81758078D01*
X232763733Y-82134114D01*
G37*
G36*
X231408698Y-81697628D02*
G01*
X231232404Y-81519648D01*
X231408698Y-81341742D01*
X232481633Y-81341742D01*
X232585754Y-81237621D01*
X232763733Y-81415601D01*
X232585754Y-81593507D01*
X231512966Y-81593507D01*
X231408698Y-81697628D01*
G37*
G36*
X232399421Y-80879830D02*
G01*
X232451444Y-80879830D01*
X232557177Y-80701850D01*
X232340656Y-80515517D01*
X232411144Y-80478587D01*
X232763733Y-80831103D01*
X232585754Y-81131595D01*
X231884019Y-81131595D01*
X231779899Y-81235716D01*
X231601992Y-81057736D01*
X231779899Y-80879830D01*
X231845405Y-80879830D01*
X231750368Y-80784135D01*
X231808475Y-80784135D01*
X231905855Y-80879830D01*
X232332229Y-80879830D01*
X232132488Y-80708591D01*
X231884019Y-80708591D01*
X231808475Y-80784135D01*
X231750368Y-80784135D01*
X231601992Y-80634732D01*
X231778213Y-80456752D01*
X231976343Y-80456752D01*
X232399421Y-80879830D01*
G37*
G36*
X232763733Y-79734868D02*
G01*
X232612645Y-79885957D01*
X232763733Y-80037045D01*
X232585754Y-80335852D01*
X231962934Y-80335852D01*
X231711095Y-80084013D01*
X231588510Y-80206599D01*
X231438429Y-80055510D01*
X231741284Y-80055510D01*
X231769860Y-80084013D01*
X232451444Y-80084013D01*
X232553880Y-79912774D01*
X231884019Y-79912774D01*
X231741284Y-80055510D01*
X231438429Y-80055510D01*
X231326633Y-79942963D01*
X231356821Y-79914460D01*
X231440792Y-79998430D01*
X231779899Y-79661009D01*
X232481633Y-79661009D01*
X232585754Y-79556888D01*
X232763733Y-79734868D01*
G37*
G36*
X232257491Y-79554030D02*
G01*
X232079292Y-79376124D01*
X232257491Y-79198144D01*
X232435691Y-79376124D01*
X232257491Y-79554030D01*
G37*
G36*
X231748025Y-79554030D02*
G01*
X231568360Y-79376051D01*
X231748025Y-79198144D01*
X231926005Y-79376051D01*
X231748025Y-79554030D01*
G37*
G36*
X219432594Y-82706668D02*
G01*
X219674394Y-82565984D01*
X219797370Y-82635654D01*
X219797370Y-83756851D01*
X220039171Y-83896314D01*
X219797370Y-84035777D01*
X219554166Y-83896314D01*
X219554166Y-82776399D01*
X219432594Y-82706668D01*
G37*
G36*
X220160804Y-83965923D02*
G01*
X220039171Y-83896253D01*
X220039171Y-82635532D01*
X220281032Y-82496070D01*
X220281032Y-83756851D01*
X220402604Y-83826583D01*
X220160804Y-83965923D01*
G37*
G36*
X220524298Y-82916839D02*
G01*
X220766099Y-83057523D01*
X220766099Y-84035777D01*
X221009303Y-83896436D01*
X221009303Y-82916839D01*
X220766099Y-82777498D01*
X220524298Y-82916839D01*
G37*
G36*
X219798446Y-92704440D02*
G01*
X220041651Y-92843781D01*
X220041651Y-93403952D01*
X220283512Y-93264550D01*
X220283512Y-92704440D01*
X220041651Y-92565039D01*
X219798446Y-92704440D01*
G37*
G36*
X219798446Y-92144269D02*
G01*
X220041651Y-92285014D01*
X220283512Y-92144269D01*
X220041651Y-92004929D01*
X219798446Y-92144269D01*
G37*
G36*
X219556646Y-92843781D02*
G01*
X219798446Y-92704440D01*
X219798446Y-92144269D01*
X219556646Y-92285014D01*
X219556646Y-92565039D01*
X219556646Y-92843781D01*
G37*
G36*
X219556646Y-93123866D02*
G01*
X219798446Y-92984526D01*
X219798446Y-93264550D01*
X220041651Y-93403952D01*
X219798446Y-93543293D01*
X219556646Y-93403952D01*
X219556646Y-93123866D01*
G37*
G36*
X220405206Y-92215283D02*
G01*
X220526778Y-92285014D01*
X220526778Y-93403952D01*
X220769983Y-93543293D01*
X221011783Y-93403952D01*
X220769983Y-93264550D01*
X220769983Y-92144269D01*
X220647007Y-92074599D01*
X220405206Y-92215283D01*
G37*
G36*
X220769983Y-92144269D02*
G01*
X221011783Y-92285014D01*
X221011783Y-93403952D01*
X221253645Y-93264550D01*
X221253645Y-92144269D01*
X221011783Y-92004929D01*
X220769983Y-92144269D01*
G37*
G36*
X221980939Y-92284953D02*
G01*
X221737734Y-92143598D01*
X221980939Y-92003586D01*
X222222800Y-92143598D01*
X222222800Y-93265833D01*
X222344372Y-93335564D01*
X222101167Y-93474905D01*
X221980939Y-93405234D01*
X221980939Y-92845063D01*
X221737734Y-92705723D01*
X221980939Y-92566321D01*
X221980939Y-92284953D01*
G37*
G36*
X221495934Y-93542621D02*
G01*
X221737734Y-93403280D01*
X221737734Y-92143598D01*
X221495934Y-92284343D01*
X221495934Y-93542621D01*
G37*
G36*
X224495557Y-108688519D02*
G01*
X224738762Y-108827860D01*
X224738762Y-109388031D01*
X224980623Y-109248629D01*
X224980623Y-108688519D01*
X224738762Y-108549118D01*
X224495557Y-108688519D01*
G37*
G36*
X224495557Y-108128348D02*
G01*
X224738762Y-108269093D01*
X224980623Y-108128348D01*
X224738762Y-107989008D01*
X224495557Y-108128348D01*
G37*
G36*
X224253757Y-108827860D02*
G01*
X224495557Y-108688519D01*
X224495557Y-108128348D01*
X224253757Y-108269093D01*
X224253757Y-108549118D01*
X224253757Y-108827860D01*
G37*
G36*
X224253757Y-109107945D02*
G01*
X224495557Y-108968605D01*
X224495557Y-109248629D01*
X224738762Y-109388031D01*
X224495557Y-109527372D01*
X224253757Y-109388031D01*
X224253757Y-109107945D01*
G37*
G36*
X225102317Y-108199362D02*
G01*
X225223889Y-108269093D01*
X225223889Y-109388031D01*
X225467094Y-109527372D01*
X225708894Y-109388031D01*
X225467094Y-109248629D01*
X225467094Y-108128348D01*
X225344118Y-108058678D01*
X225102317Y-108199362D01*
G37*
G36*
X226435761Y-109248629D02*
G01*
X226435761Y-107989008D01*
X226192556Y-108128348D01*
X226192556Y-109388031D01*
X226435761Y-109248629D01*
G37*
G36*
X225708894Y-108269093D02*
G01*
X225708894Y-108550522D01*
X225708894Y-109388031D01*
X225950756Y-109527372D01*
X226192556Y-109388031D01*
X225950756Y-109248629D01*
X225950756Y-108128348D01*
X225708894Y-108269093D01*
G37*
G36*
X226557028Y-108199362D02*
G01*
X226678599Y-108269093D01*
X226678599Y-109388031D01*
X226921804Y-109527372D01*
X227163605Y-109388031D01*
X226921804Y-109248629D01*
X226921804Y-108128348D01*
X226798828Y-108058678D01*
X226557028Y-108199362D01*
G37*
G36*
X226921804Y-108128348D02*
G01*
X227163605Y-108269093D01*
X227163605Y-109388031D01*
X227405466Y-109248629D01*
X227405466Y-108128348D01*
X227163605Y-107989008D01*
X226921804Y-108128348D01*
G37*
G36*
X195175074Y-83300283D02*
G01*
X195296646Y-83370014D01*
X195296646Y-84628293D01*
X195539850Y-84488952D01*
X195539850Y-83229269D01*
X195416874Y-83159599D01*
X195175074Y-83300283D01*
G37*
G36*
X195539850Y-83229269D02*
G01*
X195781651Y-83370014D01*
X195781651Y-84628293D01*
X196023512Y-84488952D01*
X196023512Y-83229269D01*
X195781651Y-83089929D01*
X195539850Y-83229269D01*
G37*
G36*
X196628746Y-84419282D02*
G01*
X196508517Y-84349550D01*
X196508517Y-83229269D01*
X196265313Y-83089929D01*
X196023512Y-83229269D01*
X196265313Y-83370014D01*
X196265313Y-84488952D01*
X196386885Y-84558622D01*
X196628746Y-84419282D01*
G37*
G36*
X196751356Y-83368915D02*
G01*
X196993156Y-83228048D01*
X196993156Y-84349367D01*
X197236361Y-84488830D01*
X196993156Y-84628293D01*
X196751356Y-84488830D01*
X196751356Y-83368915D01*
G37*
G36*
X197236361Y-84488830D02*
G01*
X197236361Y-83368915D01*
X196993156Y-83228048D01*
X197236361Y-83088586D01*
X197478223Y-83228048D01*
X197478223Y-84349367D01*
X197236361Y-84488830D01*
G37*
G36*
X197963289Y-83789440D02*
G01*
X198206494Y-83928781D01*
X198206494Y-84488952D01*
X198448355Y-84349550D01*
X198448355Y-83789440D01*
X198206494Y-83650039D01*
X197963289Y-83789440D01*
G37*
G36*
X197963289Y-83229269D02*
G01*
X198206494Y-83370014D01*
X198448355Y-83229269D01*
X198206494Y-83089929D01*
X197963289Y-83229269D01*
G37*
G36*
X197721488Y-83928781D02*
G01*
X197963289Y-83789440D01*
X197963289Y-83229269D01*
X197721488Y-83370014D01*
X197721488Y-83650039D01*
X197721488Y-83928781D01*
G37*
G36*
X197721488Y-84208866D02*
G01*
X197963289Y-84069526D01*
X197963289Y-84349550D01*
X198206494Y-84488952D01*
X197963289Y-84628293D01*
X197721488Y-84488952D01*
X197721488Y-84208866D01*
G37*
G36*
X198570049Y-83300283D02*
G01*
X198811850Y-83159599D01*
X198934826Y-83229269D01*
X198934826Y-84488952D01*
X198691621Y-84628293D01*
X198691621Y-83370014D01*
X198570049Y-83300283D01*
G37*
G36*
X199781433Y-83159599D02*
G01*
X199539632Y-83300283D01*
X199539632Y-83579025D01*
X199417999Y-83650039D01*
X199417999Y-83928781D01*
X199297771Y-83999795D01*
X199297771Y-84278537D01*
X199176199Y-84349550D01*
X199176199Y-84628293D01*
X199417999Y-84488952D01*
X199417999Y-84208866D01*
X199539632Y-84139196D01*
X199539632Y-83859111D01*
X199661204Y-83789440D01*
X199661204Y-83509355D01*
X199781433Y-83439685D01*
X199781433Y-83159599D01*
G37*
G36*
X200144866Y-83789440D02*
G01*
X200388071Y-83928781D01*
X200388071Y-84488952D01*
X200629932Y-84349550D01*
X200629932Y-83789440D01*
X200388071Y-83650039D01*
X200144866Y-83789440D01*
G37*
G36*
X200144866Y-83229269D02*
G01*
X200388071Y-83370014D01*
X200629932Y-83229269D01*
X200388071Y-83089929D01*
X200144866Y-83229269D01*
G37*
G36*
X199903066Y-83928781D02*
G01*
X200144866Y-83789440D01*
X200144866Y-83229269D01*
X199903066Y-83370014D01*
X199903066Y-83650039D01*
X199903066Y-83928781D01*
G37*
G36*
X199903066Y-84208866D02*
G01*
X200144866Y-84069526D01*
X200144866Y-84349550D01*
X200388071Y-84488952D01*
X200144866Y-84628293D01*
X199903066Y-84488952D01*
X199903066Y-84208866D01*
G37*
G36*
X200751626Y-83300283D02*
G01*
X200873198Y-83370014D01*
X200873198Y-84488952D01*
X201116403Y-84628293D01*
X201358203Y-84488952D01*
X201116403Y-84349550D01*
X201116403Y-83229269D01*
X200993427Y-83159599D01*
X200751626Y-83300283D01*
G37*
G36*
X201116403Y-83229269D02*
G01*
X201358203Y-83370014D01*
X201358203Y-84488952D01*
X201600065Y-84349550D01*
X201600065Y-83229269D01*
X201358203Y-83089929D01*
X201116403Y-83229269D01*
G37*
G36*
X202327359Y-83369953D02*
G01*
X202084154Y-83228598D01*
X202327359Y-83088586D01*
X202569221Y-83228598D01*
X202569221Y-84350833D01*
X202690792Y-84420564D01*
X202447588Y-84559905D01*
X202327359Y-84490234D01*
X202327359Y-83930063D01*
X202084154Y-83790723D01*
X202327359Y-83651321D01*
X202327359Y-83369953D01*
G37*
G36*
X201842354Y-84627621D02*
G01*
X202084154Y-84488280D01*
X202084154Y-83228598D01*
X201842354Y-83369343D01*
X201842354Y-84627621D01*
G37*
G36*
X210803448Y-90374491D02*
G01*
X210951764Y-90256961D01*
X211100019Y-90374491D01*
X211100019Y-91089781D01*
X211186787Y-91159195D01*
X211038470Y-91277848D01*
X210890215Y-91159195D01*
X210890215Y-90444003D01*
X210803448Y-90374491D01*
G37*
G36*
X211189779Y-90557282D02*
G01*
X211338034Y-90438678D01*
X211438784Y-90519229D01*
X211686446Y-90321148D01*
X211831954Y-90438678D01*
X211834702Y-90438678D01*
X211834702Y-90609892D01*
X211486351Y-90917687D01*
X211486351Y-91090074D01*
X211518529Y-91115817D01*
X211651459Y-91009474D01*
X211834702Y-91156068D01*
X211686385Y-91273354D01*
X211559074Y-91171504D01*
X211426206Y-91277848D01*
X211276485Y-91159195D01*
X211276485Y-91063207D01*
X211624897Y-90752042D01*
X211624897Y-90509167D01*
X211561944Y-90459927D01*
X211486351Y-90520353D01*
X211486351Y-90753165D01*
X211276485Y-90753165D01*
X211276485Y-90626696D01*
X211189779Y-90557282D01*
G37*
G36*
X212380218Y-90817841D02*
G01*
X212590084Y-90817841D01*
X212590084Y-91057345D01*
X212310304Y-91277848D01*
X211971722Y-91159195D01*
X211971722Y-90562802D01*
X211884955Y-90493340D01*
X212033271Y-90374491D01*
X212154965Y-90471846D01*
X212377409Y-90255838D01*
X212590084Y-90374491D01*
X212590084Y-90596117D01*
X212380218Y-90596117D01*
X212380218Y-90459585D01*
X212273851Y-90400234D01*
X212181527Y-90493144D01*
X212181527Y-91061790D01*
X212380218Y-91131204D01*
X212380218Y-90817841D01*
G37*
G36*
X212640154Y-90504331D02*
G01*
X212788470Y-90385677D01*
X212914377Y-90485328D01*
X213132608Y-90255838D01*
X213345283Y-90374491D01*
X213345283Y-90448350D01*
X213542509Y-90255838D01*
X213755183Y-90374491D01*
X213755183Y-91089781D01*
X213841890Y-91159195D01*
X213693634Y-91277848D01*
X213545318Y-91159195D01*
X213545318Y-90459683D01*
X213439011Y-90400381D01*
X213345283Y-90492118D01*
X213345283Y-91089781D01*
X213431989Y-91159195D01*
X213283734Y-91277848D01*
X213135417Y-91159195D01*
X213135417Y-90459683D01*
X213036071Y-90403703D01*
X212936726Y-90507799D01*
X212936726Y-91089781D01*
X213023493Y-91159195D01*
X212875176Y-91277848D01*
X212726921Y-91159195D01*
X212726921Y-90573744D01*
X212640154Y-90504331D01*
G37*
G36*
X214818922Y-90622886D02*
G01*
X214818922Y-90948608D01*
X214490110Y-91209362D01*
X214490110Y-91406368D01*
X214341855Y-91524973D01*
X214193538Y-91406368D01*
X214280305Y-91336954D01*
X214280305Y-90692300D01*
X214273528Y-90686878D01*
X214490110Y-90686878D01*
X214490110Y-91164812D01*
X214609056Y-91049529D01*
X214609056Y-90691372D01*
X214547507Y-90642132D01*
X214490110Y-90686878D01*
X214273528Y-90686878D01*
X214193538Y-90622886D01*
X214341855Y-90504282D01*
X214490110Y-90621763D01*
X214490110Y-90648629D01*
X214670606Y-90504282D01*
X214818922Y-90622886D01*
G37*
G36*
X214869602Y-90621958D02*
G01*
X215017919Y-90503354D01*
X215166174Y-90621958D01*
X215166174Y-91089781D01*
X215229128Y-91139069D01*
X215308873Y-91075273D01*
X215308873Y-90691372D01*
X215222167Y-90621958D01*
X215370422Y-90503354D01*
X215518739Y-90621958D01*
X215518739Y-91089781D01*
X215605506Y-91159195D01*
X215457190Y-91277848D01*
X215308873Y-91159195D01*
X215308873Y-91114449D01*
X215104625Y-91277848D01*
X214956370Y-91159195D01*
X214956370Y-90691372D01*
X214869602Y-90621958D01*
G37*
G36*
X215607216Y-90374491D02*
G01*
X215755532Y-90256961D01*
X215903788Y-90374491D01*
X215903788Y-91089781D01*
X215990555Y-91159195D01*
X215842238Y-91277848D01*
X215693983Y-91159195D01*
X215693983Y-90444003D01*
X215607216Y-90374491D01*
G37*
G36*
X215992143Y-90374491D02*
G01*
X216140459Y-90256961D01*
X216288714Y-90374491D01*
X216288714Y-91089781D01*
X216375482Y-91159195D01*
X216227165Y-91277848D01*
X216078910Y-91159195D01*
X216078910Y-90444003D01*
X215992143Y-90374491D01*
G37*
G36*
X216377069Y-90621958D02*
G01*
X216525386Y-90503354D01*
X216673641Y-90621958D01*
X216673641Y-91089781D01*
X216736595Y-91139069D01*
X216816340Y-91075273D01*
X216816340Y-90691372D01*
X216729634Y-90621958D01*
X216877889Y-90503354D01*
X217026206Y-90621958D01*
X217026206Y-91089781D01*
X217112973Y-91159195D01*
X216964657Y-91277848D01*
X216816340Y-91159195D01*
X216816340Y-91114449D01*
X216612092Y-91277848D01*
X216463837Y-91159195D01*
X216463837Y-90691372D01*
X216377069Y-90621958D01*
G37*
G36*
X217740066Y-90622886D02*
G01*
X217740066Y-90948608D01*
X217411255Y-91209362D01*
X217411255Y-91406368D01*
X217262999Y-91524973D01*
X217114683Y-91406368D01*
X217201450Y-91336954D01*
X217201450Y-90692300D01*
X217194673Y-90686878D01*
X217411255Y-90686878D01*
X217411255Y-91164812D01*
X217530201Y-91049529D01*
X217530201Y-90691372D01*
X217468652Y-90642132D01*
X217411255Y-90686878D01*
X217194673Y-90686878D01*
X217114683Y-90622886D01*
X217262999Y-90504282D01*
X217411255Y-90621763D01*
X217411255Y-90648629D01*
X217591750Y-90504282D01*
X217740066Y-90622886D01*
G37*
G36*
X191296205Y-105680976D02*
G01*
X191538006Y-105821721D01*
X191538006Y-106380488D01*
X191779867Y-106241147D01*
X191779867Y-105680976D01*
X191538006Y-105541636D01*
X191296205Y-105680976D01*
G37*
G36*
X190931429Y-105751990D02*
G01*
X191053001Y-105821721D01*
X191053001Y-107080000D01*
X191296205Y-106940659D01*
X191296205Y-106521233D01*
X191538006Y-106380488D01*
X191296205Y-106241147D01*
X191296205Y-105680976D01*
X191173229Y-105611306D01*
X190931429Y-105751990D01*
G37*
G36*
X191900584Y-105751990D02*
G01*
X192022156Y-105821721D01*
X192022156Y-106940659D01*
X192265361Y-107080000D01*
X192507161Y-106940659D01*
X192265361Y-106801257D01*
X192265361Y-105680976D01*
X192142385Y-105611306D01*
X191900584Y-105751990D01*
G37*
G36*
X193234028Y-106801257D02*
G01*
X193234028Y-105541636D01*
X192990823Y-105680976D01*
X192990823Y-106940659D01*
X193234028Y-106801257D01*
G37*
G36*
X192507161Y-105821721D02*
G01*
X192507161Y-106103150D01*
X192507161Y-106940659D01*
X192749023Y-107080000D01*
X192990823Y-106940659D01*
X192749023Y-106801257D01*
X192749023Y-105680976D01*
X192507161Y-105821721D01*
G37*
G36*
X193720071Y-105680976D02*
G01*
X193961872Y-105821721D01*
X193961872Y-106380488D01*
X194203733Y-106241147D01*
X194203733Y-105680976D01*
X193961872Y-105541636D01*
X193720071Y-105680976D01*
G37*
G36*
X193355295Y-105751990D02*
G01*
X193476867Y-105821721D01*
X193476867Y-107080000D01*
X193720071Y-106940659D01*
X193720071Y-105680976D01*
X193597095Y-105611306D01*
X193355295Y-105751990D01*
G37*
G36*
X193720071Y-106521233D02*
G01*
X193961872Y-106380488D01*
X194203733Y-106521233D01*
X194203733Y-106801257D01*
X194325305Y-106870989D01*
X194083505Y-107010329D01*
X193961872Y-106940659D01*
X193961872Y-106660573D01*
X193720071Y-106521233D01*
G37*
G36*
X221564807Y-98323965D02*
G01*
X221927507Y-98535082D01*
X221927507Y-99373232D01*
X222290300Y-99164221D01*
X222290300Y-98323965D01*
X221927507Y-98114954D01*
X221564807Y-98323965D01*
G37*
G36*
X221017642Y-98430485D02*
G01*
X221200000Y-98535082D01*
X221200000Y-100422500D01*
X221564807Y-100213489D01*
X221564807Y-98323965D01*
X221380342Y-98219460D01*
X221017642Y-98430485D01*
G37*
G36*
X221564807Y-99584350D02*
G01*
X221927507Y-99373232D01*
X222290300Y-99584350D01*
X222290300Y-100004386D01*
X222472657Y-100108983D01*
X222109957Y-100317994D01*
X221927507Y-100213489D01*
X221927507Y-99793360D01*
X221564807Y-99584350D01*
G37*
G36*
X224618717Y-104598263D02*
G01*
X224860517Y-104457579D01*
X224983493Y-104527249D01*
X224983493Y-105648446D01*
X225225294Y-105787909D01*
X224983493Y-105927372D01*
X224740289Y-105787909D01*
X224740289Y-104667994D01*
X224618717Y-104598263D01*
G37*
G36*
X225225294Y-105787909D02*
G01*
X225225294Y-104527127D01*
X225467155Y-104387665D01*
X225467155Y-105648446D01*
X225225294Y-105787909D01*
G37*
G36*
X225587872Y-104599362D02*
G01*
X225709444Y-104669093D01*
X225709444Y-105788031D01*
X225952649Y-105927372D01*
X226194449Y-105788031D01*
X225952649Y-105648629D01*
X225952649Y-104528348D01*
X225829673Y-104458678D01*
X225587872Y-104599362D01*
G37*
G36*
X225952649Y-104528348D02*
G01*
X226194449Y-104669093D01*
X226194449Y-105788031D01*
X226436311Y-105648629D01*
X226436311Y-104528348D01*
X226194449Y-104389008D01*
X225952649Y-104528348D01*
G37*
G36*
X226557028Y-104599362D02*
G01*
X226678600Y-104669093D01*
X226678600Y-105788031D01*
X226921805Y-105927372D01*
X227163605Y-105788031D01*
X226921805Y-105648629D01*
X226921805Y-104528348D01*
X226798828Y-104458678D01*
X226557028Y-104599362D01*
G37*
G36*
X226921805Y-104528348D02*
G01*
X227163605Y-104669093D01*
X227163605Y-105788031D01*
X227405466Y-105648629D01*
X227405466Y-104528348D01*
X227163605Y-104389008D01*
X226921805Y-104528348D01*
G37*
G36*
X211426958Y-79076254D02*
G01*
X211426958Y-79776889D01*
X211533326Y-79836191D01*
X211625650Y-79744405D01*
X211625650Y-79145619D01*
X211538883Y-79076254D01*
X211687199Y-78957601D01*
X211835516Y-79076254D01*
X211835516Y-79791446D01*
X211922222Y-79860958D01*
X211773966Y-79978487D01*
X211625650Y-79860958D01*
X211625650Y-79788173D01*
X211431172Y-79980685D01*
X211217154Y-79860958D01*
X211217154Y-79145668D01*
X211130387Y-79076254D01*
X211278703Y-78957601D01*
X211426958Y-79076254D01*
G37*
G36*
X212498635Y-79307161D02*
G01*
X212586807Y-79216498D01*
X212616177Y-79231055D01*
X212362958Y-79495179D01*
X212530814Y-79495179D01*
X212530814Y-79727992D01*
X212218855Y-79978731D01*
X211999219Y-79874635D01*
X211911048Y-79965298D01*
X211881677Y-79950741D01*
X212079080Y-79745235D01*
X212123722Y-79745235D01*
X212320948Y-79839269D01*
X212320948Y-79593023D01*
X212225816Y-79637817D01*
X212123722Y-79745235D01*
X212079080Y-79745235D01*
X212160114Y-79660874D01*
X211967040Y-79660874D01*
X211967040Y-79561907D01*
X212176845Y-79561907D01*
X212318201Y-79495912D01*
X212374132Y-79436561D01*
X212176845Y-79342576D01*
X212176845Y-79561907D01*
X211967040Y-79561907D01*
X211967040Y-79453756D01*
X212279000Y-79203065D01*
X212498635Y-79307161D01*
G37*
G36*
X213265496Y-79322597D02*
G01*
X213265496Y-79454684D01*
X212912932Y-79736736D01*
X212912932Y-79771418D01*
X213061248Y-79841907D01*
X213216526Y-79697559D01*
X213247300Y-79744551D01*
X212953537Y-79979611D01*
X212703127Y-79860958D01*
X212703127Y-79407692D01*
X212912932Y-79407692D01*
X212912932Y-79691941D01*
X213055631Y-79558780D01*
X213055631Y-79393135D01*
X212992677Y-79342772D01*
X212912932Y-79407692D01*
X212703127Y-79407692D01*
X212703127Y-79393135D01*
X212616360Y-79323721D01*
X212764676Y-79205117D01*
X212912932Y-79323721D01*
X212912932Y-79367392D01*
X213117180Y-79205117D01*
X213265496Y-79322597D01*
G37*
G36*
X213613848Y-79323721D02*
G01*
X213613848Y-79368515D01*
X213818096Y-79205117D01*
X213966412Y-79323721D01*
X213818096Y-79442374D01*
X213693593Y-79343895D01*
X213613848Y-79407692D01*
X213613848Y-79791544D01*
X213700615Y-79860958D01*
X213552299Y-79979611D01*
X213403982Y-79860958D01*
X213403982Y-79393135D01*
X213317276Y-79323721D01*
X213465531Y-79205117D01*
X213613848Y-79323721D01*
G37*
G36*
X214817110Y-79205117D02*
G01*
X214965427Y-79323721D01*
X214965427Y-79366268D01*
X215166866Y-79205117D01*
X215315182Y-79323721D01*
X215315182Y-79791544D01*
X215401950Y-79860958D01*
X215253633Y-79979611D01*
X215105317Y-79860958D01*
X215105317Y-79393135D01*
X215043768Y-79343895D01*
X214965427Y-79405445D01*
X214965427Y-79791544D01*
X215052194Y-79860958D01*
X214903877Y-79979611D01*
X214755561Y-79860958D01*
X214755561Y-79393135D01*
X214694012Y-79343895D01*
X214612862Y-79407692D01*
X214612862Y-79791544D01*
X214699629Y-79860958D01*
X214551313Y-79979611D01*
X214403057Y-79860958D01*
X214403057Y-79393135D01*
X214316290Y-79323721D01*
X214464607Y-79205117D01*
X214612862Y-79323721D01*
X214612862Y-79368515D01*
X214817110Y-79205117D01*
G37*
G36*
X216016404Y-79323721D02*
G01*
X216016404Y-79732242D01*
X215703040Y-79979611D01*
X215454034Y-79860958D01*
X215454034Y-79771418D01*
X215663900Y-79771418D01*
X215806599Y-79839708D01*
X215806599Y-79413260D01*
X215663900Y-79345019D01*
X215663900Y-79771418D01*
X215454034Y-79771418D01*
X215454034Y-79452437D01*
X215767398Y-79205117D01*
X216016404Y-79323721D01*
G37*
G36*
X216468558Y-79041669D02*
G01*
X216398583Y-79097650D01*
X216679767Y-79323721D01*
X216679767Y-79791544D01*
X216766534Y-79860958D01*
X216618218Y-79979611D01*
X216492311Y-79878885D01*
X216366404Y-79979611D01*
X216117398Y-79860958D01*
X216117398Y-79445745D01*
X216278293Y-79317029D01*
X216327264Y-79317029D01*
X216327264Y-79771418D01*
X216469963Y-79839708D01*
X216469963Y-79393135D01*
X216351016Y-79297978D01*
X216327264Y-79317029D01*
X216278293Y-79317029D01*
X216327264Y-79277852D01*
X216225109Y-79196128D01*
X216444806Y-79021544D01*
X216468558Y-79041669D01*
G37*
G36*
X217416648Y-79322597D02*
G01*
X217416648Y-79454684D01*
X217064083Y-79736736D01*
X217064083Y-79771418D01*
X217212400Y-79841907D01*
X217367677Y-79697559D01*
X217398452Y-79744551D01*
X217104689Y-79979611D01*
X216854279Y-79860958D01*
X216854279Y-79407692D01*
X217064083Y-79407692D01*
X217064083Y-79691941D01*
X217206782Y-79558780D01*
X217206782Y-79393135D01*
X217143829Y-79342772D01*
X217064083Y-79407692D01*
X216854279Y-79407692D01*
X216854279Y-79393135D01*
X216767511Y-79323721D01*
X216915828Y-79205117D01*
X217064083Y-79323721D01*
X217064083Y-79367392D01*
X217268331Y-79205117D01*
X217416648Y-79322597D01*
G37*
G36*
X214417642Y-98478837D02*
G01*
X214780342Y-98267811D01*
X214964807Y-98372316D01*
X214964807Y-100054112D01*
X215327507Y-100263306D01*
X214964807Y-100472500D01*
X214600000Y-100263306D01*
X214600000Y-98583434D01*
X214417642Y-98478837D01*
G37*
G36*
X215327507Y-98162939D02*
G01*
X215690300Y-98372133D01*
X215690300Y-98792628D01*
X215327507Y-99003928D01*
X215327507Y-98583434D01*
X214964807Y-98372133D01*
X215327507Y-98162939D01*
G37*
G36*
X214964807Y-99211016D02*
G01*
X215327507Y-99422316D01*
X215327507Y-100263306D01*
X215690300Y-100054112D01*
X215690300Y-99213031D01*
X215327507Y-99004020D01*
X214964807Y-99211016D01*
G37*
D10*
G36*
X223636635Y-70215195D02*
G01*
X224407191Y-69107139D01*
X224151011Y-69107139D01*
X223917589Y-69113110D01*
X223802690Y-69126287D01*
X223770908Y-69328032D01*
X223700200Y-69328032D01*
X223700200Y-69024902D01*
X224635711Y-69024902D01*
X224635711Y-69107139D01*
X223860026Y-70224770D01*
X224157239Y-70224770D01*
X224398490Y-70214255D01*
X224571231Y-70193226D01*
X224631681Y-69948397D01*
X224703396Y-69948397D01*
X224675736Y-70305126D01*
X223636635Y-70305126D01*
X223636635Y-70215195D01*
G37*
D13*
G36*
X225371315Y-96389440D02*
G01*
X225614520Y-96528781D01*
X225614520Y-97088952D01*
X225856381Y-96949550D01*
X225856381Y-96389440D01*
X225614520Y-96250039D01*
X225371315Y-96389440D01*
G37*
G36*
X225371315Y-95829269D02*
G01*
X225614520Y-95970014D01*
X225856381Y-95829269D01*
X225614520Y-95689929D01*
X225371315Y-95829269D01*
G37*
G36*
X225129515Y-96528781D02*
G01*
X225371315Y-96389440D01*
X225371315Y-95829269D01*
X225129515Y-95970014D01*
X225129515Y-96250039D01*
X225129515Y-96528781D01*
G37*
G36*
X225129515Y-96808866D02*
G01*
X225371315Y-96669526D01*
X225371315Y-96949550D01*
X225614520Y-97088952D01*
X225371315Y-97228293D01*
X225129515Y-97088952D01*
X225129515Y-96808866D01*
G37*
G36*
X226584652Y-96808500D02*
G01*
X226826514Y-96669037D01*
X226826514Y-96949367D01*
X226584652Y-97088830D01*
X226584652Y-96808500D01*
G37*
G36*
X226099647Y-95968915D02*
G01*
X226341448Y-95828048D01*
X226341448Y-96949367D01*
X226584652Y-97088830D01*
X226341448Y-97228293D01*
X226099647Y-97088830D01*
X226099647Y-95968915D01*
G37*
G36*
X226341448Y-95828048D02*
G01*
X226584652Y-95688586D01*
X226826514Y-95828048D01*
X226826514Y-96108378D01*
X226584652Y-96249245D01*
X226584652Y-95968915D01*
X226341448Y-95828048D01*
G37*
G36*
X226948208Y-95900283D02*
G01*
X227190008Y-95759599D01*
X227312984Y-95829269D01*
X227312984Y-96949550D01*
X227554785Y-97088952D01*
X227312984Y-97228293D01*
X227069780Y-97088952D01*
X227069780Y-95970014D01*
X226948208Y-95900283D01*
G37*
G36*
X195296646Y-78288915D02*
G01*
X195538446Y-78148048D01*
X195538446Y-78708708D01*
X195781651Y-78571321D01*
X196023512Y-78710417D01*
X196023512Y-79269550D01*
X196145084Y-79339099D01*
X195901879Y-79478439D01*
X195781651Y-79408769D01*
X195781651Y-78848170D01*
X195538446Y-78708708D01*
X195538446Y-79269367D01*
X195781651Y-79408830D01*
X195538446Y-79548293D01*
X195296646Y-79408830D01*
X195296646Y-78288915D01*
G37*
G36*
X195538446Y-78148048D02*
G01*
X195781651Y-78008586D01*
X196023512Y-78148048D01*
X195781651Y-78288793D01*
X195538446Y-78148048D01*
G37*
G36*
X196144229Y-78219184D02*
G01*
X196386030Y-78078500D01*
X196509006Y-78148170D01*
X196509006Y-79408830D01*
X196265801Y-79548293D01*
X196265801Y-78288915D01*
X196144229Y-78219184D01*
G37*
G36*
X196872439Y-79478439D02*
G01*
X196750806Y-79408769D01*
X196750806Y-78288915D01*
X196509006Y-78148048D01*
X196750806Y-78008586D01*
X196992668Y-78148048D01*
X196992668Y-79269367D01*
X197114240Y-79339099D01*
X196872439Y-79478439D01*
G37*
G36*
X197114362Y-78220283D02*
G01*
X197235934Y-78290014D01*
X197235934Y-79408952D01*
X197479139Y-79548293D01*
X197720939Y-79408952D01*
X197479139Y-79269550D01*
X197479139Y-78149269D01*
X197356162Y-78079599D01*
X197114362Y-78220283D01*
G37*
G36*
X197479139Y-78149269D02*
G01*
X197720939Y-78290014D01*
X197720939Y-79408952D01*
X197962800Y-79269550D01*
X197962800Y-78149269D01*
X197720939Y-78009929D01*
X197479139Y-78149269D01*
G37*
G36*
X226341386Y-76488500D02*
G01*
X226583247Y-76349037D01*
X226583247Y-76629367D01*
X226341386Y-76768830D01*
X226341386Y-76488500D01*
G37*
G36*
X225856381Y-75648915D02*
G01*
X226098181Y-75508048D01*
X226098181Y-76629367D01*
X226341386Y-76768830D01*
X226098181Y-76908293D01*
X225856381Y-76768830D01*
X225856381Y-75648915D01*
G37*
G36*
X226098181Y-75508048D02*
G01*
X226341386Y-75368586D01*
X226583247Y-75508048D01*
X226583247Y-75788378D01*
X226341386Y-75929245D01*
X226341386Y-75648915D01*
X226098181Y-75508048D01*
G37*
G36*
X227068314Y-76069440D02*
G01*
X227311518Y-76208781D01*
X227311518Y-76768952D01*
X227553380Y-76629550D01*
X227553380Y-76069440D01*
X227311518Y-75930039D01*
X227068314Y-76069440D01*
G37*
G36*
X227068314Y-75509269D02*
G01*
X227311518Y-75650014D01*
X227553380Y-75509269D01*
X227311518Y-75369929D01*
X227068314Y-75509269D01*
G37*
G36*
X226826513Y-76208781D02*
G01*
X227068314Y-76069440D01*
X227068314Y-75509269D01*
X226826513Y-75650014D01*
X226826513Y-75930039D01*
X226826513Y-76208781D01*
G37*
G36*
X226826513Y-76488866D02*
G01*
X227068314Y-76349526D01*
X227068314Y-76629550D01*
X227311518Y-76768952D01*
X227068314Y-76908293D01*
X226826513Y-76768952D01*
X226826513Y-76488866D01*
G37*
G36*
X203388291Y-110268944D02*
G01*
X203388291Y-111319897D01*
X203515932Y-111408850D01*
X203626721Y-111271170D01*
X203626721Y-110372992D01*
X203522600Y-110268944D01*
X203700580Y-110090965D01*
X203878559Y-110268944D01*
X203878559Y-111341732D01*
X203982607Y-111446000D01*
X203804700Y-111622294D01*
X203626721Y-111446000D01*
X203626721Y-111336823D01*
X203393347Y-111625591D01*
X203136525Y-111446000D01*
X203136525Y-110373065D01*
X203032405Y-110268944D01*
X203210384Y-110090965D01*
X203388291Y-110268944D01*
G37*
G36*
X204875803Y-110275832D02*
G01*
X204875803Y-110531041D01*
X204949662Y-110606586D01*
X204753217Y-110764415D01*
X204623964Y-110604900D01*
X204623964Y-110421938D01*
X204341937Y-110299353D01*
X204341937Y-110705651D01*
X204892582Y-110970898D01*
X204892582Y-111229405D01*
X204640817Y-111481244D01*
X204640817Y-111479558D01*
X204496396Y-111623979D01*
X204090098Y-111446000D01*
X204090098Y-111155546D01*
X203986051Y-111051498D01*
X204163957Y-110871833D01*
X204341937Y-111051498D01*
X204341937Y-111299967D01*
X204640817Y-111430905D01*
X204640817Y-110970898D01*
X204090098Y-110707336D01*
X204090098Y-110470591D01*
X204462837Y-110096240D01*
X204875803Y-110275832D01*
G37*
G36*
X205797722Y-110268944D02*
G01*
X205797722Y-110525473D01*
X205609704Y-110711586D01*
X205856487Y-110954705D01*
X205856487Y-111534953D01*
X205678507Y-111712933D01*
X205411574Y-111446000D01*
X205233668Y-111622294D01*
X205055688Y-111446000D01*
X205055688Y-111011198D01*
X205307453Y-111011198D01*
X205307453Y-111284799D01*
X205529104Y-111506450D01*
X205604648Y-111430905D01*
X205604648Y-111061537D01*
X205430039Y-110888613D01*
X205307453Y-111011198D01*
X205055688Y-111011198D01*
X205055688Y-110551411D01*
X204951567Y-110447217D01*
X204952810Y-110445972D01*
X205307453Y-110445972D01*
X205307453Y-110951334D01*
X205545883Y-110712905D01*
X205545883Y-110395633D01*
X205419927Y-110306680D01*
X205307453Y-110445972D01*
X204952810Y-110445972D01*
X205129547Y-110268944D01*
X205275580Y-110414977D01*
X205542513Y-110090965D01*
X205797722Y-110268944D01*
G37*
G36*
X216046340Y-110293944D02*
G01*
X216046340Y-111344897D01*
X216173981Y-111433850D01*
X216284770Y-111296170D01*
X216284770Y-110397992D01*
X216180649Y-110293944D01*
X216358629Y-110115965D01*
X216536608Y-110293944D01*
X216536608Y-111366732D01*
X216640656Y-111471000D01*
X216462749Y-111647294D01*
X216284770Y-111471000D01*
X216284770Y-111361823D01*
X216051396Y-111650591D01*
X215794574Y-111471000D01*
X215794574Y-110398065D01*
X215690454Y-110293944D01*
X215868433Y-110115965D01*
X216046340Y-110293944D01*
G37*
G36*
X217488569Y-110293944D02*
G01*
X217488569Y-111366879D01*
X217592617Y-111471000D01*
X217414710Y-111648979D01*
X217236731Y-111471000D01*
X217236731Y-111053637D01*
X216998301Y-111053637D01*
X216998301Y-111367465D01*
X217102421Y-111471000D01*
X216924442Y-111648979D01*
X216746535Y-111471000D01*
X216746535Y-110576411D01*
X216644392Y-110474196D01*
X216998301Y-110474196D01*
X216998301Y-111011432D01*
X217236731Y-111011432D01*
X217236731Y-110423857D01*
X217110775Y-110334904D01*
X216998301Y-110474196D01*
X216644392Y-110474196D01*
X216642414Y-110472217D01*
X216820394Y-110293944D01*
X216966427Y-110439977D01*
X217233360Y-110115965D01*
X217488569Y-110293944D01*
G37*
G36*
X218439358Y-110293944D02*
G01*
X218439358Y-110626383D01*
X218224449Y-110837995D01*
X218439358Y-111051219D01*
X218439358Y-111457591D01*
X218543405Y-111561638D01*
X218365499Y-111739618D01*
X218187519Y-111561638D01*
X218187519Y-111155340D01*
X218044784Y-111014290D01*
X217949089Y-111109984D01*
X217949089Y-111366879D01*
X218053210Y-111471000D01*
X217875230Y-111648979D01*
X217697324Y-111471000D01*
X217697324Y-110576411D01*
X217593203Y-110472217D01*
X217593423Y-110471997D01*
X217949089Y-110471997D01*
X217949089Y-111051219D01*
X218187519Y-110811177D01*
X218187519Y-110421659D01*
X218061563Y-110332706D01*
X217949089Y-110471997D01*
X217593423Y-110471997D01*
X217771183Y-110293944D01*
X217917216Y-110439977D01*
X218184149Y-110115965D01*
X218439358Y-110293944D01*
G37*
G36*
X218672732Y-110576265D02*
G01*
X218494752Y-110397845D01*
X218672732Y-110218913D01*
X219235101Y-110218913D01*
X219339222Y-110114866D01*
X219517128Y-110293944D01*
X219339222Y-110472144D01*
X219045398Y-110472144D01*
X219204913Y-110631879D01*
X219204913Y-111366732D01*
X219308960Y-111471000D01*
X219131054Y-111648979D01*
X218953074Y-111471000D01*
X218953074Y-110736146D01*
X218847341Y-110630193D01*
X219006783Y-110472144D01*
X218776779Y-110472144D01*
X218672732Y-110576265D01*
G37*
G36*
X224888203Y-85808915D02*
G01*
X225130003Y-85668048D01*
X225130003Y-86228708D01*
X225373208Y-86091321D01*
X225615069Y-86230417D01*
X225615069Y-86789550D01*
X225736641Y-86859099D01*
X225493436Y-86998439D01*
X225373208Y-86928769D01*
X225373208Y-86368170D01*
X225130003Y-86228708D01*
X225130003Y-86789367D01*
X225373208Y-86928830D01*
X225130003Y-87068293D01*
X224888203Y-86928830D01*
X224888203Y-85808915D01*
G37*
G36*
X225130003Y-85668048D02*
G01*
X225373208Y-85528586D01*
X225615069Y-85668048D01*
X225373208Y-85808793D01*
X225130003Y-85668048D01*
G37*
G36*
X225735786Y-85739184D02*
G01*
X225977587Y-85598500D01*
X226100563Y-85668170D01*
X226100563Y-86928830D01*
X225857358Y-87068293D01*
X225857358Y-85808915D01*
X225735786Y-85739184D01*
G37*
G36*
X226463996Y-86998439D02*
G01*
X226342363Y-86928769D01*
X226342363Y-85808915D01*
X226100563Y-85668048D01*
X226342363Y-85528586D01*
X226584225Y-85668048D01*
X226584225Y-86789367D01*
X226705797Y-86859099D01*
X226463996Y-86998439D01*
G37*
G36*
X226705919Y-85740283D02*
G01*
X226827491Y-85810014D01*
X226827491Y-86928952D01*
X227070696Y-87068293D01*
X227312496Y-86928952D01*
X227070696Y-86789550D01*
X227070696Y-85669269D01*
X226947719Y-85599599D01*
X226705919Y-85740283D01*
G37*
G36*
X227070696Y-85669269D02*
G01*
X227312496Y-85810014D01*
X227312496Y-86928952D01*
X227554357Y-86789550D01*
X227554357Y-85669269D01*
X227312496Y-85529929D01*
X227070696Y-85669269D01*
G37*
D10*
G36*
X218611033Y-68478616D02*
G01*
X218781118Y-68504433D01*
X218781118Y-68555126D01*
X218332322Y-68555126D01*
X218332322Y-68504433D01*
X218483997Y-68478616D01*
X218951294Y-67900225D01*
X218552690Y-67350471D01*
X218397901Y-67325595D01*
X218397901Y-67274902D01*
X218964575Y-67274902D01*
X218964575Y-67325595D01*
X218790369Y-67350471D01*
X219075217Y-67745583D01*
X219393954Y-67350471D01*
X219223869Y-67325595D01*
X219223869Y-67274902D01*
X219673673Y-67274902D01*
X219673673Y-67325595D01*
X219521998Y-67350471D01*
X219135667Y-67829529D01*
X219608094Y-68478616D01*
X219763799Y-68504433D01*
X219763799Y-68555126D01*
X219197216Y-68555126D01*
X219197216Y-68504433D01*
X219371422Y-68478616D01*
X219010737Y-67982291D01*
X218611033Y-68478616D01*
G37*
D13*
G36*
X225128049Y-83689440D02*
G01*
X225371254Y-83828781D01*
X225371254Y-84388952D01*
X225613115Y-84249550D01*
X225613115Y-83689440D01*
X225371254Y-83550039D01*
X225128049Y-83689440D01*
G37*
G36*
X225128049Y-83129269D02*
G01*
X225371254Y-83270014D01*
X225613115Y-83129269D01*
X225371254Y-82989929D01*
X225128049Y-83129269D01*
G37*
G36*
X224886249Y-83828781D02*
G01*
X225128049Y-83689440D01*
X225128049Y-83129269D01*
X224886249Y-83270014D01*
X224886249Y-83550039D01*
X224886249Y-83828781D01*
G37*
G36*
X224886249Y-84108866D02*
G01*
X225128049Y-83969526D01*
X225128049Y-84249550D01*
X225371254Y-84388952D01*
X225128049Y-84528293D01*
X224886249Y-84388952D01*
X224886249Y-84108866D01*
G37*
G36*
X226341386Y-84108500D02*
G01*
X226583248Y-83969037D01*
X226583248Y-84249367D01*
X226341386Y-84388830D01*
X226341386Y-84108500D01*
G37*
G36*
X225856381Y-83268915D02*
G01*
X226098182Y-83128048D01*
X226098182Y-84249367D01*
X226341386Y-84388830D01*
X226098182Y-84528293D01*
X225856381Y-84388830D01*
X225856381Y-83268915D01*
G37*
G36*
X226098182Y-83128048D02*
G01*
X226341386Y-82988586D01*
X226583248Y-83128048D01*
X226583248Y-83408378D01*
X226341386Y-83549245D01*
X226341386Y-83268915D01*
X226098182Y-83128048D01*
G37*
G36*
X227069718Y-84388952D02*
G01*
X226826514Y-84528293D01*
X226826514Y-83270014D01*
X226704942Y-83200283D01*
X226946742Y-83059599D01*
X227069718Y-83129269D01*
X227069718Y-84388952D01*
G37*
G36*
X227311519Y-83270014D02*
G01*
X227553380Y-83129269D01*
X227553380Y-83689440D01*
X227311519Y-83828781D01*
X227311519Y-83270014D01*
G37*
G36*
X227311519Y-84108866D02*
G01*
X227311519Y-84388952D01*
X227433152Y-84458622D01*
X227674952Y-84319282D01*
X227553380Y-84249550D01*
X227553380Y-83969526D01*
X227311519Y-83828781D01*
X227069718Y-83969526D01*
X227311519Y-84108866D01*
G37*
G36*
X195175074Y-75679184D02*
G01*
X195416874Y-75538500D01*
X195539850Y-75608170D01*
X195539850Y-76729367D01*
X195781651Y-76868830D01*
X195539850Y-77008293D01*
X195296646Y-76868830D01*
X195296646Y-75748915D01*
X195175074Y-75679184D01*
G37*
G36*
X195781651Y-76868830D02*
G01*
X195781651Y-75608048D01*
X196023512Y-75468586D01*
X196023512Y-76729367D01*
X195781651Y-76868830D01*
G37*
G36*
X196144229Y-75680283D02*
G01*
X196265801Y-75750014D01*
X196265801Y-76868952D01*
X196509006Y-77008293D01*
X196750806Y-76868952D01*
X196509006Y-76729550D01*
X196509006Y-75609269D01*
X196386030Y-75539599D01*
X196144229Y-75680283D01*
G37*
G36*
X196509006Y-75609269D02*
G01*
X196750806Y-75750014D01*
X196750806Y-76868952D01*
X196992668Y-76729550D01*
X196992668Y-75609269D01*
X196750806Y-75469929D01*
X196509006Y-75609269D01*
G37*
G36*
X197113385Y-75680283D02*
G01*
X197234957Y-75750014D01*
X197234957Y-76868952D01*
X197478162Y-77008293D01*
X197719962Y-76868952D01*
X197478162Y-76729550D01*
X197478162Y-75609269D01*
X197355185Y-75539599D01*
X197113385Y-75680283D01*
G37*
G36*
X197478162Y-75609269D02*
G01*
X197719962Y-75750014D01*
X197719962Y-76868952D01*
X197961823Y-76729550D01*
X197961823Y-75609269D01*
X197719962Y-75469929D01*
X197478162Y-75609269D01*
G37*
G36*
X224888203Y-98508915D02*
G01*
X225130003Y-98368048D01*
X225130003Y-98928708D01*
X225373208Y-98791321D01*
X225615069Y-98930417D01*
X225615069Y-99489550D01*
X225736641Y-99559099D01*
X225493436Y-99698439D01*
X225373208Y-99628769D01*
X225373208Y-99068170D01*
X225130003Y-98928708D01*
X225130003Y-99489367D01*
X225373208Y-99628830D01*
X225130003Y-99768293D01*
X224888203Y-99628830D01*
X224888203Y-98508915D01*
G37*
G36*
X225130003Y-98368048D02*
G01*
X225373208Y-98228586D01*
X225615069Y-98368048D01*
X225373208Y-98508793D01*
X225130003Y-98368048D01*
G37*
G36*
X225735786Y-98439184D02*
G01*
X225977587Y-98298500D01*
X226100563Y-98368170D01*
X226100563Y-99628830D01*
X225857358Y-99768293D01*
X225857358Y-98508915D01*
X225735786Y-98439184D01*
G37*
G36*
X226463996Y-99698439D02*
G01*
X226342363Y-99628769D01*
X226342363Y-98508915D01*
X226100563Y-98368048D01*
X226342363Y-98228586D01*
X226584225Y-98368048D01*
X226584225Y-99489367D01*
X226705797Y-99559099D01*
X226463996Y-99698439D01*
G37*
G36*
X226705919Y-98440283D02*
G01*
X226827491Y-98510014D01*
X226827491Y-99628952D01*
X227070696Y-99768293D01*
X227312496Y-99628952D01*
X227070696Y-99489550D01*
X227070696Y-98369269D01*
X226947719Y-98299599D01*
X226705919Y-98440283D01*
G37*
G36*
X227070696Y-98369269D02*
G01*
X227312496Y-98510014D01*
X227312496Y-99628952D01*
X227554357Y-99489550D01*
X227554357Y-98369269D01*
X227312496Y-98229929D01*
X227070696Y-98369269D01*
G37*
G36*
X191557536Y-75888178D02*
G01*
X191733830Y-76066158D01*
X191557536Y-76244137D01*
X190484601Y-76244137D01*
X190380481Y-76348185D01*
X190202501Y-76170278D01*
X190380481Y-75992299D01*
X190797843Y-75992299D01*
X190797843Y-75753869D01*
X190484015Y-75753869D01*
X190380481Y-75857989D01*
X190202501Y-75680010D01*
X190380481Y-75502103D01*
X191453268Y-75502103D01*
X191557536Y-75397983D01*
X191733830Y-75575962D01*
X191557536Y-75753869D01*
X190840048Y-75753869D01*
X190840048Y-75992299D01*
X191452902Y-75992299D01*
X191557536Y-75888178D01*
G37*
G36*
X191364242Y-76786430D02*
G01*
X191186335Y-77085237D01*
X190573554Y-77085237D01*
X190325125Y-76833471D01*
X190412354Y-76833471D01*
X191052026Y-76833471D01*
X191154388Y-76662232D01*
X190514790Y-76662232D01*
X190412354Y-76833471D01*
X190325125Y-76833471D01*
X190202501Y-76709200D01*
X190380481Y-76410394D01*
X190993261Y-76410394D01*
X191364242Y-76786430D01*
G37*
G36*
X190680606Y-77480104D02*
G01*
X190680606Y-77248415D01*
X190991283Y-77248415D01*
X191367319Y-77622766D01*
X191211175Y-77886329D01*
X191347169Y-77992135D01*
X191325334Y-78027379D01*
X190929148Y-77723516D01*
X190929148Y-77924943D01*
X190579929Y-77924943D01*
X190326908Y-77673105D01*
X190413014Y-77673105D01*
X190782382Y-77673105D01*
X190715191Y-77558946D01*
X190637904Y-77500181D01*
X190829057Y-77500181D01*
X190928049Y-77669807D01*
X191017075Y-77736925D01*
X191158052Y-77500181D01*
X190829057Y-77500181D01*
X190637904Y-77500181D01*
X190554064Y-77436433D01*
X190413014Y-77673105D01*
X190326908Y-77673105D01*
X190203820Y-77550592D01*
X190359964Y-77287030D01*
X190223970Y-77181224D01*
X190245805Y-77145980D01*
X190680606Y-77480104D01*
G37*
G36*
X191464186Y-77977187D02*
G01*
X191642166Y-78155167D01*
X191464186Y-78333073D01*
X191276168Y-78333073D01*
X191276168Y-78437194D01*
X191187068Y-78437194D01*
X191187068Y-78333073D01*
X190484674Y-78333073D01*
X190380481Y-78437194D01*
X190202501Y-78259214D01*
X190380481Y-78081308D01*
X191187068Y-78081308D01*
X191187068Y-78029211D01*
X191276168Y-78029211D01*
X191276168Y-78081308D01*
X191360139Y-78081308D01*
X191464186Y-77977187D01*
G37*
G36*
X190380481Y-78491123D02*
G01*
X190558460Y-78669103D01*
X190380481Y-78847082D01*
X190051412Y-78625432D01*
X190249542Y-78622061D01*
X190380481Y-78491123D01*
G37*
G36*
X191255139Y-79630662D02*
G01*
X191377724Y-79508077D01*
X191639601Y-79771712D01*
X191609413Y-79800216D01*
X191525442Y-79716245D01*
X191186335Y-80053666D01*
X190484601Y-80053666D01*
X190380481Y-80157787D01*
X190202501Y-79979807D01*
X190353589Y-79828719D01*
X190326771Y-79801901D01*
X190412354Y-79801901D01*
X191082215Y-79801901D01*
X191224950Y-79659165D01*
X191196374Y-79630662D01*
X190514790Y-79630662D01*
X190412354Y-79801901D01*
X190326771Y-79801901D01*
X190202501Y-79677630D01*
X190380481Y-79378823D01*
X191003300Y-79378823D01*
X191255139Y-79630662D01*
G37*
G36*
X191557536Y-80160645D02*
G01*
X191735515Y-80338625D01*
X191557536Y-80516531D01*
X191379629Y-80338625D01*
X191557536Y-80160645D01*
G37*
G36*
X191186335Y-80160645D02*
G01*
X191364242Y-80338551D01*
X191186335Y-80516531D01*
X190484601Y-80516531D01*
X190380481Y-80620652D01*
X190202501Y-80442672D01*
X190380481Y-80264692D01*
X191082215Y-80264692D01*
X191186335Y-80160645D01*
G37*
G36*
X190680606Y-80905756D02*
G01*
X190680606Y-80674068D01*
X190991283Y-80674068D01*
X191367319Y-81048419D01*
X191211175Y-81311981D01*
X191347169Y-81417787D01*
X191325334Y-81453031D01*
X190929148Y-81149169D01*
X190929148Y-81350596D01*
X190579929Y-81350596D01*
X190326907Y-81098757D01*
X190413014Y-81098757D01*
X190782382Y-81098757D01*
X190715191Y-80984598D01*
X190637904Y-80925833D01*
X190829057Y-80925833D01*
X190928049Y-81095460D01*
X191017075Y-81162578D01*
X191158052Y-80925833D01*
X190829057Y-80925833D01*
X190637904Y-80925833D01*
X190554064Y-80862086D01*
X190413014Y-81098757D01*
X190326907Y-81098757D01*
X190203820Y-80976245D01*
X190359964Y-80712682D01*
X190223970Y-80606876D01*
X190245805Y-80571632D01*
X190680606Y-80905756D01*
G37*
G36*
X190837117Y-81629472D02*
G01*
X191003300Y-81478384D01*
X191364242Y-81960153D01*
X191186335Y-82138133D01*
X190484601Y-82138133D01*
X190380481Y-82242253D01*
X190202501Y-82064273D01*
X190380481Y-81886367D01*
X190445986Y-81886367D01*
X190350922Y-81790673D01*
X190409057Y-81790673D01*
X190506363Y-81886367D01*
X190553404Y-81886367D01*
X190617225Y-81886367D01*
X191082215Y-81886367D01*
X191137609Y-81830973D01*
X190874046Y-81654678D01*
X190617225Y-81886367D01*
X190553404Y-81886367D01*
X190743108Y-81715128D01*
X190484601Y-81715128D01*
X190409057Y-81790673D01*
X190350922Y-81790673D01*
X190202501Y-81641269D01*
X190380481Y-81463290D01*
X190670934Y-81463290D01*
X190837117Y-81629472D01*
G37*
G36*
X191733830Y-82421405D02*
G01*
X191557536Y-82599312D01*
X191119291Y-82599312D01*
X191364388Y-82844410D01*
X191186482Y-83022389D01*
X190573554Y-83022389D01*
X190325053Y-82770551D01*
X190412354Y-82770551D01*
X191082215Y-82770551D01*
X191156074Y-82696692D01*
X191060379Y-82599312D01*
X190514790Y-82599312D01*
X190412354Y-82770551D01*
X190325053Y-82770551D01*
X190202501Y-82646353D01*
X190380481Y-82347546D01*
X191453268Y-82347546D01*
X191557536Y-82243426D01*
X191733830Y-82421405D01*
G37*
G36*
X191557536Y-83082839D02*
G01*
X191733830Y-83260819D01*
X191557536Y-83438726D01*
X190484601Y-83438726D01*
X190380481Y-83542846D01*
X190202501Y-83364867D01*
X190380481Y-83186960D01*
X191453268Y-83186960D01*
X191557536Y-83082839D01*
G37*
G36*
X191364242Y-83722731D02*
G01*
X191186335Y-83900638D01*
X191120829Y-83900638D01*
X191364242Y-84145735D01*
X191188021Y-84323715D01*
X190989891Y-84323715D01*
X190566813Y-83900638D01*
X190634005Y-83900638D01*
X190833746Y-84071876D01*
X191082215Y-84071876D01*
X191157759Y-83996332D01*
X191060379Y-83900638D01*
X190634005Y-83900638D01*
X190566813Y-83900638D01*
X190514790Y-83900638D01*
X190409057Y-84078618D01*
X190625578Y-84264950D01*
X190555090Y-84301880D01*
X190202501Y-83949364D01*
X190380481Y-83648872D01*
X191082215Y-83648872D01*
X191186335Y-83544752D01*
X191364242Y-83722731D01*
G37*
G36*
X191255139Y-84696454D02*
G01*
X191377724Y-84573869D01*
X191639601Y-84837504D01*
X191609413Y-84866008D01*
X191525442Y-84782037D01*
X191186335Y-85119458D01*
X190484601Y-85119458D01*
X190380481Y-85223579D01*
X190202501Y-85045599D01*
X190353589Y-84894511D01*
X190326771Y-84867693D01*
X190412354Y-84867693D01*
X191082215Y-84867693D01*
X191224950Y-84724957D01*
X191196374Y-84696454D01*
X190514790Y-84696454D01*
X190412354Y-84867693D01*
X190326771Y-84867693D01*
X190202501Y-84743422D01*
X190380481Y-84444615D01*
X191003300Y-84444615D01*
X191255139Y-84696454D01*
G37*
G36*
X190708743Y-85226437D02*
G01*
X190886942Y-85404343D01*
X190708743Y-85582323D01*
X190530543Y-85404343D01*
X190708743Y-85226437D01*
G37*
G36*
X191218209Y-85226437D02*
G01*
X191397874Y-85404417D01*
X191218209Y-85582323D01*
X191040229Y-85404417D01*
X191218209Y-85226437D01*
G37*
G36*
X224767608Y-88279184D02*
G01*
X225009408Y-88138500D01*
X225132384Y-88208170D01*
X225132384Y-89329367D01*
X225374185Y-89468830D01*
X225132384Y-89608293D01*
X224889180Y-89468830D01*
X224889180Y-88348915D01*
X224767608Y-88279184D01*
G37*
G36*
X225374185Y-89468830D02*
G01*
X225374185Y-88208048D01*
X225616046Y-88068586D01*
X225616046Y-89329367D01*
X225374185Y-89468830D01*
G37*
G36*
X225736763Y-88280283D02*
G01*
X225858335Y-88350014D01*
X225858335Y-89468952D01*
X226101540Y-89608293D01*
X226343340Y-89468952D01*
X226101540Y-89329550D01*
X226101540Y-88209269D01*
X225978564Y-88139599D01*
X225736763Y-88280283D01*
G37*
G36*
X226101540Y-88209269D02*
G01*
X226343340Y-88350014D01*
X226343340Y-89468952D01*
X226585202Y-89329550D01*
X226585202Y-88209269D01*
X226343340Y-88069929D01*
X226101540Y-88209269D01*
G37*
G36*
X226705919Y-88280283D02*
G01*
X226827491Y-88350014D01*
X226827491Y-89468952D01*
X227070696Y-89608293D01*
X227312496Y-89468952D01*
X227070696Y-89329550D01*
X227070696Y-88209269D01*
X226947719Y-88139599D01*
X226705919Y-88280283D01*
G37*
G36*
X227070696Y-88209269D02*
G01*
X227312496Y-88350014D01*
X227312496Y-89468952D01*
X227554357Y-89329550D01*
X227554357Y-88209269D01*
X227312496Y-88069929D01*
X227070696Y-88209269D01*
G37*
D10*
G36*
X220394918Y-72401020D02*
G01*
X220394918Y-72828616D01*
X220613179Y-72854433D01*
X220613179Y-72905126D01*
X219978911Y-72905126D01*
X219978911Y-72854433D01*
X220197173Y-72828616D01*
X220197173Y-72406748D01*
X219714579Y-71700471D01*
X219559790Y-71675595D01*
X219559790Y-71624902D01*
X220140844Y-71624902D01*
X220140844Y-71675595D01*
X219956380Y-71700471D01*
X220350862Y-72291258D01*
X220725928Y-71700471D01*
X220551722Y-71675595D01*
X220551722Y-71624902D01*
X220998503Y-71624902D01*
X220998503Y-71675595D01*
X220847836Y-71700471D01*
X220394918Y-72401020D01*
G37*
D13*
G36*
X190580923Y-108321721D02*
G01*
X190580923Y-108601746D01*
X190824127Y-108741147D01*
X191065928Y-108601746D01*
X190824127Y-108461062D01*
X190824127Y-108180976D01*
X190580923Y-108321721D01*
G37*
G36*
X190095917Y-109720744D02*
G01*
X190337718Y-109860085D01*
X190580923Y-109720744D01*
X190337718Y-109580000D01*
X190095917Y-109720744D01*
G37*
G36*
X190824127Y-108180976D02*
G01*
X191065928Y-108321721D01*
X191307789Y-108180976D01*
X191065928Y-108041636D01*
X190824127Y-108180976D01*
G37*
G36*
X190580923Y-109720744D02*
G01*
X190580923Y-108880488D01*
X190824127Y-108741147D01*
X190824127Y-109580000D01*
X190580923Y-109720744D01*
G37*
G36*
X191306324Y-108741147D02*
G01*
X191549529Y-108880488D01*
X191549529Y-109440659D01*
X191791390Y-109301257D01*
X191791390Y-108741147D01*
X191549529Y-108601746D01*
X191306324Y-108741147D01*
G37*
G36*
X191306324Y-108180976D02*
G01*
X191549529Y-108321721D01*
X191791390Y-108180976D01*
X191549529Y-108041636D01*
X191306324Y-108180976D01*
G37*
G36*
X191064523Y-108880488D02*
G01*
X191306324Y-108741147D01*
X191306324Y-108180976D01*
X191064523Y-108321721D01*
X191064523Y-108601746D01*
X191064523Y-108880488D01*
G37*
G36*
X191064523Y-109160573D02*
G01*
X191306324Y-109021233D01*
X191306324Y-109301257D01*
X191549529Y-109440659D01*
X191306324Y-109580000D01*
X191064523Y-109440659D01*
X191064523Y-109160573D01*
G37*
G36*
X191913084Y-108250891D02*
G01*
X192154884Y-108110207D01*
X192277861Y-108179877D01*
X192277861Y-109020744D01*
X192519661Y-109160207D01*
X192277861Y-109300891D01*
X192034656Y-109160207D01*
X192034656Y-108320622D01*
X191913084Y-108250891D01*
G37*
G36*
X192761523Y-109580000D02*
G01*
X192519661Y-109720744D01*
X192519661Y-108179755D01*
X192761523Y-108040293D01*
X192761523Y-109580000D01*
G37*
G36*
X192277861Y-109860085D02*
G01*
X192034656Y-109720744D01*
X192277861Y-109580000D01*
X192519661Y-109720744D01*
X192277861Y-109860085D01*
G37*
G36*
X192882240Y-108250891D02*
G01*
X193124040Y-108110207D01*
X193247016Y-108179877D01*
X193247016Y-109440537D01*
X193003812Y-109580000D01*
X193003812Y-108320622D01*
X192882240Y-108250891D01*
G37*
G36*
X193610450Y-109510146D02*
G01*
X193488817Y-109440476D01*
X193488817Y-108320622D01*
X193247016Y-108179755D01*
X193488817Y-108040293D01*
X193730678Y-108179755D01*
X193730678Y-109301074D01*
X193852250Y-109370806D01*
X193610450Y-109510146D01*
G37*
G36*
X194458949Y-109160207D02*
G01*
X194700811Y-109020744D01*
X194700811Y-109301074D01*
X194458949Y-109440537D01*
X194458949Y-109160207D01*
G37*
G36*
X193973944Y-108320622D02*
G01*
X194215745Y-108179755D01*
X194215745Y-109301074D01*
X194458949Y-109440537D01*
X194215745Y-109580000D01*
X193973944Y-109440537D01*
X193973944Y-108320622D01*
G37*
G36*
X194215745Y-108179755D02*
G01*
X194458949Y-108040293D01*
X194700811Y-108179755D01*
X194700811Y-108460085D01*
X194458949Y-108600952D01*
X194458949Y-108320622D01*
X194215745Y-108179755D01*
G37*
G36*
X223795521Y-80660283D02*
G01*
X223917093Y-80730014D01*
X223917093Y-81988293D01*
X224160297Y-81848952D01*
X224160297Y-80589269D01*
X224037321Y-80519599D01*
X223795521Y-80660283D01*
G37*
G36*
X224160297Y-80589269D02*
G01*
X224402098Y-80730014D01*
X224402098Y-81988293D01*
X224643959Y-81848952D01*
X224643959Y-80589269D01*
X224402098Y-80449929D01*
X224160297Y-80589269D01*
G37*
G36*
X225249193Y-81779282D02*
G01*
X225128964Y-81709550D01*
X225128964Y-80589269D01*
X224885760Y-80449929D01*
X224643959Y-80589269D01*
X224885760Y-80730014D01*
X224885760Y-81848952D01*
X225007332Y-81918622D01*
X225249193Y-81779282D01*
G37*
G36*
X225371803Y-80728915D02*
G01*
X225613603Y-80588048D01*
X225613603Y-81709367D01*
X225856808Y-81848830D01*
X225613603Y-81988293D01*
X225371803Y-81848830D01*
X225371803Y-80728915D01*
G37*
G36*
X225856808Y-81848830D02*
G01*
X225856808Y-80728915D01*
X225613603Y-80588048D01*
X225856808Y-80448586D01*
X226098670Y-80588048D01*
X226098670Y-81709367D01*
X225856808Y-81848830D01*
G37*
G36*
X226583736Y-81149440D02*
G01*
X226826941Y-81288781D01*
X226826941Y-81848952D01*
X227068802Y-81709550D01*
X227068802Y-81149440D01*
X226826941Y-81010039D01*
X226583736Y-81149440D01*
G37*
G36*
X226583736Y-80589269D02*
G01*
X226826941Y-80730014D01*
X227068802Y-80589269D01*
X226826941Y-80449929D01*
X226583736Y-80589269D01*
G37*
G36*
X226341935Y-81288781D02*
G01*
X226583736Y-81149440D01*
X226583736Y-80589269D01*
X226341935Y-80730014D01*
X226341935Y-81010039D01*
X226341935Y-81288781D01*
G37*
G36*
X226341935Y-81568866D02*
G01*
X226583736Y-81429526D01*
X226583736Y-81709550D01*
X226826941Y-81848952D01*
X226583736Y-81988293D01*
X226341935Y-81848952D01*
X226341935Y-81568866D01*
G37*
G36*
X227190496Y-80660283D02*
G01*
X227432297Y-80519599D01*
X227555273Y-80589269D01*
X227555273Y-81848952D01*
X227312068Y-81988293D01*
X227312068Y-80730014D01*
X227190496Y-80660283D01*
G37*
G36*
X206824111Y-68194593D02*
G01*
X207046585Y-67959533D01*
X207268968Y-68194593D01*
X207268968Y-69625172D01*
X207399119Y-69764000D01*
X207176645Y-70001306D01*
X206954261Y-69764000D01*
X206954261Y-68333616D01*
X206824111Y-68194593D01*
G37*
G36*
X208144396Y-69081292D02*
G01*
X208459194Y-69081292D01*
X208459194Y-69560301D01*
X208039524Y-70001306D01*
X207531651Y-69764000D01*
X207531651Y-68571215D01*
X207401501Y-68432290D01*
X207623975Y-68194593D01*
X207806516Y-68389303D01*
X208140183Y-67957286D01*
X208459194Y-68194593D01*
X208459194Y-68637845D01*
X208144396Y-68637845D01*
X208144396Y-68364781D01*
X207984844Y-68246079D01*
X207846358Y-68431899D01*
X207846358Y-69569191D01*
X208144396Y-69708019D01*
X208144396Y-69081292D01*
G37*
G36*
X208534299Y-68454272D02*
G01*
X208756774Y-68216965D01*
X208945634Y-68416267D01*
X209272981Y-67957286D01*
X209591993Y-68194593D01*
X209591993Y-68342311D01*
X209887832Y-67957286D01*
X210206843Y-68194593D01*
X210206843Y-69625172D01*
X210336903Y-69764000D01*
X210114520Y-70001306D01*
X209892045Y-69764000D01*
X209892045Y-68364976D01*
X209732585Y-68246372D01*
X209591993Y-68429847D01*
X209591993Y-69625172D01*
X209722052Y-69764000D01*
X209499669Y-70001306D01*
X209277194Y-69764000D01*
X209277194Y-68364976D01*
X209128175Y-68253016D01*
X208979157Y-68461208D01*
X208979157Y-69625172D01*
X209109308Y-69764000D01*
X208886833Y-70001306D01*
X208664450Y-69764000D01*
X208664450Y-68593099D01*
X208534299Y-68454272D01*
G37*
G36*
X210925192Y-69151243D02*
G01*
X210925192Y-69207517D01*
X210402665Y-69207517D01*
X210402665Y-69151243D01*
X210925192Y-69151243D01*
G37*
G36*
X211457519Y-68317984D02*
G01*
X211679994Y-68080678D01*
X211904575Y-68315737D01*
X211904575Y-69625172D01*
X212034635Y-69764000D01*
X211812252Y-70001306D01*
X211457519Y-69625172D01*
X211589777Y-69486442D01*
X211589777Y-69177524D01*
X211340100Y-69441697D01*
X211117625Y-69204390D01*
X211117625Y-68461208D01*
X210987474Y-68322478D01*
X211209949Y-68085172D01*
X211432332Y-68322478D01*
X211432332Y-69065563D01*
X211526762Y-69164139D01*
X211589777Y-69096923D01*
X211589777Y-68456714D01*
X211457519Y-68317984D01*
G37*
G36*
X212637579Y-68794844D02*
G01*
X212952377Y-68794844D01*
X212952377Y-69499240D01*
X212484347Y-70001306D01*
X212110839Y-69764000D01*
X212333313Y-69525716D01*
X212637579Y-69721306D01*
X212637579Y-68876128D01*
X212425637Y-69126233D01*
X212110839Y-69126233D01*
X212110839Y-68553141D01*
X212448718Y-68219603D01*
X212597737Y-68219603D01*
X212727796Y-68080775D01*
X212950271Y-68318668D01*
X212727796Y-68557244D01*
X212425637Y-68557244D01*
X212425637Y-69044949D01*
X212637579Y-68794844D01*
G37*
G36*
X213945316Y-68323260D02*
G01*
X213945316Y-68325507D01*
X213945316Y-68453099D01*
X213630518Y-68710434D01*
X213630518Y-68495598D01*
X213468951Y-68381390D01*
X213420682Y-68453099D01*
X213420682Y-68701543D01*
X213945316Y-68945395D01*
X213945316Y-69551801D01*
X213517219Y-70001599D01*
X213105884Y-69811383D01*
X213105884Y-69616672D01*
X213420682Y-69616672D01*
X213630518Y-69712904D01*
X213630518Y-69140106D01*
X213420682Y-69041627D01*
X213420682Y-69616672D01*
X213105884Y-69616672D01*
X213105884Y-68829038D01*
X213536087Y-68088298D01*
X213945316Y-68323260D01*
G37*
G36*
X214624739Y-68794844D02*
G01*
X214939537Y-68794844D01*
X214939537Y-69499240D01*
X214471507Y-70001306D01*
X214097998Y-69764000D01*
X214320473Y-69525716D01*
X214624739Y-69721306D01*
X214624739Y-68876128D01*
X214412797Y-69126233D01*
X214097998Y-69126233D01*
X214097998Y-68553141D01*
X214435878Y-68219603D01*
X214584896Y-68219603D01*
X214714956Y-68080775D01*
X214937430Y-68318668D01*
X214714956Y-68557244D01*
X214412797Y-68557244D01*
X214412797Y-69044949D01*
X214624739Y-68794844D01*
G37*
G36*
X215869461Y-68203776D02*
G01*
X215869461Y-68685032D01*
X215615571Y-68955946D01*
X215900968Y-69043190D01*
X215900968Y-69678905D01*
X215600916Y-70001306D01*
X215093044Y-69764000D01*
X215093044Y-69717007D01*
X215407842Y-69717007D01*
X215586170Y-69802101D01*
X215586170Y-69177524D01*
X215407842Y-69121543D01*
X215407842Y-69717007D01*
X215093044Y-69717007D01*
X215093044Y-69305116D01*
X215300772Y-69088033D01*
X215128764Y-69032053D01*
X215124551Y-69032053D01*
X215124551Y-68899966D01*
X215439258Y-68899966D01*
X215464445Y-68908954D01*
X215554663Y-68810378D01*
X215554663Y-68398584D01*
X215439258Y-68351592D01*
X215439258Y-68899966D01*
X215124551Y-68899966D01*
X215124551Y-68573169D01*
X215590383Y-68085172D01*
X215869461Y-68203776D01*
G37*
G36*
X224767608Y-100979184D02*
G01*
X225009408Y-100838500D01*
X225132384Y-100908170D01*
X225132384Y-102029367D01*
X225374185Y-102168830D01*
X225132384Y-102308293D01*
X224889180Y-102168830D01*
X224889180Y-101048915D01*
X224767608Y-100979184D01*
G37*
G36*
X225374185Y-102168830D02*
G01*
X225374185Y-100908048D01*
X225616046Y-100768586D01*
X225616046Y-102029367D01*
X225374185Y-102168830D01*
G37*
G36*
X225736763Y-100980283D02*
G01*
X225858335Y-101050014D01*
X225858335Y-102168952D01*
X226101540Y-102308293D01*
X226343340Y-102168952D01*
X226101540Y-102029550D01*
X226101540Y-100909269D01*
X225978564Y-100839599D01*
X225736763Y-100980283D01*
G37*
G36*
X226101540Y-100909269D02*
G01*
X226343340Y-101050014D01*
X226343340Y-102168952D01*
X226585202Y-102029550D01*
X226585202Y-100909269D01*
X226343340Y-100769929D01*
X226101540Y-100909269D01*
G37*
G36*
X226705919Y-100980283D02*
G01*
X226827491Y-101050014D01*
X226827491Y-102168952D01*
X227070696Y-102308293D01*
X227312496Y-102168952D01*
X227070696Y-102029550D01*
X227070696Y-100909269D01*
X226947719Y-100839599D01*
X226705919Y-100980283D01*
G37*
G36*
X227070696Y-100909269D02*
G01*
X227312496Y-101050014D01*
X227312496Y-102168952D01*
X227554357Y-102029550D01*
X227554357Y-100909269D01*
X227312496Y-100769929D01*
X227070696Y-100909269D01*
G37*
G36*
X219773446Y-88879440D02*
G01*
X220016651Y-89018781D01*
X220016651Y-89578952D01*
X220258512Y-89439550D01*
X220258512Y-88879440D01*
X220016651Y-88740039D01*
X219773446Y-88879440D01*
G37*
G36*
X219773446Y-88319269D02*
G01*
X220016651Y-88460014D01*
X220258512Y-88319269D01*
X220016651Y-88179929D01*
X219773446Y-88319269D01*
G37*
G36*
X219531646Y-89018781D02*
G01*
X219773446Y-88879440D01*
X219773446Y-88319269D01*
X219531646Y-88460014D01*
X219531646Y-88740039D01*
X219531646Y-89018781D01*
G37*
G36*
X219531646Y-89298866D02*
G01*
X219773446Y-89159526D01*
X219773446Y-89439550D01*
X220016651Y-89578952D01*
X219773446Y-89718293D01*
X219531646Y-89578952D01*
X219531646Y-89298866D01*
G37*
G36*
X220986783Y-89298500D02*
G01*
X221228645Y-89159037D01*
X221228645Y-89439367D01*
X220986783Y-89578830D01*
X220986783Y-89298500D01*
G37*
G36*
X220501778Y-88458915D02*
G01*
X220743579Y-88318048D01*
X220743579Y-89439367D01*
X220986783Y-89578830D01*
X220743579Y-89718293D01*
X220501778Y-89578830D01*
X220501778Y-88458915D01*
G37*
G36*
X220743579Y-88318048D02*
G01*
X220986783Y-88178586D01*
X221228645Y-88318048D01*
X221228645Y-88598378D01*
X220986783Y-88739245D01*
X220986783Y-88458915D01*
X220743579Y-88318048D01*
G37*
G36*
X221350339Y-88390283D02*
G01*
X221592139Y-88249599D01*
X221715115Y-88319269D01*
X221715115Y-89439550D01*
X221956916Y-89578952D01*
X221715115Y-89718293D01*
X221471911Y-89578952D01*
X221471911Y-88460014D01*
X221350339Y-88390283D01*
G37*
G36*
X195538446Y-81249440D02*
G01*
X195781651Y-81388781D01*
X195781651Y-81948952D01*
X196023512Y-81809550D01*
X196023512Y-81249440D01*
X195781651Y-81110039D01*
X195538446Y-81249440D01*
G37*
G36*
X195538446Y-80689269D02*
G01*
X195781651Y-80830014D01*
X196023512Y-80689269D01*
X195781651Y-80549929D01*
X195538446Y-80689269D01*
G37*
G36*
X195296646Y-81388781D02*
G01*
X195538446Y-81249440D01*
X195538446Y-80689269D01*
X195296646Y-80830014D01*
X195296646Y-81110039D01*
X195296646Y-81388781D01*
G37*
G36*
X195296646Y-81668866D02*
G01*
X195538446Y-81529526D01*
X195538446Y-81809550D01*
X195781651Y-81948952D01*
X195538446Y-82088293D01*
X195296646Y-81948952D01*
X195296646Y-81668866D01*
G37*
G36*
X196751783Y-81668500D02*
G01*
X196993645Y-81529037D01*
X196993645Y-81809367D01*
X196751783Y-81948830D01*
X196751783Y-81668500D01*
G37*
G36*
X196266778Y-80828915D02*
G01*
X196508579Y-80688048D01*
X196508579Y-81809367D01*
X196751783Y-81948830D01*
X196508579Y-82088293D01*
X196266778Y-81948830D01*
X196266778Y-80828915D01*
G37*
G36*
X196508579Y-80688048D02*
G01*
X196751783Y-80548586D01*
X196993645Y-80688048D01*
X196993645Y-80968378D01*
X196751783Y-81109245D01*
X196751783Y-80828915D01*
X196508579Y-80688048D01*
G37*
G36*
X197480115Y-81948952D02*
G01*
X197236911Y-82088293D01*
X197236911Y-80830014D01*
X197115339Y-80760283D01*
X197357139Y-80619599D01*
X197480115Y-80689269D01*
X197480115Y-81948952D01*
G37*
G36*
X197721916Y-80830014D02*
G01*
X197963777Y-80689269D01*
X197963777Y-81249440D01*
X197721916Y-81388781D01*
X197721916Y-80830014D01*
G37*
G36*
X197721916Y-81668866D02*
G01*
X197721916Y-81948952D01*
X197843549Y-82018622D01*
X198085349Y-81879282D01*
X197963777Y-81809550D01*
X197963777Y-81529526D01*
X197721916Y-81388781D01*
X197480115Y-81529526D01*
X197721916Y-81668866D01*
G37*
G36*
X198812277Y-80619599D02*
G01*
X198570477Y-80760283D01*
X198570477Y-81039025D01*
X198448844Y-81110039D01*
X198448844Y-81388781D01*
X198328615Y-81459795D01*
X198328615Y-81738537D01*
X198207043Y-81809550D01*
X198207043Y-82088293D01*
X198448844Y-81948952D01*
X198448844Y-81668866D01*
X198570477Y-81599196D01*
X198570477Y-81319111D01*
X198692049Y-81249440D01*
X198692049Y-80969355D01*
X198812277Y-80899685D01*
X198812277Y-80619599D01*
G37*
G36*
X199175710Y-81249440D02*
G01*
X199418915Y-81388781D01*
X199418915Y-81948952D01*
X199660777Y-81809550D01*
X199660777Y-81249440D01*
X199418915Y-81110039D01*
X199175710Y-81249440D01*
G37*
G36*
X199175710Y-80689269D02*
G01*
X199418915Y-80830014D01*
X199660777Y-80689269D01*
X199418915Y-80549929D01*
X199175710Y-80689269D01*
G37*
G36*
X198933910Y-81388781D02*
G01*
X199175710Y-81249440D01*
X199175710Y-80689269D01*
X198933910Y-80830014D01*
X198933910Y-81110039D01*
X198933910Y-81388781D01*
G37*
G36*
X198933910Y-81668866D02*
G01*
X199175710Y-81529526D01*
X199175710Y-81809550D01*
X199418915Y-81948952D01*
X199175710Y-82088293D01*
X198933910Y-81948952D01*
X198933910Y-81668866D01*
G37*
G36*
X200389048Y-81668500D02*
G01*
X200630909Y-81529037D01*
X200630909Y-81809367D01*
X200389048Y-81948830D01*
X200389048Y-81668500D01*
G37*
G36*
X199904043Y-80828915D02*
G01*
X200145843Y-80688048D01*
X200145843Y-81809367D01*
X200389048Y-81948830D01*
X200145843Y-82088293D01*
X199904043Y-81948830D01*
X199904043Y-80828915D01*
G37*
G36*
X200145843Y-80688048D02*
G01*
X200389048Y-80548586D01*
X200630909Y-80688048D01*
X200630909Y-80968378D01*
X200389048Y-81109245D01*
X200389048Y-80828915D01*
X200145843Y-80688048D01*
G37*
G36*
X200752603Y-80760283D02*
G01*
X200994404Y-80619599D01*
X201117380Y-80689269D01*
X201117380Y-81809550D01*
X201359180Y-81948952D01*
X201117380Y-82088293D01*
X200874175Y-81948952D01*
X200874175Y-80830014D01*
X200752603Y-80760283D01*
G37*
G36*
X200679007Y-73819325D02*
G01*
X200338520Y-73621427D01*
X200679007Y-73425410D01*
X201017613Y-73621427D01*
X201017613Y-75192556D01*
X201187814Y-75290180D01*
X200847327Y-75485256D01*
X200679007Y-75387718D01*
X200679007Y-74603479D01*
X200338520Y-74408402D01*
X200679007Y-74213240D01*
X200679007Y-73819325D01*
G37*
G36*
X200000000Y-75580059D02*
G01*
X200338520Y-75384982D01*
X200338520Y-73621427D01*
X200000000Y-73818470D01*
X200000000Y-75580059D01*
G37*
G36*
X201186617Y-73721786D02*
G01*
X201525137Y-73524829D01*
X201697304Y-73622367D01*
X201697304Y-74406607D01*
X202035825Y-74601683D01*
X201697304Y-74798726D01*
X201697304Y-75385923D01*
X201356817Y-75581000D01*
X201356817Y-73819410D01*
X201186617Y-73721786D01*
G37*
G36*
X202035825Y-75385923D02*
G01*
X202206111Y-75483461D01*
X202544631Y-75288384D01*
X202374431Y-75190760D01*
X202374431Y-73427290D01*
X202035825Y-73622367D01*
X202035825Y-75385923D01*
G37*
G36*
X202544802Y-74112025D02*
G01*
X202715003Y-74209564D01*
X202715003Y-74993803D01*
X203055490Y-75188880D01*
X203394010Y-74993803D01*
X203055490Y-74796760D01*
X203055490Y-74014487D01*
X202883323Y-73916949D01*
X202544802Y-74112025D01*
G37*
G36*
X203394010Y-75581000D02*
G01*
X203732616Y-75385923D01*
X203732616Y-73817444D01*
X203394010Y-74014487D01*
X203394010Y-74408487D01*
X203394010Y-75581000D01*
G37*
G36*
X219773446Y-87104440D02*
G01*
X220016651Y-87243781D01*
X220016651Y-87803952D01*
X220258512Y-87664550D01*
X220258512Y-87104440D01*
X220016651Y-86965039D01*
X219773446Y-87104440D01*
G37*
G36*
X219773446Y-86544269D02*
G01*
X220016651Y-86685014D01*
X220258512Y-86544269D01*
X220016651Y-86404929D01*
X219773446Y-86544269D01*
G37*
G36*
X219531646Y-87243781D02*
G01*
X219773446Y-87104440D01*
X219773446Y-86544269D01*
X219531646Y-86685014D01*
X219531646Y-86965039D01*
X219531646Y-87243781D01*
G37*
G36*
X219531646Y-87523866D02*
G01*
X219773446Y-87384526D01*
X219773446Y-87664550D01*
X220016651Y-87803952D01*
X219773446Y-87943293D01*
X219531646Y-87803952D01*
X219531646Y-87523866D01*
G37*
G36*
X220380206Y-86615283D02*
G01*
X220501778Y-86685014D01*
X220501778Y-87803952D01*
X220744983Y-87943293D01*
X220986783Y-87803952D01*
X220744983Y-87664550D01*
X220744983Y-86544269D01*
X220622007Y-86474599D01*
X220380206Y-86615283D01*
G37*
G36*
X220744983Y-86544269D02*
G01*
X220986783Y-86685014D01*
X220986783Y-87803952D01*
X221228645Y-87664550D01*
X221228645Y-86544269D01*
X220986783Y-86404929D01*
X220744983Y-86544269D01*
G37*
G36*
X221955939Y-86684953D02*
G01*
X221712734Y-86543598D01*
X221955939Y-86403586D01*
X222197800Y-86543598D01*
X222197800Y-87665833D01*
X222319372Y-87735564D01*
X222076167Y-87874905D01*
X221955939Y-87805234D01*
X221955939Y-87245063D01*
X221712734Y-87105723D01*
X221955939Y-86966321D01*
X221955939Y-86684953D01*
G37*
G36*
X221470934Y-87942621D02*
G01*
X221712734Y-87803280D01*
X221712734Y-86543598D01*
X221470934Y-86684343D01*
X221470934Y-87942621D01*
G37*
G36*
X211160892Y-84778317D02*
G01*
X211160892Y-85493607D01*
X211247598Y-85563021D01*
X211099342Y-85681674D01*
X210951026Y-85563021D01*
X210951026Y-85284779D01*
X210752334Y-85284779D01*
X210752334Y-85493997D01*
X210839102Y-85563021D01*
X210690785Y-85681674D01*
X210542530Y-85563021D01*
X210542530Y-84966628D01*
X210457411Y-84898485D01*
X210752334Y-84898485D01*
X210752334Y-85256642D01*
X210951026Y-85256642D01*
X210951026Y-84864926D01*
X210846063Y-84805623D01*
X210752334Y-84898485D01*
X210457411Y-84898485D01*
X210455763Y-84897166D01*
X210604079Y-84778317D01*
X210725773Y-84875672D01*
X210948217Y-84659664D01*
X211160892Y-84778317D01*
G37*
G36*
X211954192Y-84778317D02*
G01*
X211954192Y-85283753D01*
X211741518Y-85402406D01*
X211545635Y-85211018D01*
X211545635Y-85493509D01*
X211632402Y-85563021D01*
X211484086Y-85681674D01*
X211335831Y-85563021D01*
X211335831Y-84966628D01*
X211249063Y-84897166D01*
X211249185Y-84897068D01*
X211545635Y-84897068D01*
X211545635Y-85167933D01*
X211639363Y-85258596D01*
X211744327Y-85200418D01*
X211744327Y-84863509D01*
X211639363Y-84805330D01*
X211545635Y-84897068D01*
X211249185Y-84897068D01*
X211397380Y-84778317D01*
X211520478Y-84875672D01*
X211741518Y-84659664D01*
X211954192Y-84778317D01*
G37*
G36*
X212354018Y-84778317D02*
G01*
X212502334Y-84660787D01*
X212650590Y-84778317D01*
X212650590Y-85493607D01*
X212737357Y-85563021D01*
X212589041Y-85681674D01*
X212440785Y-85563021D01*
X212440785Y-84847829D01*
X212354018Y-84778317D01*
G37*
G36*
X212740349Y-84961108D02*
G01*
X212888604Y-84842504D01*
X212989355Y-84923055D01*
X213237017Y-84724974D01*
X213382525Y-84842504D01*
X213385272Y-84842504D01*
X213385272Y-85013718D01*
X213036921Y-85321513D01*
X213036921Y-85493900D01*
X213069100Y-85519643D01*
X213202029Y-85413300D01*
X213385272Y-85559894D01*
X213236956Y-85677180D01*
X213109644Y-85575330D01*
X212976776Y-85681674D01*
X212827055Y-85563021D01*
X212827055Y-85467033D01*
X213175468Y-85155868D01*
X213175468Y-84912993D01*
X213112514Y-84863753D01*
X213036921Y-84924179D01*
X213036921Y-85156991D01*
X212827055Y-85156991D01*
X212827055Y-85030522D01*
X212740349Y-84961108D01*
G37*
G36*
X213930789Y-85221667D02*
G01*
X214140654Y-85221667D01*
X214140654Y-85461171D01*
X213860874Y-85681674D01*
X213522293Y-85563021D01*
X213522293Y-84966628D01*
X213435525Y-84897166D01*
X213583842Y-84778317D01*
X213705536Y-84875672D01*
X213927980Y-84659664D01*
X214140654Y-84778317D01*
X214140654Y-84999943D01*
X213930789Y-84999943D01*
X213930789Y-84863411D01*
X213824421Y-84804060D01*
X213732097Y-84896970D01*
X213732097Y-85465616D01*
X213930789Y-85535030D01*
X213930789Y-85221667D01*
G37*
G36*
X215165864Y-85026712D02*
G01*
X215165864Y-85352434D01*
X214837052Y-85613188D01*
X214837052Y-85810194D01*
X214688796Y-85928799D01*
X214540480Y-85810194D01*
X214627247Y-85740780D01*
X214627247Y-85096126D01*
X214620470Y-85090704D01*
X214837052Y-85090704D01*
X214837052Y-85568638D01*
X214955998Y-85453355D01*
X214955998Y-85095198D01*
X214894449Y-85045958D01*
X214837052Y-85090704D01*
X214620470Y-85090704D01*
X214540480Y-85026712D01*
X214688796Y-84908108D01*
X214837052Y-85025589D01*
X214837052Y-85052455D01*
X215017547Y-84908108D01*
X215165864Y-85026712D01*
G37*
G36*
X215216544Y-85025784D02*
G01*
X215364861Y-84907180D01*
X215513116Y-85025784D01*
X215513116Y-85493607D01*
X215576070Y-85542895D01*
X215655815Y-85479099D01*
X215655815Y-85095198D01*
X215569109Y-85025784D01*
X215717364Y-84907180D01*
X215865681Y-85025784D01*
X215865681Y-85493607D01*
X215952448Y-85563021D01*
X215804131Y-85681674D01*
X215655815Y-85563021D01*
X215655815Y-85518275D01*
X215451567Y-85681674D01*
X215303311Y-85563021D01*
X215303311Y-85095198D01*
X215216544Y-85025784D01*
G37*
G36*
X215954157Y-84778317D02*
G01*
X216102474Y-84660787D01*
X216250729Y-84778317D01*
X216250729Y-85493607D01*
X216337497Y-85563021D01*
X216189180Y-85681674D01*
X216040925Y-85563021D01*
X216040925Y-84847829D01*
X215954157Y-84778317D01*
G37*
G36*
X216339084Y-84778317D02*
G01*
X216487401Y-84660787D01*
X216635656Y-84778317D01*
X216635656Y-85493607D01*
X216722423Y-85563021D01*
X216574107Y-85681674D01*
X216425851Y-85563021D01*
X216425851Y-84847829D01*
X216339084Y-84778317D01*
G37*
G36*
X216724011Y-85025784D02*
G01*
X216872327Y-84907180D01*
X217020583Y-85025784D01*
X217020583Y-85493607D01*
X217083536Y-85542895D01*
X217163282Y-85479099D01*
X217163282Y-85095198D01*
X217076575Y-85025784D01*
X217224831Y-84907180D01*
X217373147Y-85025784D01*
X217373147Y-85493607D01*
X217459915Y-85563021D01*
X217311598Y-85681674D01*
X217163282Y-85563021D01*
X217163282Y-85518275D01*
X216959034Y-85681674D01*
X216810778Y-85563021D01*
X216810778Y-85095198D01*
X216724011Y-85025784D01*
G37*
G36*
X218087008Y-85026712D02*
G01*
X218087008Y-85352434D01*
X217758196Y-85613188D01*
X217758196Y-85810194D01*
X217609941Y-85928799D01*
X217461624Y-85810194D01*
X217548392Y-85740780D01*
X217548392Y-85096126D01*
X217541614Y-85090704D01*
X217758196Y-85090704D01*
X217758196Y-85568638D01*
X217877142Y-85453355D01*
X217877142Y-85095198D01*
X217815593Y-85045958D01*
X217758196Y-85090704D01*
X217541614Y-85090704D01*
X217461624Y-85026712D01*
X217609941Y-84908108D01*
X217758196Y-85025589D01*
X217758196Y-85052455D01*
X217938692Y-84908108D01*
X218087008Y-85026712D01*
G37*
%TO.C,J6*%
X228640000Y-104750000D02*
X229800000Y-104750000D01*
X228640000Y-105560000D02*
X228640000Y-104750000D01*
X228640000Y-106370000D02*
X228640000Y-110115000D01*
X228640000Y-106370000D02*
X229133292Y-106370000D01*
X228640000Y-110115000D02*
X229482077Y-110115000D01*
X230117923Y-110115000D02*
X230960000Y-110115000D01*
X230466708Y-106370000D02*
X230960000Y-106370000D01*
X230960000Y-106370000D02*
X230960000Y-110115000D01*
%TO.C,J2*%
X212830000Y-116240000D02*
X212830000Y-114540000D01*
X222170000Y-116240000D02*
X222170000Y-114540000D01*
%TO.C,R7*%
X205533641Y-83370000D02*
X205226359Y-83370000D01*
X205533641Y-84130000D02*
X205226359Y-84130000D01*
%TO.C,C7*%
X204467164Y-84515000D02*
X204682836Y-84515000D01*
X204467164Y-85235000D02*
X204682836Y-85235000D01*
%TO.C,U6*%
X209540000Y-108165000D02*
X209590000Y-108165000D01*
X209540000Y-109985000D02*
X209540000Y-108165000D01*
X209590000Y-109985000D02*
X209540000Y-109985000D01*
X210710000Y-108165000D02*
X211490000Y-108165000D01*
X212610000Y-108165000D02*
X212660000Y-108165000D01*
X212660000Y-108165000D02*
X212660000Y-109985000D01*
X212660000Y-109985000D02*
X212610000Y-109985000D01*
X209590000Y-110525000D02*
X209260000Y-110765000D01*
X209260000Y-110285000D01*
X209590000Y-110525000D01*
G36*
X209590000Y-110525000D02*
G01*
X209260000Y-110765000D01*
X209260000Y-110285000D01*
X209590000Y-110525000D01*
G37*
%TO.C,R2*%
X210846359Y-113670000D02*
X211153641Y-113670000D01*
X210846359Y-114430000D02*
X211153641Y-114430000D01*
%TO.C,R12*%
X208613641Y-86970000D02*
X208306359Y-86970000D01*
X208613641Y-87730000D02*
X208306359Y-87730000D01*
%TO.C,RN2*%
X199820000Y-89800000D02*
X199820000Y-90300000D01*
X202180000Y-89800000D02*
X202180000Y-90300000D01*
%TO.C,R17*%
X200695000Y-106403641D02*
X200695000Y-106096359D01*
X201455000Y-106403641D02*
X201455000Y-106096359D01*
%TO.C,C8*%
X196192164Y-89940000D02*
X196407836Y-89940000D01*
X196192164Y-90660000D02*
X196407836Y-90660000D01*
%TO.C,SW3*%
X209690000Y-86685000D02*
X211540000Y-86685000D01*
X211540000Y-86035000D02*
X211540000Y-86685000D01*
X211540000Y-86035000D02*
X217060000Y-86035000D01*
X211540000Y-89965000D02*
X211540000Y-88695000D01*
X211540000Y-89965000D02*
X217060000Y-89965000D01*
X217060000Y-86035000D02*
X217060000Y-87305000D01*
X217060000Y-89965000D02*
X217060000Y-88695000D01*
%TO.C,SW5*%
X210375000Y-97175000D02*
X210375000Y-101575000D01*
X212175000Y-97175000D02*
X212075000Y-97175000D01*
X212175000Y-101575000D02*
X212075000Y-101575000D01*
X213875000Y-101575000D02*
X213875000Y-97175000D01*
%TO.C,R8*%
X200946359Y-109120000D02*
X201253641Y-109120000D01*
X200946359Y-109880000D02*
X201253641Y-109880000D01*
%TO.C,R14*%
X208543641Y-92640000D02*
X208236359Y-92640000D01*
X208543641Y-93400000D02*
X208236359Y-93400000D01*
%TO.C,D4*%
X231340000Y-75515000D02*
X231340000Y-78200000D01*
X233260000Y-75515000D02*
X231340000Y-75515000D01*
X233260000Y-78200000D02*
X233260000Y-75515000D01*
%TO.C,J1*%
X199810000Y-116225000D02*
X199810000Y-114525000D01*
X209150000Y-116225000D02*
X209150000Y-114525000D01*
%TO.C,R15*%
X208543641Y-93610000D02*
X208236359Y-93610000D01*
X208543641Y-94370000D02*
X208236359Y-94370000D01*
D14*
%TO.C,REF\u002A\u002A*%
G36*
X202845757Y-68585929D02*
G01*
X202845757Y-68763265D01*
X202068206Y-68763265D01*
X201290655Y-68763265D01*
X201290655Y-69253881D01*
X201290655Y-69744498D01*
X201979538Y-69751787D01*
X202668421Y-69759076D01*
X202668421Y-69922771D01*
X202668421Y-70086466D01*
X201979538Y-70093755D01*
X201290655Y-70101044D01*
X201290655Y-70646225D01*
X201290655Y-71191407D01*
X202095489Y-71191407D01*
X202900322Y-71191407D01*
X202900322Y-71368743D01*
X202900322Y-71546079D01*
X201890870Y-71546079D01*
X200881418Y-71546079D01*
X200881418Y-69977336D01*
X200881418Y-68408593D01*
X201863588Y-68408593D01*
X202845757Y-68408593D01*
X202845757Y-68585929D01*
G37*
G36*
X202252579Y-67343645D02*
G01*
X202594708Y-67407884D01*
X202926880Y-67516620D01*
X203244101Y-67669279D01*
X203541378Y-67865292D01*
X203813717Y-68104084D01*
X204033825Y-68355690D01*
X204233595Y-68659053D01*
X204386805Y-68986107D01*
X204492853Y-69331127D01*
X204551135Y-69688390D01*
X204561049Y-70052170D01*
X204521992Y-70416742D01*
X204433360Y-70776382D01*
X204319807Y-71071254D01*
X204187682Y-71314465D01*
X204014975Y-71558476D01*
X203813483Y-71788786D01*
X203595001Y-71990895D01*
X203530000Y-72042273D01*
X203388232Y-72138460D01*
X203216250Y-72237614D01*
X203030792Y-72331475D01*
X202848595Y-72411779D01*
X202686399Y-72470265D01*
X202632417Y-72485317D01*
X202437813Y-72525753D01*
X202231490Y-72555164D01*
X202030021Y-72572082D01*
X201849980Y-72575037D01*
X201727175Y-72565615D01*
X201435842Y-72517075D01*
X201189173Y-72460415D01*
X200977534Y-72392934D01*
X200791296Y-72311934D01*
X200754889Y-72293154D01*
X200426544Y-72089868D01*
X200134869Y-71848985D01*
X199882721Y-71574042D01*
X199672954Y-71268574D01*
X199508427Y-70936116D01*
X199401850Y-70618474D01*
X199378118Y-70521707D01*
X199361372Y-70430726D01*
X199350526Y-70332857D01*
X199344494Y-70215427D01*
X199342191Y-70065761D01*
X199342266Y-69922771D01*
X199342937Y-69842122D01*
X199729109Y-69842122D01*
X199729727Y-70079196D01*
X199749445Y-70304700D01*
X199784599Y-70484781D01*
X199898077Y-70809329D01*
X200054059Y-71106501D01*
X200247938Y-71373363D01*
X200475107Y-71606985D01*
X200730957Y-71804434D01*
X201010881Y-71962779D01*
X201310273Y-72079086D01*
X201624524Y-72150425D01*
X201949028Y-72173863D01*
X202279176Y-72146468D01*
X202369619Y-72129783D01*
X202706695Y-72033190D01*
X203018532Y-71889618D01*
X203301586Y-71702156D01*
X203552312Y-71473892D01*
X203767162Y-71207916D01*
X203942592Y-70907316D01*
X204041827Y-70673039D01*
X204118525Y-70390093D01*
X204154932Y-70084043D01*
X204151181Y-69768439D01*
X204107403Y-69456832D01*
X204027288Y-69172502D01*
X203918228Y-68934041D01*
X203767370Y-68694215D01*
X203585413Y-68466527D01*
X203383059Y-68264480D01*
X203186907Y-68112066D01*
X202886495Y-67941511D01*
X202576037Y-67821785D01*
X202260087Y-67751145D01*
X201943200Y-67727846D01*
X201629928Y-67750142D01*
X201324827Y-67816289D01*
X201032451Y-67924541D01*
X200757353Y-68073155D01*
X200504087Y-68260384D01*
X200277209Y-68484484D01*
X200081271Y-68743709D01*
X199920828Y-69036316D01*
X199800434Y-69360559D01*
X199785128Y-69415497D01*
X199747579Y-69614035D01*
X199729109Y-69842122D01*
X199342937Y-69842122D01*
X199343734Y-69746341D01*
X199347288Y-69612025D01*
X199354256Y-69507379D01*
X199365966Y-69419957D01*
X199383747Y-69337315D01*
X199408927Y-69247006D01*
X199417386Y-69218976D01*
X199553363Y-68857759D01*
X199731530Y-68530453D01*
X199953794Y-68234163D01*
X200222065Y-67965993D01*
X200270389Y-67924661D01*
X200567381Y-67709912D01*
X200884382Y-67543090D01*
X201216396Y-67423624D01*
X201558429Y-67350943D01*
X201905488Y-67324474D01*
X202252579Y-67343645D01*
G37*
D13*
%TO.C,D5*%
X189840000Y-86600000D02*
X189840000Y-89285000D01*
X189840000Y-89285000D02*
X191760000Y-89285000D01*
X191760000Y-89285000D02*
X191760000Y-86600000D01*
%TO.C,C3*%
X213065000Y-109182836D02*
X213065000Y-108967164D01*
X213785000Y-109182836D02*
X213785000Y-108967164D01*
%TO.C,J5*%
X192168000Y-74820000D02*
X193548000Y-74820000D01*
X192168000Y-76200000D02*
X192168000Y-74820000D01*
X192168000Y-77470000D02*
X192168000Y-90280000D01*
X192168000Y-77470000D02*
X194928000Y-77470000D01*
X192168000Y-90280000D02*
X194928000Y-90280000D01*
X194928000Y-77470000D02*
X194928000Y-90280000D01*
%TO.C,R11*%
X190953641Y-89420000D02*
X190646359Y-89420000D01*
X190953641Y-90180000D02*
X190646359Y-90180000D01*
%TO.C,U2*%
X194365000Y-92740000D02*
X195315000Y-92740000D01*
X194365000Y-93690000D02*
X194365000Y-92740000D01*
X194365000Y-102960000D02*
X194365000Y-102010000D01*
X195315000Y-102960000D02*
X194365000Y-102960000D01*
X203635000Y-92740000D02*
X204585000Y-92740000D01*
X204585000Y-92740000D02*
X204585000Y-93690000D01*
X204585000Y-102010000D02*
X204585000Y-102960000D01*
X204585000Y-102960000D02*
X203635000Y-102960000D01*
X205565000Y-102480000D02*
X204885000Y-102480000D01*
X205225000Y-102010000D01*
X205565000Y-102480000D01*
G36*
X205565000Y-102480000D02*
G01*
X204885000Y-102480000D01*
X205225000Y-102010000D01*
X205565000Y-102480000D01*
G37*
%TO.C,SW2*%
X216900000Y-97150000D02*
X216900000Y-101550000D01*
X218600000Y-97150000D02*
X218700000Y-97150000D01*
X218600000Y-101550000D02*
X218700000Y-101550000D01*
X220400000Y-101550000D02*
X220400000Y-97150000D01*
%TO.C,C15*%
X208310000Y-73542164D02*
X208310000Y-73757836D01*
X209030000Y-73542164D02*
X209030000Y-73757836D01*
%TO.C,Y2*%
X203250000Y-85515000D02*
X205850000Y-85515000D01*
X206035000Y-88985000D02*
X206035000Y-89185000D01*
X206035000Y-89185000D02*
X203250000Y-89185000D01*
%TO.C,C16*%
X206440000Y-93392164D02*
X206440000Y-93607836D01*
X207160000Y-93392164D02*
X207160000Y-93607836D01*
%TO.C,C1*%
X207982164Y-106160000D02*
X208197836Y-106160000D01*
X207982164Y-106880000D02*
X208197836Y-106880000D01*
%TO.C,Y1*%
X207190000Y-100410000D02*
X209610000Y-100410000D01*
X209610000Y-100410000D02*
X209610000Y-97590000D01*
%TO.C,D1*%
X195315000Y-107840000D02*
X195315000Y-109760000D01*
X195315000Y-109760000D02*
X198000000Y-109760000D01*
X198000000Y-107840000D02*
X195315000Y-107840000D01*
%TO.C,D3*%
X231340000Y-92715000D02*
X231340000Y-95400000D01*
X233260000Y-92715000D02*
X231340000Y-92715000D01*
X233260000Y-95400000D02*
X233260000Y-92715000D01*
%TO.C,R6*%
X208316359Y-85900000D02*
X208623641Y-85900000D01*
X208316359Y-86660000D02*
X208623641Y-86660000D01*
%TO.C,R16*%
X200946359Y-108120000D02*
X201253641Y-108120000D01*
X200946359Y-108880000D02*
X201253641Y-108880000D01*
%TO.C,C13*%
X211707836Y-72440000D02*
X211492164Y-72440000D01*
X211707836Y-73160000D02*
X211492164Y-73160000D01*
%TO.C,SW4*%
X209690000Y-92285000D02*
X211540000Y-92285000D01*
X211540000Y-91635000D02*
X211540000Y-92285000D01*
X211540000Y-91635000D02*
X217060000Y-91635000D01*
X211540000Y-95565000D02*
X211540000Y-94295000D01*
X211540000Y-95565000D02*
X217060000Y-95565000D01*
X217060000Y-91635000D02*
X217060000Y-92905000D01*
X217060000Y-95565000D02*
X217060000Y-94295000D01*
%TO.C,C2*%
X206857836Y-102840000D02*
X206642164Y-102840000D01*
X206857836Y-103560000D02*
X206642164Y-103560000D01*
%TO.C,J4*%
X228120000Y-87570000D02*
X228120000Y-74760000D01*
X230880000Y-74760000D02*
X228120000Y-74760000D01*
X230880000Y-87570000D02*
X228120000Y-87570000D01*
X230880000Y-87570000D02*
X230880000Y-74760000D01*
X230880000Y-88840000D02*
X230880000Y-90220000D01*
X230880000Y-90220000D02*
X229500000Y-90220000D01*
%TO.C,C4*%
X208390000Y-108507836D02*
X208390000Y-108292164D01*
X209110000Y-108507836D02*
X209110000Y-108292164D01*
D14*
%TO.C,REF\u002A\u002A*%
G36*
X220227063Y-106433488D02*
G01*
X220221508Y-106439046D01*
X220215952Y-106433488D01*
X220221508Y-106427930D01*
X220227063Y-106433488D01*
G37*
G36*
X220438174Y-104688280D02*
G01*
X220432619Y-104693838D01*
X220427063Y-104688280D01*
X220432619Y-104682722D01*
X220438174Y-104688280D01*
G37*
G36*
X220638174Y-104810556D02*
G01*
X220632619Y-104816114D01*
X220627063Y-104810556D01*
X220632619Y-104804998D01*
X220638174Y-104810556D01*
G37*
G36*
X220993730Y-106622459D02*
G01*
X220988174Y-106628017D01*
X220982619Y-106622459D01*
X220988174Y-106616901D01*
X220993730Y-106622459D01*
G37*
G36*
X222071508Y-105144035D02*
G01*
X222065952Y-105149593D01*
X222060397Y-105144035D01*
X222065952Y-105138477D01*
X222071508Y-105144035D01*
G37*
G36*
X223293730Y-106489068D02*
G01*
X223288174Y-106494626D01*
X223282619Y-106489068D01*
X223288174Y-106483510D01*
X223293730Y-106489068D01*
G37*
G36*
X223482619Y-105333006D02*
G01*
X223477063Y-105338564D01*
X223471508Y-105333006D01*
X223477063Y-105327448D01*
X223482619Y-105333006D01*
G37*
G36*
X221514697Y-103151057D02*
G01*
X221608223Y-103161586D01*
X221688360Y-103185691D01*
X221760913Y-103225937D01*
X221831686Y-103284887D01*
X221843123Y-103296117D01*
X221908821Y-103376515D01*
X221962939Y-103473053D01*
X222004513Y-103582339D01*
X222032580Y-103700983D01*
X222046178Y-103825592D01*
X222044343Y-103952777D01*
X222040593Y-103991320D01*
X222025989Y-104085182D01*
X222003795Y-104189340D01*
X221976280Y-104294764D01*
X221945716Y-104392429D01*
X221926787Y-104443728D01*
X221886539Y-104545510D01*
X221854066Y-104628889D01*
X221828683Y-104696023D01*
X221809702Y-104749066D01*
X221796436Y-104790173D01*
X221788200Y-104821500D01*
X221784307Y-104845203D01*
X221784069Y-104863436D01*
X221786800Y-104878355D01*
X221787542Y-104880816D01*
X221803321Y-104905259D01*
X221826638Y-104912054D01*
X221853570Y-104902600D01*
X221880192Y-104878296D01*
X221902581Y-104840540D01*
X221902948Y-104839681D01*
X221915344Y-104805384D01*
X221929837Y-104757574D01*
X221943994Y-104704505D01*
X221949234Y-104682722D01*
X221981485Y-104545192D01*
X222009915Y-104427727D01*
X222034983Y-104328577D01*
X222057151Y-104245990D01*
X222076879Y-104178217D01*
X222094628Y-104123506D01*
X222101349Y-104104691D01*
X222157503Y-103971803D01*
X222222796Y-103851559D01*
X222236011Y-103832350D01*
X222304841Y-103832350D01*
X222310397Y-103837908D01*
X222315952Y-103832350D01*
X222310397Y-103826792D01*
X222304841Y-103832350D01*
X222236011Y-103832350D01*
X222295862Y-103745354D01*
X222375336Y-103654581D01*
X222459852Y-103580636D01*
X222548045Y-103524912D01*
X222638549Y-103488805D01*
X222718529Y-103474402D01*
X222819009Y-103477636D01*
X222916091Y-103501956D01*
X223007699Y-103546259D01*
X223091758Y-103609439D01*
X223166195Y-103690392D01*
X223192307Y-103726748D01*
X223231876Y-103789145D01*
X223260430Y-103843882D01*
X223280006Y-103897412D01*
X223292642Y-103956191D01*
X223300378Y-104026674D01*
X223303616Y-104079267D01*
X223306810Y-104139074D01*
X223309987Y-104181062D01*
X223314123Y-104209620D01*
X223320198Y-104229136D01*
X223329189Y-104244002D01*
X223342074Y-104258605D01*
X223344033Y-104260658D01*
X223372465Y-104285479D01*
X223410759Y-104312898D01*
X223438174Y-104329759D01*
X223501834Y-104373793D01*
X223565556Y-104431845D01*
X223623136Y-104497345D01*
X223668372Y-104563722D01*
X223680199Y-104586068D01*
X223718122Y-104676570D01*
X223740163Y-104761213D01*
X223748012Y-104847749D01*
X223747173Y-104893505D01*
X223743151Y-104947142D01*
X223735432Y-104989043D01*
X223721368Y-105029676D01*
X223702087Y-105071781D01*
X223645136Y-105164588D01*
X223572162Y-105242674D01*
X223484454Y-105305257D01*
X223383300Y-105351554D01*
X223269991Y-105380785D01*
X223175730Y-105391147D01*
X223110413Y-105392932D01*
X223049267Y-105390676D01*
X222989066Y-105383528D01*
X222926583Y-105370639D01*
X222858592Y-105351158D01*
X222781867Y-105324235D01*
X222693180Y-105289020D01*
X222589305Y-105244661D01*
X222543730Y-105224588D01*
X222447945Y-105182829D01*
X222369249Y-105150355D01*
X222304902Y-105126413D01*
X222252165Y-105110252D01*
X222208296Y-105101122D01*
X222170555Y-105098272D01*
X222136202Y-105100949D01*
X222111309Y-105106058D01*
X222060428Y-105128034D01*
X222021639Y-105162027D01*
X221999507Y-105188553D01*
X221985367Y-105209377D01*
X221982619Y-105216596D01*
X221988793Y-105227597D01*
X222008587Y-105236824D01*
X222043904Y-105244639D01*
X222096650Y-105251401D01*
X222168729Y-105257473D01*
X222214127Y-105260455D01*
X222358767Y-105272058D01*
X222485727Y-105288528D01*
X222599194Y-105310777D01*
X222703356Y-105339715D01*
X222802400Y-105376252D01*
X222856821Y-105400200D01*
X222934158Y-105438394D01*
X222998192Y-105476116D01*
X223056960Y-105518813D01*
X223118499Y-105571934D01*
X223140904Y-105592793D01*
X223238074Y-105693810D01*
X223313518Y-105793272D01*
X223367605Y-105892012D01*
X223400705Y-105990863D01*
X223413184Y-106090657D01*
X223405599Y-106191145D01*
X223376348Y-106299172D01*
X223327446Y-106396964D01*
X223259207Y-106484054D01*
X223171940Y-106559978D01*
X223147423Y-106577003D01*
X223092620Y-106610593D01*
X223040917Y-106635028D01*
X222986445Y-106652004D01*
X222923334Y-106663217D01*
X222845716Y-106670360D01*
X222818621Y-106671969D01*
X222753462Y-106675872D01*
X222705568Y-106681280D01*
X222670018Y-106690967D01*
X222641891Y-106707707D01*
X222616267Y-106734274D01*
X222588225Y-106773441D01*
X222559114Y-106818242D01*
X222488733Y-106912424D01*
X222410601Y-106987261D01*
X222322304Y-107044992D01*
X222304801Y-107053908D01*
X222210701Y-107094030D01*
X222123631Y-107117775D01*
X222037308Y-107126566D01*
X221988519Y-107125581D01*
X221878193Y-107109216D01*
X221779467Y-107074171D01*
X221693382Y-107021326D01*
X221620979Y-106951564D01*
X221563299Y-106865764D01*
X221521384Y-106764809D01*
X221509110Y-106719724D01*
X221500771Y-106675015D01*
X221496263Y-106625120D01*
X221495252Y-106564096D01*
X221496852Y-106500184D01*
X221501941Y-106423465D01*
X221511985Y-106347566D01*
X221527863Y-106269516D01*
X221550456Y-106186342D01*
X221580644Y-106095072D01*
X221619308Y-105992735D01*
X221667328Y-105876360D01*
X221712407Y-105772661D01*
X221737578Y-105714090D01*
X221761478Y-105655559D01*
X221781480Y-105603681D01*
X221794959Y-105565067D01*
X221795407Y-105563627D01*
X221807911Y-105512493D01*
X221813080Y-105466873D01*
X221810878Y-105431408D01*
X221801273Y-105410742D01*
X221796561Y-105407990D01*
X221777586Y-105412397D01*
X221754160Y-105432527D01*
X221730298Y-105463544D01*
X221710016Y-105500617D01*
X221701744Y-105522139D01*
X221691778Y-105553630D01*
X221677092Y-105600473D01*
X221659526Y-105656777D01*
X221640921Y-105716655D01*
X221637521Y-105727623D01*
X221591927Y-105871595D01*
X221547922Y-106003255D01*
X221502696Y-106130480D01*
X221453443Y-106261144D01*
X221397356Y-106403126D01*
X221391842Y-106416814D01*
X221343426Y-106534113D01*
X221297584Y-106638610D01*
X221251771Y-106735167D01*
X221203445Y-106828647D01*
X221150060Y-106923911D01*
X221089073Y-107025823D01*
X221017941Y-107139245D01*
X220995861Y-107173727D01*
X220946499Y-107253018D01*
X220909379Y-107318985D01*
X220882701Y-107375537D01*
X220864669Y-107426585D01*
X220853486Y-107476038D01*
X220851742Y-107487258D01*
X220845412Y-107519031D01*
X220834549Y-107539840D01*
X220814923Y-107552060D01*
X220782307Y-107558066D01*
X220732473Y-107560232D01*
X220721508Y-107560396D01*
X220670139Y-107557496D01*
X220630211Y-107545854D01*
X220613174Y-107537087D01*
X220587545Y-107518829D01*
X220572862Y-107501789D01*
X220571508Y-107496976D01*
X220577776Y-107474008D01*
X220595334Y-107436304D01*
X220622308Y-107387041D01*
X220656828Y-107329398D01*
X220697022Y-107266552D01*
X220741017Y-107201680D01*
X220766953Y-107165188D01*
X220836501Y-107068974D01*
X220894347Y-106988676D01*
X220941903Y-106922264D01*
X220980583Y-106867708D01*
X221011799Y-106822977D01*
X221036964Y-106786040D01*
X221057492Y-106754869D01*
X221074795Y-106727431D01*
X221090287Y-106701697D01*
X221094379Y-106694713D01*
X221117099Y-106656464D01*
X221135942Y-106626052D01*
X221147907Y-106608267D01*
X221150063Y-106605785D01*
X221157064Y-106594483D01*
X221172153Y-106566525D01*
X221193615Y-106525208D01*
X221219737Y-106473828D01*
X221245481Y-106422372D01*
X221278086Y-106355955D01*
X221307291Y-106294405D01*
X221334294Y-106234699D01*
X221360288Y-106173814D01*
X221386468Y-106108728D01*
X221414031Y-106036418D01*
X221444170Y-105953863D01*
X221478081Y-105858039D01*
X221516960Y-105745924D01*
X221543342Y-105669072D01*
X221569414Y-105590759D01*
X221587356Y-105530800D01*
X221597381Y-105486945D01*
X221599706Y-105456944D01*
X221594545Y-105438548D01*
X221582113Y-105429505D01*
X221566453Y-105427492D01*
X221535499Y-105435455D01*
X221496319Y-105456479D01*
X221454574Y-105486266D01*
X221415922Y-105520521D01*
X221386023Y-105554946D01*
X221375216Y-105572688D01*
X221350098Y-105635852D01*
X221326527Y-105718240D01*
X221305255Y-105816860D01*
X221288760Y-105916595D01*
X221272124Y-106025556D01*
X221256322Y-106115653D01*
X221240672Y-106190203D01*
X221224490Y-106252523D01*
X221210578Y-106296162D01*
X221163518Y-106400123D01*
X221099805Y-106493031D01*
X221021961Y-106571950D01*
X220932506Y-106633945D01*
X220910397Y-106645580D01*
X220823241Y-106683376D01*
X220741435Y-106706133D01*
X220656236Y-106715997D01*
X220620505Y-106716813D01*
X220570494Y-106715677D01*
X220533332Y-106710780D01*
X220499716Y-106700149D01*
X220463898Y-106683593D01*
X220390314Y-106637332D01*
X220328952Y-106577086D01*
X220276745Y-106499600D01*
X220259589Y-106466836D01*
X220228604Y-106396321D01*
X220208492Y-106329717D01*
X220197474Y-106258850D01*
X220193768Y-106175542D01*
X220193730Y-106164456D01*
X220191996Y-106105482D01*
X220184706Y-106061347D01*
X220168733Y-106026897D01*
X220140947Y-105996981D01*
X220098219Y-105966448D01*
X220059053Y-105942716D01*
X219961590Y-105873560D01*
X219881727Y-105791198D01*
X219820170Y-105696785D01*
X219777628Y-105591476D01*
X219754809Y-105476426D01*
X219751989Y-105441537D01*
X219755858Y-105328451D01*
X219779804Y-105223235D01*
X219822884Y-105127535D01*
X219884155Y-105042994D01*
X219962672Y-104971260D01*
X220053354Y-104915991D01*
X220091109Y-104899483D01*
X220282619Y-104899483D01*
X220288174Y-104905041D01*
X220293730Y-104899483D01*
X220288174Y-104893925D01*
X220282619Y-104899483D01*
X220091109Y-104899483D01*
X220147020Y-104875036D01*
X220237008Y-104847436D01*
X220330940Y-104831495D01*
X220436439Y-104825514D01*
X220460397Y-104825364D01*
X220537022Y-104827041D01*
X220609620Y-104832473D01*
X220681458Y-104842477D01*
X220755801Y-104857869D01*
X220835918Y-104879468D01*
X220925074Y-104908091D01*
X221026538Y-104944553D01*
X221143574Y-104989674D01*
X221188174Y-105007404D01*
X221283376Y-105044495D01*
X221360368Y-105071964D01*
X221420899Y-105089960D01*
X221466720Y-105098635D01*
X221499579Y-105098141D01*
X221521226Y-105088627D01*
X221533412Y-105070245D01*
X221537884Y-105043146D01*
X221538004Y-105037592D01*
X221528001Y-105006132D01*
X221500371Y-104974862D01*
X221464989Y-104951475D01*
X221441211Y-104943079D01*
X221399415Y-104932269D01*
X221343568Y-104919864D01*
X221277640Y-104906685D01*
X221205597Y-104893550D01*
X221131407Y-104881279D01*
X221107106Y-104877556D01*
X220931979Y-104846680D01*
X220776919Y-104809280D01*
X220640557Y-104764696D01*
X220521524Y-104712270D01*
X220418454Y-104651340D01*
X220329977Y-104581250D01*
X220254725Y-104501338D01*
X220214836Y-104447641D01*
X220173808Y-104381386D01*
X220146170Y-104320414D01*
X220129244Y-104256557D01*
X220120351Y-104181649D01*
X220118797Y-104154713D01*
X220120394Y-104058233D01*
X220135969Y-103974342D01*
X220166875Y-103897333D01*
X220188987Y-103858851D01*
X220203962Y-103830047D01*
X220210048Y-103807558D01*
X220209016Y-103801367D01*
X220206780Y-103793707D01*
X220210133Y-103795888D01*
X220222124Y-103793057D01*
X220245207Y-103778014D01*
X220274475Y-103753977D01*
X220275634Y-103752937D01*
X220366236Y-103683042D01*
X220461079Y-103633690D01*
X220563526Y-103603595D01*
X220676938Y-103591474D01*
X220699286Y-103591100D01*
X220764200Y-103589719D01*
X220812309Y-103584345D01*
X220848998Y-103572193D01*
X220879652Y-103550481D01*
X220909655Y-103516424D01*
X220944391Y-103467239D01*
X220947331Y-103462873D01*
X221004018Y-103387711D01*
X221115952Y-103387711D01*
X221121508Y-103393269D01*
X221127063Y-103387711D01*
X221121508Y-103382153D01*
X221115952Y-103387711D01*
X221004018Y-103387711D01*
X221016798Y-103370766D01*
X221089232Y-103297912D01*
X221167804Y-103241330D01*
X221205106Y-103220838D01*
X221282010Y-103185655D01*
X221350399Y-103163394D01*
X221418384Y-103152225D01*
X221494076Y-103150321D01*
X221514697Y-103151057D01*
G37*
D13*
%TO.C,SW1*%
X209697520Y-81062484D02*
X211547520Y-81062484D01*
X211547520Y-80412484D02*
X211547520Y-81062484D01*
X211547520Y-80412484D02*
X217067520Y-80412484D01*
X211547520Y-84342484D02*
X211547520Y-83072484D01*
X211547520Y-84342484D02*
X217067520Y-84342484D01*
X217067520Y-80412484D02*
X217067520Y-81682484D01*
X217067520Y-84342484D02*
X217067520Y-83072484D01*
%TO.C,C14*%
X207210000Y-73757836D02*
X207210000Y-73542164D01*
X207930000Y-73757836D02*
X207930000Y-73542164D01*
%TO.C,R3*%
X210846359Y-114645000D02*
X211153641Y-114645000D01*
X210846359Y-115405000D02*
X211153641Y-115405000D01*
%TO.C,R1*%
X208553641Y-95680000D02*
X208246359Y-95680000D01*
X208553641Y-96440000D02*
X208246359Y-96440000D01*
%TO.C,C6*%
X208557836Y-100640000D02*
X208342164Y-100640000D01*
X208557836Y-101360000D02*
X208342164Y-101360000D01*
%TO.C,R5*%
X211153641Y-115595000D02*
X210846359Y-115595000D01*
X211153641Y-116355000D02*
X210846359Y-116355000D01*
%TO.C,C11*%
X203092164Y-89540000D02*
X203307836Y-89540000D01*
X203092164Y-90260000D02*
X203307836Y-90260000D01*
%TO.C,R4*%
X211153641Y-116545000D02*
X210846359Y-116545000D01*
X211153641Y-117305000D02*
X210846359Y-117305000D01*
%TO.C,U5*%
X209490000Y-102590000D02*
X212710000Y-102590000D01*
X209490000Y-102765000D02*
X209490000Y-102590000D01*
X209490000Y-105810000D02*
X209490000Y-105635000D01*
X212710000Y-102590000D02*
X212710000Y-102765000D01*
X212710000Y-105635000D02*
X212710000Y-105810000D01*
X212710000Y-105810000D02*
X209490000Y-105810000D01*
X213500000Y-105970000D02*
X213020000Y-105970000D01*
X213260000Y-105640000D01*
X213500000Y-105970000D01*
G36*
X213500000Y-105970000D02*
G01*
X213020000Y-105970000D01*
X213260000Y-105640000D01*
X213500000Y-105970000D01*
G37*
%TO.C,C5*%
X208292164Y-96640000D02*
X208507836Y-96640000D01*
X208292164Y-97360000D02*
X208507836Y-97360000D01*
%TO.C,U3*%
X202920000Y-106997500D02*
X202970000Y-106997500D01*
X202920000Y-108817500D02*
X202920000Y-106997500D01*
X202970000Y-108817500D02*
X202920000Y-108817500D01*
X205990000Y-106997500D02*
X206040000Y-106997500D01*
X206040000Y-106997500D02*
X206040000Y-108817500D01*
X206040000Y-108817500D02*
X205990000Y-108817500D01*
X202970000Y-109357500D02*
X202640000Y-109597500D01*
X202640000Y-109117500D01*
X202970000Y-109357500D01*
G36*
X202970000Y-109357500D02*
G01*
X202640000Y-109597500D01*
X202640000Y-109117500D01*
X202970000Y-109357500D01*
G37*
%TO.C,RN1*%
X191450000Y-93670000D02*
X191950000Y-93670000D01*
X191450000Y-96030000D02*
X191950000Y-96030000D01*
%TO.C,R18*%
X208553641Y-94740000D02*
X208246359Y-94740000D01*
X208553641Y-95500000D02*
X208246359Y-95500000D01*
%TO.C,R9*%
X232403641Y-91770000D02*
X232096359Y-91770000D01*
X232403641Y-92530000D02*
X232096359Y-92530000D01*
%TO.C,R13*%
X208623641Y-88250000D02*
X208316359Y-88250000D01*
X208623641Y-89010000D02*
X208316359Y-89010000D01*
D12*
%TO.C,U1*%
X209611682Y-73513964D02*
X209611682Y-74013964D01*
X209611682Y-73513964D02*
X210111682Y-73513964D01*
X209611682Y-76363964D02*
X209611682Y-75863964D01*
X209611682Y-76363964D02*
X210111682Y-76363964D01*
X212961682Y-73513964D02*
X212461682Y-73513964D01*
X212961682Y-73513964D02*
X212961682Y-74013964D01*
X212961682Y-76363964D02*
X212461682Y-76363964D01*
X212961682Y-76363964D02*
X212961682Y-75863964D01*
D15*
X213366682Y-75616464D02*
G75*
G02*
X213166682Y-75616464I-100000J0D01*
G01*
X213166682Y-75616464D02*
G75*
G02*
X213366682Y-75616464I100000J0D01*
G01*
D13*
%TO.C,U4*%
X215929854Y-106981730D02*
X215979854Y-106981730D01*
X215929854Y-108801730D02*
X215929854Y-106981730D01*
X215979854Y-108801730D02*
X215929854Y-108801730D01*
X218999854Y-106981730D02*
X219049854Y-106981730D01*
X219049854Y-106981730D02*
X219049854Y-108801730D01*
X219049854Y-108801730D02*
X218999854Y-108801730D01*
X215979854Y-109341730D02*
X215649854Y-109581730D01*
X215649854Y-109101730D01*
X215979854Y-109341730D01*
G36*
X215979854Y-109341730D02*
G01*
X215649854Y-109581730D01*
X215649854Y-109101730D01*
X215979854Y-109341730D01*
G37*
%TO.C,J3*%
X228120000Y-100270000D02*
X228120000Y-92540000D01*
X230880000Y-92540000D02*
X228120000Y-92540000D01*
X230880000Y-100270000D02*
X228120000Y-100270000D01*
X230880000Y-100270000D02*
X230880000Y-92540000D01*
X230880000Y-101540000D02*
X230880000Y-102920000D01*
X230880000Y-102920000D02*
X229500000Y-102920000D01*
%TO.C,D2*%
X195315000Y-105390000D02*
X195315000Y-107310000D01*
X195315000Y-107310000D02*
X198000000Y-107310000D01*
X198000000Y-105390000D02*
X195315000Y-105390000D01*
%TO.C,R10*%
X232136359Y-74420000D02*
X232443641Y-74420000D01*
X232136359Y-75180000D02*
X232443641Y-75180000D01*
%TO.C,C12*%
X218542164Y-102340000D02*
X218757836Y-102340000D01*
X218542164Y-103060000D02*
X218757836Y-103060000D01*
%TO.C,C10*%
X191690000Y-101527836D02*
X191690000Y-101312164D01*
X192410000Y-101527836D02*
X192410000Y-101312164D01*
%TO.C,C9*%
X201640000Y-106357836D02*
X201640000Y-106142164D01*
X202360000Y-106357836D02*
X202360000Y-106142164D01*
%TD*%
M02*
